<?xml version="1.0" encoding="UTF-8"?>
<svg width="136px" height="110px" viewBox="0 0 136 110" version="1.1" xmlns="http://www.w3.org/2000/svg" xmlns:xlink="http://www.w3.org/1999/xlink">
    <!-- Generator: sketchtool 52.2 (67145) - http://www.bohemiancoding.com/sketch -->
    <title>4F19589D-A5D5-4EFF-87B3-0F484ECB3A03</title>
    <desc>Created with sketchtool.</desc>
    <defs>
        <linearGradient x1="17.7302152%" y1="62.5045075%" x2="70.9849235%" y2="7.44032242%" id="linearGradient-1">
            <stop stop-color="#76C8B6" stop-opacity="0.5" offset="0%"></stop>
            <stop stop-color="#ACDEFF" stop-opacity="0.5" offset="100%"></stop>
        </linearGradient>
        <polygon id="path-2" points="0.281508615 0.093305431 158.016763 0.093305431 158.016763 116.553339 0.281508615 116.553339"></polygon>
        <linearGradient x1="68.9594068%" y1="-22.7928506%" x2="0%" y2="87.3249329%" id="linearGradient-4">
            <stop stop-color="#8628EC" offset="0%"></stop>
            <stop stop-color="#64F8C5" offset="100%"></stop>
        </linearGradient>
    </defs>
    <g id="Page-2" stroke="none" stroke-width="1" fill="none" fill-rule="evenodd">
        <g id="Assets" transform="translate(-80.000000, -146.000000)">
            <g id="Group-7-Copy" transform="translate(49.000000, 146.000000)">
                <g id="Group-5">
                    <g id="Group-20" transform="translate(0.666667, 0.000000)">
                        <g id="Group-19">
                            <g id="Group-3" transform="translate(0.718491, 0.008649)">
                                <g id="Group-2">
                                    <circle id="Oval" fill="url(#linearGradient-1)" cx="144" cy="89" r="21"></circle>
                                    <mask id="mask-3" fill="white">
                                        <use xlink:href="#path-2"></use>
                                    </mask>
                                    <g id="Clip-5"></g>
                                    <path d="M48.5922392,44.0123733 L76.4330693,80.3429899 C79.8515905,84.8720981 78.9447546,91.3101728 74.408786,94.7231872 C69.8723703,98.1357553 63.423908,97.2312729 60.0058339,92.7017184 L32.1650038,56.3711017 C28.7469298,51.8419936 29.6528714,45.4043653 34.1892871,41.9913509 C38.7257028,38.5783364 45.1741651,39.4832652 48.5922392,44.0123733 Z" id="Fill-1" fill="#3B3D6C" mask="url(#mask-3)" transform="translate(54.299066, 68.357158) scale(-1, 1) translate(-54.299066, -68.357158) "></path>
                                    <path d="M135.963096,63.3938974 L117.241192,39.2327015 C116.619642,38.7063518 115.814758,38.3933991 114.938329,38.3933991 C112.961892,38.3933991 111.361067,39.9920917 111.361067,41.9648989 C111.361067,42.4653553 111.463913,42.9425969 111.651719,43.3760877 L120.09853,84.426013 L120.26845,85.2429935 L120.246092,85.2296004 L120.107473,85.1313842 C121.390816,89.1671789 120.0717,93.7431629 116.489966,96.4347344 C111.955787,99.8504275 105.507771,98.943713 102.087014,94.4172835 L79.4742454,64.4524006 C78.821395,63.7961375 77.9226079,63.3938974 76.9299176,63.3938974 C74.9534802,63.3938974 73.3526553,64.9925899 73.3526553,66.9653971 L73.3526553,88.8408331 C73.3526553,94.5110354 68.7469302,99.1088949 63.0680264,99.1088949 C57.3891226,99.1088949 52.7833974,94.5110354 52.7833974,88.8408331 C52.7833974,83.1710772 57.3891226,78.5727713 63.0680264,78.5727713 C63.22006,78.5727713 63.3720937,78.5772357 63.5241273,78.5866109 L63.5151842,78.5727713 C63.5151842,78.5727713 67.0924464,78.1263338 67.0924464,75.0012715 L67.0924464,45.5323807 C67.0924464,45.5323807 67.0924464,44.9386188 67.2087074,44.0944056 C67.3875706,41.2059552 68.7871744,38.411703 71.2823148,36.5362192 C75.8164947,33.1258834 82.2645099,34.0272407 85.6852669,38.5590274 L100.3744,58.0187902 L100.392286,58.0103079 C101.000421,58.8402352 101.979696,59.3759601 103.088648,59.3759601 C104.939881,59.3759601 106.442331,57.8759302 106.442331,56.0276791 C106.442331,55.9562491 106.43786,55.8803548 106.428916,55.8089248 L106.442331,55.8044604 L106.424445,55.7196373 C106.41103,55.5057937 106.370786,55.3004325 106.308184,55.0990892 L97.9776343,11.3303597 L97.9642196,11.2455366 C97.9686912,11.2544654 97.9776343,11.2683049 97.9865775,11.285716 C98.0134069,11.321431 98.0491796,11.3750035 98.0983669,11.4468799 C97.7316975,7.97806079 99.1447161,4.41057897 102.136202,2.16053413 C106.670382,-1.24980169 113.118397,-0.348444444 116.539154,4.1833423 L152.391673,51.0365082 C155.807958,55.5633842 154.900228,62.0010125 150.366048,65.4158127 C145.827397,68.8270414 139.379381,67.9247912 135.963096,63.3938974 Z" id="Fill-4" fill="url(#linearGradient-4)" mask="url(#mask-3)" transform="translate(103.622302, 49.601064) scale(-1, 1) translate(-103.622302, -49.601064) "></path>
                                    <circle id="Oval" fill="#FFFFFF" mask="url(#mask-3)" cx="144.281509" cy="89" r="5"></circle>
                                    <path d="M125.705341,43.3759538 C125.517535,42.9429094 125.414689,42.4652213 125.414689,41.9652114 L125.705341,43.3759538 Z" id="Fill-7" fill="#9E9E9E" mask="url(#mask-3)"></path>
                                    <path d="M120.478112,55.7196819 L120.36185,55.0991338 C120.424453,55.3004771 120.464697,55.5058384 120.478112,55.7196819" id="Fill-9" fill="#9E9E9E" mask="url(#mask-3)"></path>
                                    <path d="M112.017886,11.2457152 L112.031301,11.3305383 L112,11.2233933 C112,11.2233933 112.004472,11.2278577 112.013415,11.2412508 L112.017886,11.2457152 Z" id="Fill-11" fill="#9E9E9E" mask="url(#mask-3)"></path>
                                    <path d="M120.36194,55.0992678 C120.424542,55.3001646 120.464786,55.5055259 120.478201,55.7198158 L120.36194,55.0992678 Z" id="Fill-13" fill="#9E496C" mask="url(#mask-3)"></path>
                                    <path d="M125.705341,43.3759538 C125.517535,42.9429094 125.414689,42.4652213 125.414689,41.9652114 L125.705341,43.3759538 Z" id="Fill-15" fill="#9E496C" mask="url(#mask-3)"></path>
                                    <path d="M112,11.1609367 L112.040244,11.2859392 C112.031301,11.2680817 112.022358,11.2546886 112.017886,11.2457598 L112.013415,11.2412955 L112,11.1609367 Z" id="Fill-17" fill="#9E9E9E" mask="url(#mask-3)"></path>
                                </g>
                            </g>
                            <g id="Group-6" transform="translate(47.000000, 0.008649)"></g>
                        </g>
                    </g>
                </g>
            </g>
        </g>
    </g>
</svg>