<svg width="136" height="110" viewBox="0 0 136 110" fill="none" xmlns="http://www.w3.org/2000/svg">
<g clip-path="url(#clip0)">
<path d="M114.385 110.009C125.983 110.009 135.385 100.607 135.385 89.0086C135.385 77.4106 125.983 68.0086 114.385 68.0086C102.787 68.0086 93.3852 77.4106 93.3852 89.0086C93.3852 100.607 102.787 110.009 114.385 110.009Z" fill="url(#paint0_linear)"/>
<mask id="mask0" mask-type="alpha" maskUnits="userSpaceOnUse" x="-30" y="0" width="159" height="117">
<path d="M-29.3333 0.101929H128.402V116.562H-29.3333V0.101929Z" fill="white"/>
</mask>
<g mask="url(#mask0)">
<path fill-rule="evenodd" clip-rule="evenodd" d="M30.3911 44.021L2.55025 80.3516C-0.868267 84.8807 0.0385704 91.3188 4.57454 94.7318C9.11095 98.1444 15.5594 97.2399 18.9775 92.7103L46.8183 56.3797C50.2364 51.8506 49.3305 45.413 44.794 41.9999C40.2576 38.5869 33.8092 39.4919 30.3911 44.021Z" fill="#3B3D6C"/>
<path fill-rule="evenodd" clip-rule="evenodd" d="M41.6667 63.4025L60.3886 39.2413C61.0101 38.715 61.815 38.402 62.6914 38.402C64.6679 38.402 66.2687 40.0007 66.2687 41.9735C66.2687 42.474 66.1659 42.9512 65.9781 43.3847L57.5312 84.4346L57.3613 85.2516L57.3837 85.2382L57.5223 85.14C56.239 89.1758 57.5581 93.7518 61.1398 96.4434C65.674 99.8591 72.122 98.9523 75.5428 94.4259L98.1555 64.461C98.8084 63.8048 99.7072 63.4025 100.7 63.4025C102.676 63.4025 104.277 65.0012 104.277 66.974V88.8495C104.277 94.5197 108.883 99.1175 114.562 99.1175C120.241 99.1175 124.846 94.5197 124.846 88.8495C124.846 83.1797 120.241 78.5814 114.562 78.5814C114.41 78.5814 114.258 78.5859 114.106 78.5952L114.115 78.5814C114.115 78.5814 110.537 78.135 110.537 75.0099V45.541C110.537 45.541 110.537 44.9473 110.421 44.103C110.242 41.2146 108.843 38.4203 106.347 36.5449C101.813 33.1345 95.3653 34.0359 91.9445 38.5677L77.2554 58.0274L77.2375 58.0189C76.6293 58.8489 75.6501 59.3846 74.5411 59.3846C72.6899 59.3846 71.1874 57.8846 71.1874 56.0363C71.1874 55.9649 71.1919 55.889 71.2009 55.8176L71.1874 55.8131L71.2053 55.7283C71.2187 55.5144 71.259 55.3091 71.3216 55.1077L79.6521 11.339L79.6656 11.2542C79.6611 11.2631 79.6521 11.2769 79.6432 11.2944C79.6164 11.3301 79.5806 11.3836 79.5314 11.4555C79.8981 7.9867 78.4851 4.41921 75.4936 2.16917C70.9594 -1.24117 64.5114 -0.33981 61.0906 4.19198L25.2381 51.0451C21.8218 55.572 22.7296 62.0096 27.2637 65.4244C31.8024 68.8357 38.2504 67.9334 41.6667 63.4025Z" fill="url(#paint1_linear)"/>
<path d="M114.667 94.0086C117.428 94.0086 119.667 91.77 119.667 89.0086C119.667 86.2472 117.428 84.0086 114.667 84.0086C111.905 84.0086 109.667 86.2472 109.667 89.0086C109.667 91.77 111.905 94.0086 114.667 94.0086Z" fill="white"/>
<path fill-rule="evenodd" clip-rule="evenodd" d="M96.0905 43.3846C95.9027 42.9515 95.7999 42.4738 95.7999 41.9738L96.0905 43.3846Z" fill="#9E9E9E"/>
<path fill-rule="evenodd" clip-rule="evenodd" d="M90.8633 55.7283L90.747 55.1078C90.8096 55.3091 90.8499 55.5145 90.8633 55.7283Z" fill="#9E9E9E"/>
<path fill-rule="evenodd" clip-rule="evenodd" d="M82.4031 11.2543L82.4165 11.3391L82.3852 11.232C82.3852 11.232 82.3897 11.2365 82.3986 11.2499L82.4031 11.2543Z" fill="#9E9E9E"/>
<path fill-rule="evenodd" clip-rule="evenodd" d="M90.7471 55.1079C90.8097 55.3088 90.85 55.5142 90.8634 55.7285L90.7471 55.1079Z" fill="#9E496C"/>
<path fill-rule="evenodd" clip-rule="evenodd" d="M96.0905 43.3846C95.9027 42.9515 95.7999 42.4738 95.7999 41.9738L96.0905 43.3846Z" fill="#9E496C"/>
<path fill-rule="evenodd" clip-rule="evenodd" d="M82.3852 11.1696L82.4254 11.2946C82.4165 11.2767 82.4075 11.2633 82.4031 11.2544L82.3986 11.2499L82.3852 11.1696Z" fill="#9E9E9E"/>
</g>
</g>
<defs>
<linearGradient id="paint0_linear" x1="100.832" y1="94.2605" x2="123.199" y2="71.1335" gradientUnits="userSpaceOnUse">
<stop stop-color="#76C8B6" stop-opacity="0.5"/>
<stop offset="1" stop-color="#ACDEFF" stop-opacity="0.5"/>
</linearGradient>
<linearGradient id="paint1_linear" x1="54.73" y1="-22.4666" x2="122.205" y2="88.178" gradientUnits="userSpaceOnUse">
<stop stop-color="#8628EC"/>
<stop offset="1" stop-color="#64F8C5"/>
</linearGradient>
<clipPath id="clip0">
<rect width="136" height="110" fill="white"/>
</clipPath>
</defs>
</svg>
