<?xml version="1.0" encoding="UTF-8"?>
<svg width="492px" height="718px" viewBox="0 0 492 718" version="1.1" xmlns="http://www.w3.org/2000/svg" xmlns:xlink="http://www.w3.org/1999/xlink">
    <!-- Generator: sketchtool 52.2 (67145) - http://www.bohemiancoding.com/sketch -->
    <title>B3006310-7ACB-4E38-A888-C906ECB39841</title>
    <desc>Created with sketchtool.</desc>
    <defs>
        <linearGradient x1="50%" y1="0%" x2="50%" y2="100%" id="linearGradient-1">
            <stop stop-color="#AA9DF9" offset="0%"></stop>
            <stop stop-color="#97B5F6" stop-opacity="0.3" offset="100%"></stop>
        </linearGradient>
        <linearGradient x1="-8.50254879%" y1="-31.4007638%" x2="118.127102%" y2="145.174637%" id="linearGradient-2">
            <stop stop-color="#832BFA" offset="0%"></stop>
            <stop stop-color="#64F8E4" offset="100%"></stop>
        </linearGradient>
        <linearGradient x1="100%" y1="50%" x2="4.23922526%" y2="71.8569632%" id="linearGradient-3">
            <stop stop-color="#6EB7EB" offset="0%"></stop>
            <stop stop-color="#729BED" offset="100%"></stop>
        </linearGradient>
        <rect id="path-4" x="0" y="0" width="189" height="74" rx="5"></rect>
        <filter x="-67.2%" y="-168.9%" width="234.4%" height="443.2%" filterUnits="objectBoundingBox" id="filter-5">
            <feOffset dx="0" dy="2" in="SourceAlpha" result="shadowOffsetOuter1"></feOffset>
            <feGaussianBlur stdDeviation="42" in="shadowOffsetOuter1" result="shadowBlurOuter1"></feGaussianBlur>
            <feColorMatrix values="0 0 0 0 0.666666667   0 0 0 0 0.666666667   0 0 0 0 0.823529412  0 0 0 0.3 0" type="matrix" in="shadowBlurOuter1"></feColorMatrix>
        </filter>
        <linearGradient x1="100%" y1="100%" x2="24.1966127%" y2="0%" id="linearGradient-6">
            <stop stop-color="#B2A8F1" offset="0%"></stop>
            <stop stop-color="#7A6FDF" offset="100%"></stop>
        </linearGradient>
        <linearGradient x1="26.7892055%" y1="100%" x2="15.7278155%" y2="20.7558837%" id="linearGradient-7">
            <stop stop-color="#B2A8F1" offset="0%"></stop>
            <stop stop-color="#7A6FDF" offset="100%"></stop>
        </linearGradient>
        <linearGradient x1="50%" y1="90.4832974%" x2="7.32054314%" y2="11.7355808%" id="linearGradient-8">
            <stop stop-color="#81E79C" offset="0%"></stop>
            <stop stop-color="#7AC2F4" offset="100%"></stop>
        </linearGradient>
        <linearGradient x1="0%" y1="-117.236946%" x2="151.777623%" y2="100%" id="linearGradient-9">
            <stop stop-color="#8628EC" offset="0%"></stop>
            <stop stop-color="#64F8C5" offset="100%"></stop>
        </linearGradient>
    </defs>
    <g id="Page-2" stroke="none" stroke-width="1" fill="none" fill-rule="evenodd">
        <g id="Assets" transform="translate(-133.000000, -1209.000000)">
            <g id="Group-9" transform="translate(59.000000, 1149.000000)">
                <g id="Group-8">
                    <g id="Group-3-Copy" opacity="0.6">
                        <g id="Group-2">
                            <g id="Group-3" transform="translate(0.846725, 0.089525)">
                                <g id="Group-8-Copy-2">
                                    <g transform="translate(305.155566, 335.838720) scale(-1, 1) rotate(23.000000) translate(-305.155566, -335.838720) translate(90.155566, 62.338720)" id="Group-77">
                                        <g transform="translate(0.000000, 0.000000)">
                                            <polygon id="Fill-3" fill="#FFFFFF" points="130.818258 42.0723283 128.878349 40.9951983 153.392559 0.172133673 155.332468 1.24872428"></polygon>
                                            <g id="Group-76" transform="translate(0.915126, 48.966344)">
                                                <path d="M272.770906,60.7239366 C268.998461,57.7056715 259.800417,47.3627238 253.085357,45.1690918 C246.363792,42.9754598 223.734543,41.7843231 220.146385,42.792208 C220.146385,42.792208 228.699428,38.4911803 231.463719,38.4911803 C234.22259,38.4911803 248.667368,38.5828062 266.608162,48.9203641 C273.324306,52.5800106 279.394907,57.0642902 279.394907,57.0642902 C279.394907,57.0642902 281.05294,57.9751595 279.670794,59.6244257 C278.294069,61.273692 276.543351,63.7422017 272.770906,60.7239366 Z M264.646599,61.9096836 C264.646599,61.9096836 259.708274,56.39596 243.789207,53.5932853 C227.87556,50.7852208 216.591289,51.0870473 215.079059,46.7806298 C215.079059,46.7806298 225.45274,44.3767972 243.995174,46.7806298 C257.491962,48.8826358 257.393857,50.3863786 261.220504,55.0970281 C265.047151,59.8022878 266.158829,60.2065197 266.158829,60.2065197 L264.646599,61.9096836 Z M222.920974,36.9486312 C222.157271,37.2989656 220.566449,38.0740129 219.404904,38.9471539 C219.191891,39.1072297 218.887819,38.990272 218.839579,38.7294076 C218.611932,37.5026984 218.094305,34.6612174 217.909477,33.2512565 C217.879124,33.015185 218.164225,32.8745123 218.334961,33.0415948 C219.220618,33.9082681 221.157248,35.6906614 222.928563,36.5551788 C223.094962,36.6360252 223.089,36.8715577 222.920974,36.9486312 Z M278.006799,72.0100922 C276.093476,71.007597 275.893471,71.7082657 276.093476,75.1145934 C276.294023,78.5155314 272.971453,80.4181164 272.971453,80.4181164 C270.152959,79.620432 267.735559,77.0171784 267.735559,77.0171784 C270.754599,69.105012 274.884776,67.5042536 277.405701,67.5042536 C279.920123,67.5042536 281.936429,63.197836 283.443239,59.6944926 C284.955469,56.1857594 295.530239,46.1769768 298.549821,40.668643 C301.568319,35.1603091 307.915891,31.0533127 307.915891,31.0533127 C307.915891,31.0533127 307.611819,30.0508175 306.706649,29.5549597 C305.818282,29.0591018 298.083144,37.1167917 297.850618,37.3593309 C298.056043,37.0790634 305.276264,27.1403476 303.785714,26.5474741 C300.663149,25.0491211 301.939601,23.2074404 301.939601,23.2074404 C301.939601,23.2074404 301.337419,23.4629149 300.930906,28.7718277 C300.529813,34.0753506 283.421559,53.7927064 283.421559,53.7927064 C282.494708,52.7902112 281.567857,54.0406353 281.567857,54.0406353 C276.689696,50.3594298 267.074298,44.694793 250.15304,37.7743423 C233.23666,30.8538916 225.735132,35.0848525 225.735132,35.0848525 C217.138185,31.9264537 216.949021,24.7688536 217.322471,17.5250173 C217.697006,10.2811811 215.734901,3.87275751 215.550615,3.22059666 C215.360366,2.56843581 214.244351,1.64139724 214.244351,3.59249004 C216.206456,8.04982082 216.016208,19.567736 215.831922,26.0731753 C215.642758,32.5732248 217.046042,38.5181291 217.420034,40.6578634 C217.794027,42.792208 211.718006,43.9078882 205.647405,43.5359948 C192.287205,43.1641014 181.734115,36.1951429 179.305333,33.0367441 C176.877093,29.8783452 172.113297,4.16919426 171.516535,2.13725508 C170.920316,0.105315893 170.242793,0.277788185 168.963631,0.444870717 C167.689889,0.611953249 167.624847,1.78692074 167.624847,1.78692074 L171.126282,17.0561083 C168.464974,17.0561083 165.90123,14.1779769 165.744586,14.0001149 C167.066568,16.4039474 170.578844,17.9292493 170.578844,17.9292493 C171.126282,18.6945951 173.549103,20.3384716 173.549103,20.3384716 L175.749695,30.8377223 C175.749695,30.8377223 167.495304,29.7436012 163.646435,27.4475639 C159.798108,25.1515265 139.775965,8.19534432 139.775965,8.19534432 C142.746223,15.5200269 156.605622,27.4475639 156.605622,27.4475639 L124.073705,22.6237295 L123.62383,24.2244879 L126.220096,24.8497 L175.614191,35.8825369 L176.687386,36.3298869 C176.687386,36.3298869 180.443571,40.5069502 187.603628,43.0024086 C189.159219,43.5413846 190.671449,43.9725653 192.124057,44.3175099 C192.882882,44.4899822 193.625447,44.6462852 194.351751,44.7810292 C198.612554,45.5787135 202.211011,45.6972882 204.60673,45.9398274 C208.184591,46.2955515 210.330982,48.3382702 214.092044,50.6504768 C217.848229,52.9680732 224.201221,53.0543094 224.201221,53.0543094 C224.201221,53.0543094 242.288359,54.9245558 251.832753,58.1907498 C261.372811,61.4569438 264.862864,66.3562349 264.862864,66.3562349 L267.843963,62.4702185 C270.429931,65.6609559 274.467422,65.9681722 274.467422,65.9681722 C274.467422,65.9681722 272.397456,66.2807782 269.50308,69.5739211 C266.602742,72.8616741 266.098665,75.5296049 265.399462,76.9201627 C264.700259,78.3107206 250.082577,102.532298 248.548667,104.995418 C247.019634,107.458538 248.168712,108.267002 248.168712,108.267002 C248.168712,108.267002 251.827333,109.145532 251.827333,113.67293 C251.827333,118.194938 243.176727,130.877041 243.176727,130.877041 L245.285177,132.639492 C245.285177,132.639492 250.499389,123.487681 253.046873,120.178369 C255.599778,116.869057 254.71141,110.800188 255.047462,110.029453 C266.467238,95.5795088 271.860316,86.848099 271.860316,86.848099 C271.860316,86.848099 278.348271,78.3322796 278.044741,75.7613645 C277.741211,73.1958392 278.538519,74.0905392 278.538519,74.0905392 L376.448097,131.723233 L377.483351,129.664345 C377.483351,129.664345 279.920123,73.0071976 278.006799,72.0100922 Z" id="Fill-4" fill="#FFFFFF"></path>
                                                <path d="M120.60311,192.667503 L135.100464,198.341842 C135.100464,198.341842 138.030613,200.028836 140.498421,205.243428 C142.966228,210.457481 147.438418,215.672073 149.135476,217.971883 C150.831451,220.272772 161.165023,235.7624 161.165023,235.7624 C161.165023,235.7624 163.941238,240.823384 166.100096,242.050093 C168.259495,243.276802 176.98219,250.649993 176.98219,250.649993 L177.513368,246.803861 C177.513368,246.803861 169.493128,242.663448 166.408504,238.982781 C163.32388,235.302115 152.374034,218.892454 152.374034,218.892454 C152.374034,218.892454 150.594047,215.744296 148.612971,213.478441 C146.631354,211.213125 140.390559,200.771006 140.390559,200.771006 C140.390559,200.771006 139.993802,197.913895 135.040842,195.943938 C130.087882,193.973981 119.388448,190.722878 116.515211,187.669041 C113.642516,184.615203 120.60311,192.667503 120.60311,192.667503" id="Fill-6" fill="#FFFFFF"></path>
                                                <path d="M199.476747,189.944705 L195.958509,195.53119 C195.958509,195.53119 181.490966,213.337337 180.423733,224.540491 C179.355958,235.743105 179.000394,259.091541 179.000394,259.091541 C179.000394,259.091541 179.712063,266.99185 172.715154,275.954481 L165.718786,284.916572 C165.718786,284.916572 176.154258,270.058623 176.509821,262.393308 C176.865927,254.727992 177.93316,225.129591 177.93316,225.129591 C177.93316,225.129591 177.93316,220.884617 180.423733,215.931967 C182.913763,210.978779 188.369174,201.309551 191.452172,197.771713 C194.535712,194.233875 198.330379,187.630342 198.330379,187.630342 L199.476747,189.944705 Z" id="Fill-8" fill="#FFFFFF"></path>
                                                <path d="M208.074399,196.945894 C208.074399,196.945894 198.871476,212.107286 200.010798,230.067581 C200.824367,239.45169 204.404395,243.82009 204.404395,245.438096 C204.404395,247.056101 209.611019,263.236697 209.123203,267.76679 L207.170313,268.899178 C207.170313,268.899178 206.682496,262.912773 204.567,254.499359 C202.451504,246.085406 197.407486,232.979668 197.733238,229.096346 C198.058449,225.213025 197.358704,213.877283 206.145357,195.755296 C208.424,195.755296 208.074399,196.945894 208.074399,196.945894" id="Fill-10" fill="#FFFFFF"></path>
                                                <path d="M184.677381,304.628161 L208.518582,270.560032 L257.760912,300.346536 L258.625972,298.91286 L209.122932,267.76652 L207.170584,268.899448 L183.964628,302.209776 L0.197240327,196.367842 L104.786647,261.199099 L153.259312,290.538253 L232.862234,337.563901 L236.068812,338.930744 C236.068812,338.930744 240.118228,340.757333 241.087898,341.507588 C242.05811,342.257303 244.428355,344.507527 246.691279,345.365038 C248.954204,346.222549 256.712649,352.544197 256.712649,352.544197 C256.712649,352.544197 259.083436,354.365936 263.178381,357.151902 C267.272785,359.937869 282.35877,369.259996 282.35877,369.259996 L275.091935,385.580726 C275.091935,385.580726 274.104921,387.016019 275.16836,387.695667 C276.231799,388.375855 278.813972,389.735152 278.813972,389.735152 C278.813972,389.735152 279.801529,390.037518 278.585783,391.69918 C277.370579,393.360843 272.357455,401.669696 272.357455,401.669696 L271.709201,402.931438 C271.709201,402.931438 271.456079,403.63049 270.547657,402.992881 C269.638693,402.354734 261.82713,398.76731 259.681823,397.022645 C257.537058,395.276902 249.249062,391.593002 248.469098,390.913892 C247.688592,390.235322 230.235615,379.473051 228.967835,378.988511 C230.138594,377.4368 224.328703,376.935013 227.563466,380.489559 C229.056726,382.230451 236.016778,385.076783 237.122495,386.305648 C238.228211,387.534513 252.204144,394.396755 255.931601,397.231229 C259.659601,400.065703 265.360545,402.682431 265.360545,402.682431 C265.360545,402.682431 266.129669,403.501675 265.510684,404.855582 C264.892242,406.210029 247.732496,435.273766 247.732496,435.273766 C247.732496,435.273766 246.694532,436.554372 248.467472,437.777848 C250.240413,439.001323 253.171104,440.656518 253.171104,440.656518 C253.171104,440.656518 254.365169,442.095584 256.137568,440.224259 C257.911051,438.353474 275.972172,410.266361 275.972172,410.266361 C275.972172,410.266361 276.698476,409.234762 277.735357,409.853506 C278.772779,410.472789 316.478799,433.949502 316.478799,433.949502 C316.478799,433.949502 319.689171,435.54541 320.418727,437.141856 C321.148825,438.737764 326.547866,456.876459 326.547866,456.876459 L322.462135,436.706903 C322.462135,436.706903 322.462135,435.690933 319.543368,433.514548 C316.625144,431.337625 278.101219,407.395776 278.101219,407.395776 C278.101219,407.395776 275.64913,406.353935 273.600844,409.9198 C271.552016,413.484587 256.612918,436.31884 256.612918,436.31884 C256.612918,436.31884 255.332671,439.290214 253.454579,438.525946 C251.576487,437.762218 249.612756,436.99795 250.295699,435.555111 C250.979183,434.111734 267.795832,407.287981 267.795832,407.287981 C267.795832,407.287981 268.735149,405.590206 270.186131,406.608871 C271.637113,407.627535 277.267053,406.433165 276.186812,405.627396 C275.106028,404.821627 274.565636,405.090576 276.996586,400.524911 C279.426995,395.959246 281.047628,393.273529 281.047628,393.273529 C281.047628,393.273529 282.061744,391.93633 283.630886,393.106446 C285.199486,394.276563 286.152353,394.722296 286.152353,394.722296 C286.152353,394.722296 287.889521,395.836898 289.290095,393.663208 C290.691212,391.490597 298.288135,379.647679 298.288135,379.647679 C298.288135,379.647679 299.370003,379.45257 300.451871,380.137608 C301.533738,380.821568 302.752195,378.77885 302.552732,378.281914 C302.353269,377.785517 283.498634,367.145594 280.241648,364.746612 C276.985204,362.348169 262.873225,354.312038 259.013515,351.193524 C255.153806,348.07447 249.846366,344.476806 249.846366,344.476806 C249.846366,344.476806 246.387749,341.170189 243.459769,339.331203 C240.530704,337.492217 231.282794,333.50649 224.500523,328.755417 C217.718253,324.003806 188.782625,306.557156 184.677381,304.628161" id="Fill-12" fill="#FFFFFF"></path>
                                                <path d="M206.918925,193.313304 L200.442352,188.743327 C200.177306,188.556842 200.099255,188.201657 200.260776,187.921928 L201.386548,185.974069 C201.488989,185.795668 201.716095,185.732608 201.897129,185.831241 L208.90271,189.661203 C209.153123,189.798103 209.25177,190.105859 209.127106,190.361872 L207.79591,193.089629 C207.636014,193.417327 207.218119,193.524044 206.918925,193.313304 M197.971835,186.987344 L195.780456,184.951632 C195.634111,184.815271 195.749019,184.571654 195.94794,184.597525 L199.258043,185.02116 C199.446123,185.045414 199.550733,185.249147 199.4613,185.414612 L198.670496,186.873081 C198.531197,187.129634 198.186474,187.186226 197.971835,186.987344 M313.346315,261.336376 C311.238407,259.315216 312.457947,257.946218 308.804746,255.768755 C305.151003,253.585902 299.612122,250.104118 299.612122,250.104118 L293.340433,244.606564 C293.340433,244.606564 262.733222,226.637107 255.73035,220.950372 C248.721516,215.269566 233.967788,208.301146 225.491169,203.53606 C217.008047,198.766662 210.368327,194.551332 210.368327,194.551332 L213.024757,187.663759 L205.240837,183.087314 L235.702245,129.346026 L231.903241,126.829009 L200.660786,183.297515 L192.466016,179.80549 L225.810418,123.530476 L223.924195,122.026733 L189.403615,178.511948 C189.403615,178.511948 175.164804,173.030563 155.700398,173.488153 C149.41299,171.811938 128.26345,156.876916 128.26345,156.876916 L127.412482,158.774111 L144.084953,170.017148 C144.084953,170.017148 150.551227,175.158979 159.798053,175.671545 C169.045421,176.183033 182.280957,178.355645 189.988994,182.058409 C193.067114,184.612616 194.867156,188.444735 202.189276,193.171554 C209.511939,197.898372 220.845534,205.632677 232.797029,211.361991 C244.749067,217.091843 280.397044,243.415427 291.920346,248.934001 C303.449609,254.448264 309.21126,258.059402 309.21126,258.059402 C309.21126,258.059402 309.048654,261.416683 310.42538,262.462836 C311.807526,263.513839 328.445308,272.486171 332.499602,275.391251 C333.231327,275.795483 333.963051,273.213788 333.963051,273.213788 C333.963051,273.213788 315.460727,263.351607 313.346315,261.336376" id="Fill-14" fill="#FFFFFF"></path>
                                                <path d="M271.011462,291.855402 L294.750763,305.906504 L318.772456,300.56687 L344.490123,344.968783 C344.490123,344.968783 346.582313,346.046196 348.845779,347.096121 C351.108704,348.146585 364.200606,354.318398 371.292368,360.46973 L373.404612,357.468712 C373.404612,357.468712 366.951889,346.646076 351.108704,343.195552 C348.393194,340.944789 347.336259,343.045717 343.866261,335.693547 C340.396262,328.341376 322.440292,299.233443 322.440292,299.233443 L337.982114,274.176453 L427.295288,327.138382 L428.86714,325.054701 L375.418751,294.246838 L376.946699,291.915228 L419.616519,317.257337 L421.619276,313.959882 L378.960296,289.441868 L397.490263,257.257999 L395.71136,255.292354 L377.133154,288.702932 L342.317715,267.468359 L367.992021,224.344896 L396.06042,239.822128 L396.992149,238.76358 L368.657077,222.8902 L375.441516,212.968732 L371.849563,210.984761 L318.771914,297.496324 L295.226113,302.786911 L271.946985,289.03009 L271.011462,291.855402 Z" id="Fill-16" fill="#FFFFFF"></path>
                                                <path d="M130.483826,145.465017 C130.483826,145.465017 123.570929,141.131112 122.669012,137.843359 C121.767636,134.556145 118.161048,124.244996 115.155017,118.715643 C112.149528,113.186289 112.149528,111.24382 110.496373,108.703087 C108.843218,106.162894 91.8617962,85.0921694 91.8617962,85.0921694 L84.7982184,90.3223916 L85.3993163,91.9662681 L91.2606983,87.6329018 C91.2606983,87.6329018 104.334713,101.679692 108.091981,108.703087 C111.84925,115.727021 118.611465,129.624515 120.114481,138.590918 C121.316677,143.671844 129.28163,147.407486 129.28163,147.407486 L130.483826,145.465017 Z" id="Fill-18" fill="#FFFFFF"></path>
                                                <path d="M211.822995,384.483964 C213.342813,382.260688 216.729883,377.234199 217.567843,375.418928 C217.688171,375.157524 218.004167,375.056197 218.258916,375.192558 L222.73219,377.592079 C223.007535,377.739219 223.03843,378.119197 222.788017,378.306222 C221.324027,379.398187 217.01119,382.513468 212.259861,384.97012 C211.948201,385.130735 211.626242,384.772316 211.822995,384.483964 Z M246.68884,345.362397 C246.68884,345.362397 236.840374,359.440448 234.049524,364.204995 C231.903133,367.861947 227.956158,372.921313 226.236336,375.077217 C225.755024,375.680331 224.90785,375.847953 224.229785,375.47552 L219.919117,373.113189 C219.327775,372.789264 219.082241,372.072426 219.35596,371.459072 C224.658521,359.587588 236.070709,338.932415 236.070709,338.932415 L232.861963,337.563416 C232.861963,337.563416 225.940936,349.098039 220.265466,361.516044 C214.590538,373.92812 208.357332,384.351915 208.357332,384.351915 C208.357332,384.351915 196.238353,403.124446 185.744886,420.135064 C175.250876,437.139215 155.797311,494.755201 155.797311,494.755201 C156.160463,500.203709 163.889638,496.231995 163.889638,496.231995 C174.084996,448.753068 202.24337,405.091708 207.03535,397.680789 C211.826789,390.26987 225.529002,383.920734 228.970816,378.989643 C232.40721,374.057475 249.881868,347.135628 249.881868,347.135628 L246.68884,345.362397 Z" id="Fill-20" fill="#FFFFFF"></path>
                                                <path d="M341.970336,181.556892 C339.835327,183.006737 337.932844,184.763799 336.263429,186.720281 C329.834555,194.255165 322.875586,205.050852 322.658237,205.390407 C322.826805,204.948447 330.387955,185.620771 332.96254,183.373241 C335.721411,180.958629 355.770113,159.528947 361.765373,154.834467 C362.643442,154.144577 363.911222,154.128408 364.741052,154.872195 C365.532398,155.583643 365.624541,156.693933 363.445087,159.599014 C361.35886,162.385519 351.135859,175.320941 341.970336,181.556892 M327.57976,185.162641 C322.333568,199.51557 291.9204,248.934271 291.9204,248.934271 L273.980148,278.03358 C273.980148,278.03358 256.52175,306.023138 252.602419,308.857613 C248.684171,311.692626 234.320696,334.599102 234.320696,334.599102 L237.333773,336.032778 C244.287864,322.575088 256.424187,311.892047 256.424187,311.892047 C253.068554,316.829066 251.859854,330.265736 250.862541,334.83679 C249.870648,339.401377 246.689003,345.362451 246.689003,345.362451 L249.882031,347.135682 C249.882031,347.135682 254.683768,336.949576 254.933638,327.93736 C255.182966,318.925683 258.776545,311.854319 258.776545,311.854319 C258.776545,311.854319 323.108112,215.62017 329.959761,203.574058 C336.810325,191.522557 353.298511,178.899741 360.648274,171.332519 C367.938415,163.824585 383.234704,133.965319 383.47265,133.49641 C370.611106,139.7647 332.832456,170.809713 327.57976,185.162641" id="Fill-22" fill="#FFFFFF"></path>
                                                <path d="M322.658291,205.390569 C322.826859,204.948608 330.388009,185.620932 332.962594,183.373403 C335.721466,180.958791 355.770167,159.529108 361.764885,154.834628 C362.643496,154.144739 363.911276,154.12857 364.741106,154.872357 C365.532452,155.583805 365.624595,156.694095 363.445141,159.599175 C361.358372,162.385681 351.135914,175.321103 341.97039,181.557054 C339.83484,183.006899 337.932899,184.763961 336.263483,186.720443 C329.834609,194.255326 322.875098,205.051014 322.658291,205.390569 L322.652871,205.395958" id="Stroke-24" stroke="#FFFFFF"></path>
                                                <path d="M24.8996536,201.888249 C24.8996536,201.888249 34.4494676,160.553109 72.3663324,166.139055 C110.283197,171.725001 130.505886,206.915817 126.573546,228.700684 C122.641748,250.485012 115.338598,263.052853 115.338598,263.052853 L117.585805,264.449878 C117.585805,264.449878 129.663048,245.457445 129.663048,228.420955 C129.663048,211.384466 125.449943,192.392572 104.666265,177.310409 C83.8820455,162.228785 38.3812657,147.147161 24.8996536,201.888249" id="Fill-26" fill="#FFFFFF"></path>
                                                <path d="M43.8361343,128.354634 C43.8361343,128.354634 64.226849,163.001622 69.5722299,165.757406 L72.3663324,166.139001 C72.3663324,166.139001 54.526354,144.299697 43.8361343,128.354634" id="Fill-28" fill="#FFFFFF"></path>
                                                <path d="M113.225813,266.139298 L105.409372,281.684441 C105.409372,281.684441 103.36217,284.645036 103.548624,292.2322 C103.734536,299.819364 103.36217,334.610259 96.8487406,343.122844 L99.640675,344.418004 C99.640675,344.418004 104.215848,337.540132 105.230506,322.574927 C106.245164,307.609722 105.48417,292.729136 105.48417,292.729136 C105.48417,292.729136 104.469513,285.498774 109.119485,278.857513 C113.769457,272.215174 115.967881,267.84354 115.967881,267.84354 L113.225813,266.139298 Z" id="Fill-30" fill="#FFFFFF"></path>
                                                <path d="M364.994933,312.437006 C364.994933,398.323356 294.977056,467.947725 208.606498,467.947725 C122.234855,467.947725 52.2169782,398.323356 52.2169782,312.437006 C52.2169782,226.550116 122.234855,156.925747 208.606498,156.925747 C294.977056,156.925747 364.994933,226.550116 364.994933,312.437006 Z" id="Stroke-32" stroke="#FFFFFF" stroke-dasharray="2.001,4.002"></path>
                                                <polygon id="Fill-34" fill="#FFFFFF" points="212.153842 187.050889 243.363777 134.076025 244.392527 134.530921 213.024865 187.663705"></polygon>
                                                <path d="M248.887211,132.889577 C248.887211,135.47235 246.781471,137.565732 244.184121,137.565732 C241.587313,137.565732 239.481574,135.47235 239.481574,132.889577 C239.481574,130.306805 241.587313,128.213422 244.184121,128.213422 C246.781471,128.213422 248.887211,130.306805 248.887211,132.889577" id="Fill-36" fill="#FFFFFF"></path>
                                                <path d="M254.906537,132.889577 C254.906537,138.810767 250.079325,143.611425 244.124174,143.611425 C238.169565,143.611425 233.341811,138.810767 233.341811,132.889577 C233.341811,126.967849 238.169565,122.167729 244.124174,122.167729 C250.079325,122.167729 254.906537,126.967849 254.906537,132.889577" id="Fill-38" fill="#FFFFFF"></path>
                                                <path d="M300.451925,380.137446 L359.11832,413.482269 L360.768765,411.204018 L358.557332,409.789745 C358.557332,409.789745 377.300854,379.90407 378.980567,371.220629 C377.13337,366.712095 374.950122,371.38825 374.950122,371.38825 C374.950122,371.38825 371.423211,386.249972 355.637481,407.457596 L299.212872,376.398031 L300.451925,380.137446 Z" id="Fill-40" fill="#FFFFFF"></path>
                                                <path d="M45.7030066,316.19038 C45.7030066,316.19038 61.8947085,323.193294 66.5024029,327.775128 C71.1100974,332.356962 119.862443,358.813673 119.862443,358.813673 L121.200685,356.744005 C121.200685,356.744005 81.6631867,336.34754 68.8802356,327.183333 C56.0978266,318.020203 42.7202819,314.177305 42.7202819,314.177305 L45.7030066,316.19038 Z" id="Fill-42" fill="#FFFFFF"></path>
                                                <path d="M50.9270839,280.912682 C50.9270839,280.912682 87.6677698,293.504237 96.9422387,295.45533 C106.216708,297.406423 116.382796,297.583746 126.906074,302.372008 C137.42881,307.160809 149.734786,310.885132 149.734786,310.885132 L148.308195,312.303717 C148.308195,312.303717 126.192237,304.145777 123.873484,302.904516 C121.555273,301.662715 104.254603,299.712162 91.5914376,295.633192 C78.9288146,291.553683 49.1433029,282.153943 49.1433029,282.153943 L50.9270839,280.912682 Z" id="Fill-44" fill="#FFFFFF"></path>
                                                <path d="M214.300721,469.116872 L115.649121,403.320848 L71.0833217,373.865276 C71.0833217,373.865276 48.9343008,356.351254 28.6525316,357.678212 L28.6525316,361.393373 C28.6525316,361.393373 39.3270328,358.209104 56.9399057,371.211897 L19.1319865,428.681282 L21.201411,430.22437 L60.6516445,372.185827 L146.075839,425.914719 L125.001098,458.716253 L84.6830938,432.064973 L78.9561323,430.470682 L123.397267,460.766518 L101.543646,491.565218 L100.791325,492.672814 L125.001098,462.133361 L148.137676,478.762385 L152.032075,478.989832 L126.375113,460.538531 L147.679128,428.192431 L213.167362,470.830815 L214.300721,469.116872 Z" id="Fill-46" fill="#FFFFFF"></path>
                                                <path d="M169.559905,89.7315123 L38.630052,304.869137 L37.6923609,306.411147 C32.7057959,313.853865 37.1340825,318.338145 37.1340825,318.338145 C37.1340825,318.338145 36.2018116,323.690176 32.738317,320.989906 C29.2748224,312.905268 33.9903784,304.185177 33.9903784,304.185177 L165.857922,87.5055418 L169.559905,89.7315123 Z" id="Fill-48" fill="#FFFFFF"></path>
                                                <path d="M38.630323,304.869245 C38.3972553,305.306354 38.088305,305.817842 37.6926319,306.410716 L38.630323,304.869245 Z" id="Fill-50" fill="#FFFFFF"></path>
                                                <path d="M280.269182,407.934698 C280.269182,410.102459 278.501662,411.860059 276.321666,411.860059 C274.140585,411.860059 272.373607,410.102459 272.373607,407.934698 C272.373607,405.766398 274.140585,404.008797 276.321666,404.008797 C278.501662,404.008797 280.269182,405.766398 280.269182,407.934698 Z" id="Stroke-52" stroke="#FFFFFF"></path>
                                                <path d="M287.671142,407.934698 C287.671142,414.167415 282.589724,419.219775 276.321828,419.219775 C270.053391,419.219775 264.971973,414.167415 264.971973,407.934698 C264.971973,401.70198 270.053391,396.649081 276.321828,396.649081 C282.589724,396.649081 287.671142,401.70198 287.671142,407.934698 Z" id="Stroke-54" stroke="#FFFFFF"></path>
                                                <path d="M381.491574,360.469569 C381.491574,363.270087 379.208594,365.540254 376.392269,365.540254 C373.575944,365.540254 371.292422,363.270087 371.292422,360.469569 C371.292422,357.66905 373.575944,355.398883 376.392269,355.398883 C379.208594,355.398883 381.491574,357.66905 381.491574,360.469569" id="Fill-56" fill="#FFFFFF"></path>
                                                <path d="M387.51464,360.469569 C387.51464,366.578322 382.534579,371.529893 376.39189,371.529893 C370.249201,371.529893 365.26914,366.578322 365.26914,360.469569 C365.26914,354.361355 370.249201,349.409244 376.39189,349.409244 C382.534579,349.409244 387.51464,354.361355 387.51464,360.469569" id="Fill-58" fill="#FFFFFF"></path>
                                                <path d="M329.799811,207.371682 C329.799811,211.048576 326.802452,214.029113 323.104806,214.029113 C319.407159,214.029113 316.4098,211.048576 316.4098,207.371682 C316.4098,203.694789 319.407159,200.713713 323.104806,200.713713 C326.802452,200.713713 329.799811,203.694789 329.799811,207.371682" id="Fill-60" fill="#FFFFFF"></path>
                                                <path d="M97.0933533,391.377519 C97.0933533,391.377519 121.961678,354.813394 131.236689,340.624314 C140.5117,326.435234 162.153392,289.54395 162.153392,289.54395 L165.718786,284.916842 C165.718786,284.916842 170.776898,274.242424 182.506708,275.614656 C194.235976,276.986889 234.116572,303.744887 234.116572,303.744887 C234.116572,303.744887 247.848596,311.651125 254.625446,303.025893 C261.402297,294.400662 318.325562,211.112714 318.325562,211.112714 L323.105077,214.029113 L257.142578,305.183953 C257.142578,305.183953 249.615033,315.415871 237.046721,309.441862 C224.478409,303.467314 197.362877,285.300592 197.362877,285.300592 L188.493838,280.533351 C188.493838,280.533351 175.55045,275.646995 169.678227,284.823599 C163.806005,293.999664 125.330862,356.177542 125.330862,356.177542 L100.243562,393.163147 L97.0933533,391.377519 Z" id="Fill-66" fill="#FFFFFF"></path>
                                                <polygon id="Fill-68" fill="#FFFFFF" points="168.857775 84.3917702 192.542875 43.5983004 194.417173 44.6746353 170.732073 85.4681051"></polygon>
                                                <path d="M278.409194,383.793428 L277.77449,384.920965 C277.77449,384.920965 276.985854,385.914837 277.985335,386.385363 C278.984817,386.855889 285.243498,391.301901 285.243498,391.301901 C285.243498,391.301901 286.242437,392.608918 287.400187,390.673994 C288.557395,388.739071 295.499561,377.75582 295.499561,377.75582 C295.499561,377.75582 295.868133,377.023351 294.658349,376.343703 C293.448565,375.663515 285.822373,371.00838 285.822373,371.00838 C285.822373,371.00838 284.769774,370.590674 284.191441,372.055071 C283.613108,373.519469 278.409194,383.793428 278.409194,383.793428 Z" id="Stroke-70" stroke="#FFFFFF"></path>
                                                <path d="M52.7931975,141.024233 C52.7931975,141.024233 95.7421568,120.929055 82.3212506,87.882825 L83.4009504,87.2753991 C83.4009504,87.2753991 101.088622,116.716958 53.926557,142.84166 C53.1216603,143.175286 52.7931975,141.024233 52.7931975,141.024233" id="Fill-72" fill="#FFFFFF"></path>
                                                <path d="M212.177637,189.237299 C212.177637,189.237299 226.970932,197.544535 238.805894,205.332198 C250.640856,213.120399 337.832571,268.525506 337.832571,268.525506 L336.962632,269.736585 L211.829119,190.621928 C211.829119,190.621928 209.392749,189.583321 212.177637,189.237299" id="Fill-74" fill="#FFFFFF"></path>
                                            </g>
                                        </g>
                                    </g>
                                </g>
                            </g>
                        </g>
                    </g>
                    <ellipse id="Oval" fill-opacity="0.2" fill="url(#linearGradient-1)" cx="210.552215" cy="425.538803" rx="65.5522155" ry="65.538803"></ellipse>
                    <g id="Group-5" transform="translate(176.000000, 389.000000)">
                        <ellipse id="Oval" fill-opacity="0.5" fill="url(#linearGradient-1)" cx="34.4720114" cy="34.4628628" rx="34.4720114" ry="34.4628628"></ellipse>
                        <circle id="Oval-Copy-4" fill="#FFFFFF" cx="35" cy="35" r="21"></circle>
                    </g>
                    <g id="noun_Tennis_1671480" transform="translate(203.000000, 409.000000)" fill="#8462F7">
                        <g id="Group">
                            <circle id="Oval" cx="17.71875" cy="3.84375" r="1"></circle>
                            <path d="M19.03125,10.25 C18.875,9.75 18.375,9.4375 17.84375,9.59375 C16.125,10.0625 11.4375,11.34375 10.09375,11.46875 L7.8125,11.65625 C6.5625,11.75 5.15625,10.65625 4.8125,10.28125 C4.59375,9.96875 3.65625,8.0625 2.84375,6.34375 L4.40625,5.09375 C4.8125,5.4375 5.375,5.65625 5.96875,5.65625 C5.96875,5.65625 5.96875,5.65625 5.96875,5.65625 C6.6875,5.65625 7.4375,5.375 8.0625,4.875 C8.6875,4.375 9.125,3.71875 9.28125,3 C9.4375,2.25 9.3125,1.53125 8.875,1 C8,-0.09375 6.21875,-0.125 4.90625,0.9375 C4.28125,1.4375 3.84375,2.09375 3.6875,2.8125 C3.5625,3.40625 3.625,4 3.875,4.46875 L2.375,5.65625 C2,5.375 1.46875,5.375 1.09375,5.75 C0.8125,6.03125 0.78125,6.4375 0.9375,6.78125 L0.375,7.21875 C0.21875,7.34375 0.1875,7.59375 0.3125,7.78125 C0.40625,7.875 0.5,7.9375 0.625,7.9375 C0.71875,7.9375 0.8125,7.90625 0.875,7.84375 L1.28125,7.53125 C2.09375,9.25 3,11.09375 3.34375,11.46875 C3.78125,11.96875 5.1875,13.15625 6.875,13.46875 C7.09375,14.4375 7.625,16.9375 7.59375,18.84375 C7.3125,20.03125 6.875,21.53125 6.625,22 C6.125,22.25 4.40625,22.78125 2.96875,23.15625 C2.40625,23.3125 2,23.84375 2.09375,24.40625 C2.1875,25.0625 2.84375,25.46875 3.46875,25.3125 C6.03125,24.625 7.59375,24.0625 8.0625,23.6875 C8.25,23.53125 8.78125,23.09375 9.5,20.21875 C9.75,21.46875 10.0625,23.09375 10.0625,23.65625 C10.03125,24.1875 9.0625,26.4375 8.1875,28.1875 C7.9375,28.6875 8.03125,29.28125 8.46875,29.625 C8.6875,29.78125 8.90625,29.84375 9.15625,29.84375 C9.5625,29.84375 9.9375,29.625 10.15625,29.25 C10.96875,27.625 12.34375,24.75 12.3125,23.59375 C12.28125,22.6875 11.8125,20.40625 11.625,19.40625 C11.625,19.40625 11.625,19.40625 11.625,19.40625 C12.125,16.28125 11.65625,14.0625 11.375,13.1875 C13.75,12.71875 17.75,11.59375 18.28125,11.4375 C18.90625,11.28125 19.1875,10.75 19.03125,10.25 Z M4.5,2.96875 C4.625,2.4375 4.96875,1.90625 5.4375,1.53125 C5.96875,1.15625 6.53125,0.9375 7.0625,0.9375 C7.5625,0.9375 8.03125,1.125 8.3125,1.5 C8.59375,1.84375 8.6875,2.3125 8.5625,2.84375 C8.4375,3.375 8.09375,3.90625 7.625,4.28125 C7.125,4.65625 6.5625,4.875 6,4.875 C5.46875,4.875 5.03125,4.6875 4.75,4.34375 C4.46875,4 4.40625,3.5 4.5,2.96875 Z" id="Shape" fill-rule="nonzero"></path>
                            <circle id="Oval" transform="translate(8.750215, 8.624286) rotate(-4.492356) translate(-8.750215, -8.624286) " cx="8.75021492" cy="8.62428632" r="2.24993727"></circle>
                        </g>
                    </g>
                    <g id="Group-4" transform="translate(405.842357, 554.319550) rotate(32.000000) translate(-405.842357, -554.319550) translate(389.842357, 536.819550)"></g>
                    <path d="M426,524.3295 C398.814012,500.248923 381.222129,487.63039 373.224352,486.473903 C361.227686,484.739173 321.111929,461.167259 321.111929,460.70021 C321.111929,460.388845 296.407952,493.822108 247,561 C225.666667,545.613152 215,536.648967 215,534.107445 C215,530.295163 221,525.706869 218,517.36956 C215,509.032251 231.761267,498.249604 231.761267,494.653698 C231.761267,491.057793 231.417655,440.117918 241,446.563047" id="Path-10" stroke="url(#linearGradient-2)" stroke-width="2" stroke-linecap="round" stroke-linejoin="round"></path>
                    <path d="" id="Path-11" stroke="#979797"></path>
                    <circle id="Oval" fill="#8462F7" cx="238" cy="446" r="5"></circle>
                    <circle id="Oval-Copy-2" fill="#CBD2EC" cx="324" cy="350" r="5"></circle>
                    <circle id="Oval-Copy-3" fill="#CBD2EC" cx="385" cy="258" r="5"></circle>
                    <g id="Group-6" transform="translate(390.802255, 495.705010) rotate(36.000000) translate(-390.802255, -495.705010) translate(369.302255, 488.205010)">
                        <rect id="Rectangle" fill="url(#linearGradient-3)" x="1.13686838e-13" y="-1.42108547e-13" width="43" height="15" rx="7.5"></rect>
                        <text id="10-min" font-family="Avenir-Heavy, Avenir" font-size="8" font-weight="600" letter-spacing="0.4266666" fill="#FFFFFF">
                            <tspan x="5.30057647" y="9.92409003">10 MIN</tspan>
                        </text>
                    </g>
                    <path d="M426.419764,524 L479,446.280579 L380,378 L413,335.443656 C397.666667,323.9172 388,311.967786 384,299.595415 C380,287.223044 380.333333,273.357906 385,258" id="Path-12" stroke="#CBD2EC" stroke-width="2" stroke-linecap="round" stroke-linejoin="round"></path>
                    <path d="M380,377.771084 L365.479605,396.313115 C364.343634,397.378765 361.850432,396.55484 358,393.841338 C354.149568,391.127835 344.149568,384.771084 328,374.771084 C325.333333,365.183205 324,358.592844 324,355" id="Path-13" stroke="#CBD2EC" stroke-width="2" stroke-linecap="round" stroke-linejoin="round"></path>
                    <g id="Group-6-Copy" transform="translate(398.705010, 354.802255) rotate(-54.000000) translate(-398.705010, -354.802255) translate(377.205010, 347.302255)">
                        <rect id="Rectangle" fill="#CBD2EC" x="1.42108547e-13" y="0" width="43" height="15" rx="7.5"></rect>
                        <text id="14-min" font-family="Avenir-Heavy, Avenir" font-size="8" font-weight="600" letter-spacing="0.4266666" fill="#FFFFFF">
                            <tspan x="5.30057647" y="9.92409003">14 MIN</tspan>
                        </text>
                    </g>
                    <g id="Group-6-Copy-2" transform="translate(418.116210, 403.999769) rotate(33.000000) translate(-418.116210, -403.999769) translate(396.616210, 396.499769)">
                        <rect id="Rectangle" fill="#CBD2EC" x="1.13686838e-13" y="-1.42108547e-13" width="43" height="15" rx="7.5"></rect>
                        <text id="12-min" font-family="Avenir-Heavy, Avenir" font-size="8" font-weight="600" letter-spacing="0.4266666" fill="#FFFFFF">
                            <tspan x="5.30057647" y="9.92409003">12 MIN</tspan>
                        </text>
                    </g>
                    <polygon id="Path-6-Copy-2" fill-opacity="0.3" fill="#D3DAF0" points="281.843373 405.594649 294.493976 388.228916 284.554217 381 271 399.810358 280.939759 407.204819"></polygon>
                    <g id="Group-7" transform="translate(421.073181, 521.648393) rotate(21.000000) translate(-421.073181, -521.648393) translate(398.073181, 497.648393)" fill="#6AE5E4">
                        <path d="M3.96845818,15.7778643 C3.96845818,15.7778643 22.5262813,-2.63453463 41.8573471,15.7778643 L22.5262813,40.5945759" id="Fill-1" opacity="0.2" transform="translate(22.912903, 24.094576) rotate(-67.000000) translate(-22.912903, -24.094576) "></path>
                        <circle id="Oval" transform="translate(33.156607, 29.119053) rotate(-112.000000) translate(-33.156607, -29.119053) " cx="33.1566071" cy="29.1190534" r="8"></circle>
                    </g>
                    <polygon id="Path-6-Copy-3" fill-opacity="0.3" fill="#D3DAF0" points="457.843373 300.594649 470.493976 283.228916 460.554217 276 447 294.810358 456.939759 302.204819"></polygon>
                    <polygon id="Path-6-Copy-4" fill-opacity="0.3" fill="#D3DAF0" points="468.843373 308.594649 481.493976 291.228916 471.554217 284 458 302.810358 467.939759 310.204819"></polygon>
                    <polygon id="Path-6-Copy-5" fill-opacity="0.3" fill="#D3DAF0" points="479.843373 316.594649 492.493976 299.228916 482.554217 292 469 310.810358 478.939759 318.204819"></polygon>
                    <polygon id="Path-6-Copy" fill-opacity="0.3" fill="#D3DAF0" points="271.018536 396.796933 294.373494 364.46074 276.02317 351 251 386.026184 269.350324 399.795181"></polygon>
                    <polygon id="Path-6-Copy-6" fill-opacity="0.3" fill="#D3DAF0" transform="translate(360.772360, 450.109241) rotate(-89.000000) translate(-360.772360, -450.109241) " points="359.104149 471.508584 382.459107 439.17239 364.108783 425.71165 339.085613 460.737834 357.435938 474.506831"></polygon>
                    <rect id="Rectangle" fill-opacity="0.3" fill="#D3DAF0" transform="translate(187.933269, 289.295115) rotate(-53.000000) translate(-187.933269, -289.295115) " x="150.433269" y="263.795115" width="75" height="51"></rect>
                </g>
                <g id="Group-15-Copy" transform="translate(157.000000, 591.000000)">
                    <g id="Rectangle">
                        <use fill="black" fill-opacity="1" filter="url(#filter-5)" xlink:href="#path-4"></use>
                        <use fill="#FFFFFF" fill-rule="evenodd" xlink:href="#path-4"></use>
                    </g>
                    <circle id="Oval" fill="#8462F7" cx="38" cy="36" r="22"></circle>
                    <g id="noun_Tennis_1671480" transform="translate(29.000000, 22.000000)" fill="#FFFFFF">
                        <g id="Group">
                            <circle id="Oval" cx="17.71875" cy="3.84375" r="1"></circle>
                            <path d="M19.03125,10.25 C18.875,9.75 18.375,9.4375 17.84375,9.59375 C16.125,10.0625 11.4375,11.34375 10.09375,11.46875 L7.8125,11.65625 C6.5625,11.75 5.15625,10.65625 4.8125,10.28125 C4.59375,9.96875 3.65625,8.0625 2.84375,6.34375 L4.40625,5.09375 C4.8125,5.4375 5.375,5.65625 5.96875,5.65625 C5.96875,5.65625 5.96875,5.65625 5.96875,5.65625 C6.6875,5.65625 7.4375,5.375 8.0625,4.875 C8.6875,4.375 9.125,3.71875 9.28125,3 C9.4375,2.25 9.3125,1.53125 8.875,1 C8,-0.09375 6.21875,-0.125 4.90625,0.9375 C4.28125,1.4375 3.84375,2.09375 3.6875,2.8125 C3.5625,3.40625 3.625,4 3.875,4.46875 L2.375,5.65625 C2,5.375 1.46875,5.375 1.09375,5.75 C0.8125,6.03125 0.78125,6.4375 0.9375,6.78125 L0.375,7.21875 C0.21875,7.34375 0.1875,7.59375 0.3125,7.78125 C0.40625,7.875 0.5,7.9375 0.625,7.9375 C0.71875,7.9375 0.8125,7.90625 0.875,7.84375 L1.28125,7.53125 C2.09375,9.25 3,11.09375 3.34375,11.46875 C3.78125,11.96875 5.1875,13.15625 6.875,13.46875 C7.09375,14.4375 7.625,16.9375 7.59375,18.84375 C7.3125,20.03125 6.875,21.53125 6.625,22 C6.125,22.25 4.40625,22.78125 2.96875,23.15625 C2.40625,23.3125 2,23.84375 2.09375,24.40625 C2.1875,25.0625 2.84375,25.46875 3.46875,25.3125 C6.03125,24.625 7.59375,24.0625 8.0625,23.6875 C8.25,23.53125 8.78125,23.09375 9.5,20.21875 C9.75,21.46875 10.0625,23.09375 10.0625,23.65625 C10.03125,24.1875 9.0625,26.4375 8.1875,28.1875 C7.9375,28.6875 8.03125,29.28125 8.46875,29.625 C8.6875,29.78125 8.90625,29.84375 9.15625,29.84375 C9.5625,29.84375 9.9375,29.625 10.15625,29.25 C10.96875,27.625 12.34375,24.75 12.3125,23.59375 C12.28125,22.6875 11.8125,20.40625 11.625,19.40625 C11.625,19.40625 11.625,19.40625 11.625,19.40625 C12.125,16.28125 11.65625,14.0625 11.375,13.1875 C13.75,12.71875 17.75,11.59375 18.28125,11.4375 C18.90625,11.28125 19.1875,10.75 19.03125,10.25 Z M4.5,2.96875 C4.625,2.4375 4.96875,1.90625 5.4375,1.53125 C5.96875,1.15625 6.53125,0.9375 7.0625,0.9375 C7.5625,0.9375 8.03125,1.125 8.3125,1.5 C8.59375,1.84375 8.6875,2.3125 8.5625,2.84375 C8.4375,3.375 8.09375,3.90625 7.625,4.28125 C7.125,4.65625 6.5625,4.875 6,4.875 C5.46875,4.875 5.03125,4.6875 4.75,4.34375 C4.46875,4 4.40625,3.5 4.5,2.96875 Z" id="Shape" fill-rule="nonzero"></path>
                            <circle id="Oval" transform="translate(8.750215, 8.624286) rotate(-4.492356) translate(-8.750215, -8.624286) " cx="8.75021492" cy="8.62428632" r="2.24993727"></circle>
                        </g>
                    </g>
                </g>
                <rect id="Rectangle" fill="#F2F5FF" x="233" y="610" width="25" height="9" rx="4.5"></rect>
                <rect id="Rectangle-Copy-5" fill="#F2F5FF" x="233" y="624" width="82" height="9" rx="4.5"></rect>
                <rect id="Rectangle-Copy-7" fill="#F2F5FF" x="233" y="638" width="49" height="9" rx="4.5"></rect>
                <g id="Group-5-Copy" transform="translate(370.000000, 531.000000)">
                    <ellipse id="Oval" fill-opacity="0.2" fill="#3B3D6C" cx="106.557762" cy="244.32491" rx="45.0306859" ry="2.67509025"></ellipse>
                    <path d="M91.67096,32.9927798 L99.7113443,32.9927798 C99.7113443,32.9927798 100.285657,32.9927798 100.859971,34.7018652 C101.434284,36.4109507 107.751729,51.7927196 107.751729,51.7927196 C107.751729,51.7927196 108.326042,52.9321099 107.177415,52.9321099 C106.028789,52.9321099 98.562718,53.5018051 98.562718,53.5018051 C98.562718,53.5018051 97.9884048,53.5018051 97.4140917,52.3624148 C96.8397785,51.2230245 91.0966469,34.7018652 91.0966469,34.7018652 C91.0966469,34.7018652 90.5223337,32.9927798 91.67096,32.9927798" id="Fill-1" fill="#13163A"></path>
                    <path d="M49.0433213,64.7917176 C49.0433213,64.7917176 50.8267148,58.822508 55.5824308,58.225587 C60.3381468,57.6286661 62.7160048,58.225587 62.7160048,58.225587 C62.7160048,58.225587 62.1215403,60.6132709 63.3104693,60.6132709 L62.7160048,65.9855596 C62.7160048,65.9855596 59.7436823,64.7917176 58.5547533,64.7917176 L49.0433213,64.7917176 Z" id="Fill-3" fill="#BC925B"></path>
                    <path d="M66.8501282,59.4924755 C66.8501282,59.4924755 92.0232659,63.5604994 97.2920622,62.9793531 C102.560858,62.3982069 119.998818,47.2599278 119.998818,47.2599278 C119.998818,47.2599278 133.741009,49.5327908 127.810686,66.7167048 C124.806887,68.2096695 100.804593,76.3457172 97.877484,75.764571 C94.9503749,75.1834247 65.0938628,67.047377 65.0938628,67.047377 L66.2647064,60.6547681 C66.2647064,60.6547681 66.8501282,61.2359143 66.8501282,59.4924755" id="Fill-5" fill="#BC925B"></path>
                    <path d="M95.4115523,63.0498195 L96.0029839,78.3784776 C96.0029839,78.3784776 101.917299,78.9462057 106.05732,77.2430214 C110.19734,75.5398372 131.488875,65.3207318 131.488875,65.3207318 L153.371841,65.3207318 C153.371841,65.3207318 140.781447,35.1862932 132.586572,38.614803 C124.391697,42.0438806 109.014477,58.5079949 101.325868,61.3466353 C98.9601415,62.4820914 97.7772784,63.0498195 95.4115523,63.0498195" id="Fill-7" fill="#FFFFFF"></path>
                    <path d="M117.076265,67.2151042 C117.076265,67.2151042 113.549368,78.1591587 117.664081,85.0711931 C121.778795,91.9832276 127.06914,113.295334 114.137184,120.783371 C114.137184,120.783371 121.778795,127.695406 132.359486,132.303428 C142.940177,136.911451 158.223398,142.67148 162.338112,142.67148 C162.338112,142.67148 171.041906,115.061359 171.155355,97.7432563 C171.268803,80.425154 171.155355,49.9350181 171.155355,49.9350181 C171.155355,49.9350181 130.596037,55.6950468 117.076265,67.2151042" id="Fill-9" fill="#FFFFFF"></path>
                    <path d="M58.8519856,128.404332 L48.4345077,128.404332 C48.4345077,128.404332 41.4895224,142.077016 53.0644978,148.343662 L53.6432466,148.913357 L58.5747649,148.913357 L58.8519856,128.404332 Z" id="Fill-11" fill="url(#linearGradient-6)"></path>
                    <path d="M163.180505,142.077016 C163.180505,142.077016 162.001713,148.913357 158.465335,148.913357 L57.6785651,148.913357 C57.6785651,148.913357 52.9633946,146.634577 53.5527909,135.810369 C54.1421872,129.543722 59.446754,128.404332 59.446754,128.404332 L129.735801,128.404332 L163.180505,142.077016 Z" id="Fill-13" fill="#3B3D6C"></path>
                    <polygon id="Fill-15" fill="url(#linearGradient-7)" points="76.6859206 158.722022 86.061475 192.606498 117.703971 192.606498 114.188138 158.722022"></polygon>
                    <polygon id="Fill-17" fill="#3B3D6C" points="83.8194946 158.722022 89.9424037 192.606498 118.595668 192.606498 115.027539 158.887444"></polygon>
                    <path d="M101.585546,192.677586 C101.585546,192.677586 102.027367,211.678901 104.32852,216.302514 C104.32852,216.302514 99.726214,216.302514 98.5756376,218.61432 C98.5756376,219.770223 99.1509258,222.659981 97.4250611,223.237933 C95.6991965,223.815884 93.3980436,223.815884 93.3980436,223.815884 C93.3980436,223.815884 93.3980436,218.036368 92.2474671,215.724562 C91.0968906,213.412756 86.4945848,192.606498 86.4945848,192.606498 L101.585546,192.677586 Z" id="Fill-19" fill="#BC925B"></path>
                    <path d="M112.261386,228.838261 C112.220166,228.999676 112.16128,229.155903 112.084728,229.310977 C110.90701,231.616906 99.7186884,241.99359 94.4189571,242.570072 C89.419544,243.112542 85.9923844,244.679998 84.1433671,241.474755 C84.0255952,241.284516 83.9196006,241.071794 83.8194946,240.840625 C83.8194946,240.840625 84.17281,238.079274 86.2455938,236.027573 C86.84623,235.428032 87.5999696,234.891326 88.5303668,234.499318 C92.65238,232.769871 93.2412391,223.546153 93.2412391,223.546153 L96.3621919,218.455813 L96.7743932,217.781329 L101.485265,214.898917 L104.429561,216.051882 C104.429561,216.051882 105.607279,220.087259 107.962715,221.816706 C109.593854,223.015789 111.519423,225.051348 112.143614,226.953164 C112.2025,227.131873 112.249609,227.311159 112.290829,227.483528 L112.290829,227.501399 C112.379158,227.967773 112.379158,228.418006 112.261386,228.838261" id="Fill-21" fill="#97A6D1"></path>
                    <path d="M94.8916134,230.651992 C92.5609866,235.975815 88.0013097,236.332686 86.4945848,236.297584 C87.0701876,235.689147 87.7925126,235.145064 88.6841326,234.74724 C92.6343477,232.992134 93.1986641,223.631567 93.1986641,223.631567 L96.1895413,218.465704 L97.1488792,223.046531 C97.1488792,223.046531 97.7131956,224.216602 94.8916134,230.651992" id="Fill-23" fill="#BBC6E2"></path>
                    <path d="M112.320449,229.079452 C112.279975,229.238168 112.222154,229.391782 112.146988,229.544263 C111.933052,229.969395 111.372194,230.667178 110.56849,231.528211 L110.562708,231.539548 C107.076136,235.298281 99.027531,242.123064 94.8008572,242.58164 C92.2741042,242.85996 90.1520943,243.39846 88.4463914,243.431904 C86.8389833,243.460246 85.5900619,243.035114 84.7111913,241.504639 C85.5148954,241.379934 92.649937,240.155554 95.3790616,237.480058 C98.2700833,234.645845 101.739309,227.276893 106.364944,226.71005 C110.730387,226.177218 111.736463,226.721387 112.204808,227.225877 C112.233718,227.259887 112.262629,227.28823 112.285757,227.317139 C112.326231,227.356251 112.343577,227.509298 112.349359,227.747372 L112.349359,227.764944 C112.360923,228.071039 112.349359,228.524513 112.320449,229.079452" id="Fill-25" fill="#BFCCEC"></path>
                    <path d="M112.353791,229.420268 L110.748862,231.422117 L110.742984,231.433556 C107.198032,235.225631 99.0146623,242.111992 94.7172172,242.575278 C92.1481564,242.855536 89.9906156,243.398896 88.2563525,243.433213 L87.3862816,243.324541 C87.3862816,243.324541 93.5414457,243.147235 97.6566461,238.571579 C101.771847,233.995924 104.711275,229.992225 108.23859,229.420268 C111.765905,228.848311 112.353791,229.420268 112.353791,229.420268" id="Fill-27" fill="#A6B4DB"></path>
                    <path d="M104.916668,48.5367222 C104.916668,48.5367222 100.905006,43.4398413 100.905006,42.307201 C100.905006,41.1745608 100.331912,39.4756005 101.478101,40.0419206 L100.905006,38.3429603 C100.905006,38.3429603 111.220706,45.1388016 111.793801,46.2714418 C112.366895,47.404082 114.137184,52.4256424 114.137184,52.4256424 L107.313349,57.9602888 L104.343573,53.6336032 C104.343573,53.6336032 107.209045,53.6336032 106.635951,52.500963 C106.062856,51.3683228 104.916668,48.5367222 104.916668,48.5367222" id="Fill-29" fill="#BC925B"></path>
                    <path d="M92.587846,32.9927798 L100.315884,32.9927798 C100.315884,32.9927798 100.910349,32.9927798 101.504813,34.7506962 C102.099278,36.5086127 108.638387,52.3298608 108.638387,52.3298608 C108.638387,52.3298608 109.232852,53.5018051 108.043923,53.5018051 L100.315884,53.5018051 C100.315884,53.5018051 99.72142,53.5018051 99.1269555,52.3298608 C98.532491,51.1579165 91.9933815,34.1647241 91.9933815,34.1647241 C91.9933815,34.1647241 91.398917,32.9927798 92.587846,32.9927798" id="Fill-31" fill="#3B3D6C"></path>
                    <polygon id="Fill-33" fill="#CCD4EA" points="24.967509 72.8568698 27.3215884 64.2021661 172.097473 64.2021661 172.097473 74.0108303"></polygon>
                    <polygon id="Fill-35" fill="#E8EAF7" points="52.9922641 73.3471204 34.7761733 148.913357 38.9144247 148.913357 57.9602888 73.1191336"></polygon>
                    <polygon id="Fill-37" fill="#CED6EC" points="58.2921214 72.2274368 39.234657 148.913357 43.37133 148.913357 62.4187726 72.8040227"></polygon>
                    <polygon id="Fill-39" fill="#CCD4EA" points="21.400722 87.1240178 23.7553588 78.4693141 172.097473 78.4693141 172.097473 88.2779783"></polygon>
                    <polygon id="Fill-41" fill="#CCD4EA" points="16.9422383 100.499469 19.2884518 91.8447653 171.205776 91.8447653 171.205776 101.65343"></polygon>
                    <polygon id="Fill-43" fill="#CCD4EA" points="12.4837545 114.766617 14.8351919 106.111913 171.205776 106.111913 171.205776 115.920578"></polygon>
                    <polygon id="Fill-45" fill="#CCD4EA" points="8.91696751 128.142068 11.2689792 119.487365 171.205776 119.487365 171.205776 129.296029"></polygon>
                    <polygon id="Fill-47" fill="#CCD4EA" points="0 159.019254 0 148.913357 171.205776 148.913357 171.205776 159.613718"></polygon>
                    <path d="M126.195249,31.209538 C126.195249,31.209538 124.975699,38.5611993 126.482382,41.9097473 C126.455814,41.8929204 127.026504,34.2411798 128.018187,34.4217883 C129.01038,34.6012749 127.978846,31.1831759 126.195249,31.209538" id="Fill-57" fill="#758DD9"></path>
                    <path d="M125.479929,9.80866426 C125.479929,9.80866426 124.301427,16.1298034 125.479929,17.8537505 C126.658432,19.5776976 127.836935,20.7269956 125.479929,23.0255917 C123.122924,25.3241877 127.836935,35.66787 130.19394,35.66787 L134.318699,35.66787 C134.318699,35.66787 145.219849,10.6706378 125.479929,9.80866426" id="Fill-58" fill="#BC925B"></path>
                    <path d="M124.787554,9.78549337 C124.787554,9.78549337 126.559756,21.2774921 130.104159,23.5758918 C131.456939,24.4492837 133.489064,25.0755977 135.491651,25.5122936 C135.320338,28.8507192 134.298369,32.4247309 132.171727,35.9297905 C126.518405,45.2325634 129.188521,48.932987 133.583581,51.3865287 C134.280647,52.5012526 139.095128,60.4020017 138.374432,65.5216872 C137.594664,71.0378466 140.146634,74.7152861 140.146634,74.7152861 C140.146634,74.7152861 139.5559,69.5438867 140.737368,66.670887 C141.895206,63.8553474 141.918835,57.730112 138.575282,53.7021665 C138.604818,53.7136585 138.640263,53.7308965 138.669799,53.7423885 C145.167871,56.6153882 143.596519,79.9786216 149.893742,79.5993856 C150.059147,79.5878936 150.224553,79.5821476 150.384051,79.5878936 C156.33274,79.5993856 158.973321,86.4945848 167.025023,86.4945848 C167.615756,86.4945848 168.171046,86.4141408 168.690892,86.2647449 C169.825101,85.9429689 170.805719,85.293671 171.620932,84.4030411 C175.732439,79.9326536 175.868308,69.4232207 171.750893,64.0851873 C166.434289,57.1899881 171.750893,49.7201889 171.750893,40.5553199 C171.744986,31.396197 163.48062,24.4377917 159.936217,21.5647921 C156.391814,18.6917924 159.936217,2.60299417 143.986404,0.304594423 C136.501806,-0.775653457 131.746399,1.18373233 128.810452,3.56832206 C128.278791,3.99927201 127.806204,4.44745996 127.386783,4.88990191 C127.357247,4.91288591 127.333617,4.94161591 127.309988,4.9703459 C127.032343,5.27488387 126.77242,5.57367584 126.542034,5.8724678 C125.012033,7.82036159 124.492188,9.4981934 124.492188,9.4981934 C124.492188,9.4981934 123.436546,14.0254663 124.260029,15.7837421 C124.492188,15.8187927 124.492188,11.7965931 124.787554,9.78549337" id="Fill-59" fill="url(#linearGradient-8)"></path>
                    <path d="M171.627068,84.4030423 C170.654186,85.0690033 169.674818,85.6895708 168.702525,86.2641704 C168.183654,86.4141409 167.629406,86.4945848 167.03978,86.4945848 C159.003182,86.4945848 156.367555,79.5993898 150.430024,79.5878978 C147.529066,69.7622448 146.267267,56.1896279 142.570314,54.0297081 C136.674057,50.5821105 134.315554,43.1123159 134.315554,43.6869154 C133.159888,46.5024534 135.96061,51.5187078 136.078535,51.7255637 C135.937025,51.6215612 133.690551,49.8460484 132.546677,44.8361146 C131.367426,39.6647183 141.980688,24.725129 137.853308,21.8521311 C128.366231,22.3980007 126.774241,7.46932875 126.632142,5.87251649 C126.626835,5.78000595 126.620939,5.73461259 126.620939,5.73461259 C126.880374,5.47604277 127.133913,5.21689836 127.399245,4.97039513 C127.42283,4.94109055 127.446415,4.91293517 127.475896,4.88995119 C127.947596,4.43027152 128.424604,3.98782983 128.896894,3.56837213 C131.827334,1.18320924 136.57382,-0.775600759 144.044378,0.304646469 C159.964272,2.60304483 156.426518,18.6918333 159.964272,21.5648313 C163.502026,24.4378292 171.75089,31.3962302 171.756786,40.5547731 C171.756786,49.7202111 166.450155,57.1900058 171.756786,64.0852009 C175.865887,69.423231 175.730863,79.9326575 171.627068,84.4030423" id="Fill-60" fill="url(#linearGradient-9)"></path>
                </g>
            </g>
        </g>
    </g>
</svg>