<?xml version="1.0" encoding="UTF-8"?>
<svg width="469px" height="675px" viewBox="0 0 469 675" version="1.1" xmlns="http://www.w3.org/2000/svg" xmlns:xlink="http://www.w3.org/1999/xlink">
    <!-- Generator: sketchtool 52.2 (67145) - http://www.bohemiancoding.com/sketch -->
    <title>3DC50D73-D83F-43FF-B4F1-612ADF77256F</title>
    <desc>Created with sketchtool.</desc>
    <defs>
        <polygon id="path-1" points="0 0 152.563339 0 152.563339 15.2982161 0 15.2982161"></polygon>
        <linearGradient x1="100%" y1="3.74939946e-31%" x2="1.11022302e-14%" y2="100%" id="linearGradient-3">
            <stop stop-color="#7DB8FE" offset="0%"></stop>
            <stop stop-color="#4960F5" offset="100%"></stop>
        </linearGradient>
        <rect id="path-4" x="213.802272" y="272" width="230" height="87" rx="5"></rect>
        <filter x="-31.3%" y="-69.0%" width="162.6%" height="265.5%" filterUnits="objectBoundingBox" id="filter-5">
            <feOffset dx="0" dy="12" in="SourceAlpha" result="shadowOffsetOuter1"></feOffset>
            <feGaussianBlur stdDeviation="22" in="shadowOffsetOuter1" result="shadowBlurOuter1"></feGaussianBlur>
            <feColorMatrix values="0 0 0 0 0.309803922   0 0 0 0 0.415686275   0 0 0 0 0.964705882  0 0 0 0.6 0" type="matrix" in="shadowBlurOuter1"></feColorMatrix>
        </filter>
        <linearGradient x1="134.957811%" y1="50%" x2="0%" y2="50%" id="linearGradient-6">
            <stop stop-color="#89B6F5" offset="0%"></stop>
            <stop stop-color="#FFFFFF" offset="100%"></stop>
        </linearGradient>
        <linearGradient x1="0%" y1="100%" x2="100%" y2="0%" id="linearGradient-7">
            <stop stop-color="#4ACC79" offset="0%"></stop>
            <stop stop-color="#95F6B8" offset="100%"></stop>
        </linearGradient>
        <rect id="path-8" x="0" y="0" width="230" height="87" rx="5"></rect>
        <filter x="-31.3%" y="-69.0%" width="162.6%" height="265.5%" filterUnits="objectBoundingBox" id="filter-9">
            <feOffset dx="0" dy="12" in="SourceAlpha" result="shadowOffsetOuter1"></feOffset>
            <feGaussianBlur stdDeviation="22" in="shadowOffsetOuter1" result="shadowBlurOuter1"></feGaussianBlur>
            <feColorMatrix values="0 0 0 0 0.51372549   0 0 0 0 0.925490196   0 0 0 0 0.662745098  0 0 0 0.5 0" type="matrix" in="shadowBlurOuter1"></feColorMatrix>
        </filter>
        <linearGradient x1="0%" y1="50%" x2="127.518865%" y2="50%" id="linearGradient-10">
            <stop stop-color="#FFFFFF" offset="0%"></stop>
            <stop stop-color="#8AFDB4" offset="100%"></stop>
        </linearGradient>
        <linearGradient x1="11.5229761%" y1="13.5662833%" x2="73.3595825%" y2="76.1072032%" id="linearGradient-11">
            <stop stop-color="#9D7BE5" offset="0%"></stop>
            <stop stop-color="#6547C9" offset="100%"></stop>
        </linearGradient>
        <rect id="path-12" x="0" y="0" width="230" height="87" rx="5"></rect>
        <filter x="-31.3%" y="-69.0%" width="162.6%" height="265.5%" filterUnits="objectBoundingBox" id="filter-13">
            <feOffset dx="0" dy="12" in="SourceAlpha" result="shadowOffsetOuter1"></feOffset>
            <feGaussianBlur stdDeviation="22" in="shadowOffsetOuter1" result="shadowBlurOuter1"></feGaussianBlur>
            <feColorMatrix values="0 0 0 0 0.525490196   0 0 0 0 0.4   0 0 0 0 0.854901961  0 0 0 0.5 0" type="matrix" in="shadowBlurOuter1"></feColorMatrix>
        </filter>
        <linearGradient x1="122.740175%" y1="50%" x2="0%" y2="50%" id="linearGradient-14">
            <stop stop-color="#6548C9" offset="0%"></stop>
            <stop stop-color="#FFFFFF" offset="100%"></stop>
        </linearGradient>
        <linearGradient x1="100%" y1="100%" x2="0%" y2="0%" id="linearGradient-15">
            <stop stop-color="#F5317F" offset="0%"></stop>
            <stop stop-color="#FF7C6E" offset="100%"></stop>
        </linearGradient>
        <rect id="path-16" x="0" y="0" width="230" height="87" rx="5"></rect>
        <filter x="-31.3%" y="-69.0%" width="162.6%" height="265.5%" filterUnits="objectBoundingBox" id="filter-17">
            <feOffset dx="0" dy="12" in="SourceAlpha" result="shadowOffsetOuter1"></feOffset>
            <feGaussianBlur stdDeviation="22" in="shadowOffsetOuter1" result="shadowBlurOuter1"></feGaussianBlur>
            <feColorMatrix values="0 0 0 0 0.980392157   0 0 0 0 0.325490196   0 0 0 0 0.466666667  0 0 0 0.4 0" type="matrix" in="shadowBlurOuter1"></feColorMatrix>
        </filter>
        <linearGradient x1="100%" y1="39.8488518%" x2="0%" y2="39.8488518%" id="linearGradient-18">
            <stop stop-color="#FC5493" offset="0%"></stop>
            <stop stop-color="#FFFFFF" offset="100%"></stop>
        </linearGradient>
    </defs>
    <g id="Page-2" stroke="none" stroke-width="1" fill="none" fill-rule="evenodd">
        <g id="Assets" transform="translate(-914.000000, -156.000000)">
            <g id="Group-21" transform="translate(785.000000, 13.000000)">
                <g id="Group-2-Copy" opacity="0.5" transform="translate(407.500000, 434.811339) rotate(168.000000) translate(-407.500000, -434.811339) translate(71.000000, 61.811339)">
                    <g id="Group-3" transform="translate(0.846725, 0.089525)">
                        <g id="Group-8-Copy-2" transform="translate(-0.000000, 0.000000)">
                            <g transform="translate(336.108616, 372.753334) scale(-1, 1) rotate(23.000000) translate(-336.108616, -372.753334) translate(100.608616, 68.753334)" id="Group-77">
                                <g transform="translate(0.000000, -0.000000)">
                                    <polygon id="Fill-2" fill="#FFFFFF" points="419.990021 250.218615 417.765429 253.913029 0.33149424 3.81089866 2.55662701 0.117564377"></polygon>
                                    <polygon id="Fill-3" fill="#FFFFFF" points="171.818258 103.072328 169.878349 101.995198 194.392559 61.1721337 196.332468 62.2487243"></polygon>
                                    <g id="Group-76" transform="translate(41.915126, 109.966344)">
                                        <path d="M272.770906,60.7239366 C268.998461,57.7056715 259.800417,47.3627238 253.085357,45.1690918 C246.363792,42.9754598 223.734543,41.7843231 220.146385,42.792208 C220.146385,42.792208 228.699428,38.4911803 231.463719,38.4911803 C234.22259,38.4911803 248.667368,38.5828062 266.608162,48.9203641 C273.324306,52.5800106 279.394907,57.0642902 279.394907,57.0642902 C279.394907,57.0642902 281.05294,57.9751595 279.670794,59.6244257 C278.294069,61.273692 276.543351,63.7422017 272.770906,60.7239366 Z M264.646599,61.9096836 C264.646599,61.9096836 259.708274,56.39596 243.789207,53.5932853 C227.87556,50.7852208 216.591289,51.0870473 215.079059,46.7806298 C215.079059,46.7806298 225.45274,44.3767972 243.995174,46.7806298 C257.491962,48.8826358 257.393857,50.3863786 261.220504,55.0970281 C265.047151,59.8022878 266.158829,60.2065197 266.158829,60.2065197 L264.646599,61.9096836 Z M222.920974,36.9486312 C222.157271,37.2989656 220.566449,38.0740129 219.404904,38.9471539 C219.191891,39.1072297 218.887819,38.990272 218.839579,38.7294076 C218.611932,37.5026984 218.094305,34.6612174 217.909477,33.2512565 C217.879124,33.015185 218.164225,32.8745123 218.334961,33.0415948 C219.220618,33.9082681 221.157248,35.6906614 222.928563,36.5551788 C223.094962,36.6360252 223.089,36.8715577 222.920974,36.9486312 Z M278.006799,72.0100922 C276.093476,71.007597 275.893471,71.7082657 276.093476,75.1145934 C276.294023,78.5155314 272.971453,80.4181164 272.971453,80.4181164 C270.152959,79.620432 267.735559,77.0171784 267.735559,77.0171784 C270.754599,69.105012 274.884776,67.5042536 277.405701,67.5042536 C279.920123,67.5042536 281.936429,63.197836 283.443239,59.6944926 C284.955469,56.1857594 295.530239,46.1769768 298.549821,40.668643 C301.568319,35.1603091 307.915891,31.0533127 307.915891,31.0533127 C307.915891,31.0533127 307.611819,30.0508175 306.706649,29.5549597 C305.818282,29.0591018 298.083144,37.1167917 297.850618,37.3593309 C298.056043,37.0790634 305.276264,27.1403476 303.785714,26.5474741 C300.663149,25.0491211 301.939601,23.2074404 301.939601,23.2074404 C301.939601,23.2074404 301.337419,23.4629149 300.930906,28.7718277 C300.529813,34.0753506 283.421559,53.7927064 283.421559,53.7927064 C282.494708,52.7902112 281.567857,54.0406353 281.567857,54.0406353 C276.689696,50.3594298 267.074298,44.694793 250.15304,37.7743423 C233.23666,30.8538916 225.735132,35.0848525 225.735132,35.0848525 C217.138185,31.9264537 216.949021,24.7688536 217.322471,17.5250173 C217.697006,10.2811811 215.734901,3.87275751 215.550615,3.22059666 C215.360366,2.56843581 214.244351,1.64139724 214.244351,3.59249004 C216.206456,8.04982082 216.016208,19.567736 215.831922,26.0731753 C215.642758,32.5732248 217.046042,38.5181291 217.420034,40.6578634 C217.794027,42.792208 211.718006,43.9078882 205.647405,43.5359948 C192.287205,43.1641014 181.734115,36.1951429 179.305333,33.0367441 C176.877093,29.8783452 172.113297,4.16919426 171.516535,2.13725508 C170.920316,0.105315893 170.242793,0.277788185 168.963631,0.444870717 C167.689889,0.611953249 167.624847,1.78692074 167.624847,1.78692074 L171.126282,17.0561083 C168.464974,17.0561083 165.90123,14.1779769 165.744586,14.0001149 C167.066568,16.4039474 170.578844,17.9292493 170.578844,17.9292493 C171.126282,18.6945951 173.549103,20.3384716 173.549103,20.3384716 L175.749695,30.8377223 C175.749695,30.8377223 167.495304,29.7436012 163.646435,27.4475639 C159.798108,25.1515265 139.775965,8.19534432 139.775965,8.19534432 C142.746223,15.5200269 156.605622,27.4475639 156.605622,27.4475639 L124.073705,22.6237295 L123.62383,24.2244879 L126.220096,24.8497 L175.614191,35.8825369 L176.687386,36.3298869 C176.687386,36.3298869 180.443571,40.5069502 187.603628,43.0024086 C189.159219,43.5413846 190.671449,43.9725653 192.124057,44.3175099 C192.882882,44.4899822 193.625447,44.6462852 194.351751,44.7810292 C198.612554,45.5787135 202.211011,45.6972882 204.60673,45.9398274 C208.184591,46.2955515 210.330982,48.3382702 214.092044,50.6504768 C217.848229,52.9680732 224.201221,53.0543094 224.201221,53.0543094 C224.201221,53.0543094 242.288359,54.9245558 251.832753,58.1907498 C261.372811,61.4569438 264.862864,66.3562349 264.862864,66.3562349 L267.843963,62.4702185 C270.429931,65.6609559 274.467422,65.9681722 274.467422,65.9681722 C274.467422,65.9681722 272.397456,66.2807782 269.50308,69.5739211 C266.602742,72.8616741 266.098665,75.5296049 265.399462,76.9201627 C264.700259,78.3107206 250.082577,102.532298 248.548667,104.995418 C247.019634,107.458538 248.168712,108.267002 248.168712,108.267002 C248.168712,108.267002 251.827333,109.145532 251.827333,113.67293 C251.827333,118.194938 243.176727,130.877041 243.176727,130.877041 L245.285177,132.639492 C245.285177,132.639492 250.499389,123.487681 253.046873,120.178369 C255.599778,116.869057 254.71141,110.800188 255.047462,110.029453 C266.467238,95.5795088 271.860316,86.848099 271.860316,86.848099 C271.860316,86.848099 278.348271,78.3322796 278.044741,75.7613645 C277.741211,73.1958392 278.538519,74.0905392 278.538519,74.0905392 L376.448097,131.723233 L377.483351,129.664345 C377.483351,129.664345 279.920123,73.0071976 278.006799,72.0100922 Z" id="Fill-4" fill="#FFFFFF"></path>
                                        <path d="M120.60311,192.667503 L135.100464,198.341842 C135.100464,198.341842 138.030613,200.028836 140.498421,205.243428 C142.966228,210.457481 147.438418,215.672073 149.135476,217.971883 C150.831451,220.272772 161.165023,235.7624 161.165023,235.7624 C161.165023,235.7624 163.941238,240.823384 166.100096,242.050093 C168.259495,243.276802 176.98219,250.649993 176.98219,250.649993 L177.513368,246.803861 C177.513368,246.803861 169.493128,242.663448 166.408504,238.982781 C163.32388,235.302115 152.374034,218.892454 152.374034,218.892454 C152.374034,218.892454 150.594047,215.744296 148.612971,213.478441 C146.631354,211.213125 140.390559,200.771006 140.390559,200.771006 C140.390559,200.771006 139.993802,197.913895 135.040842,195.943938 C130.087882,193.973981 119.388448,190.722878 116.515211,187.669041 C113.642516,184.615203 120.60311,192.667503 120.60311,192.667503" id="Fill-6" fill="#FFFFFF"></path>
                                        <path d="M199.476747,189.944705 L195.958509,195.53119 C195.958509,195.53119 181.490966,213.337337 180.423733,224.540491 C179.355958,235.743105 179.000394,259.091541 179.000394,259.091541 C179.000394,259.091541 179.712063,266.99185 172.715154,275.954481 L165.718786,284.916572 C165.718786,284.916572 176.154258,270.058623 176.509821,262.393308 C176.865927,254.727992 177.93316,225.129591 177.93316,225.129591 C177.93316,225.129591 177.93316,220.884617 180.423733,215.931967 C182.913763,210.978779 188.369174,201.309551 191.452172,197.771713 C194.535712,194.233875 198.330379,187.630342 198.330379,187.630342 L199.476747,189.944705 Z" id="Fill-8" fill="#FFFFFF"></path>
                                        <path d="M208.074399,196.945894 C208.074399,196.945894 198.871476,212.107286 200.010798,230.067581 C200.824367,239.45169 204.404395,243.82009 204.404395,245.438096 C204.404395,247.056101 209.611019,263.236697 209.123203,267.76679 L207.170313,268.899178 C207.170313,268.899178 206.682496,262.912773 204.567,254.499359 C202.451504,246.085406 197.407486,232.979668 197.733238,229.096346 C198.058449,225.213025 197.358704,213.877283 206.145357,195.755296 C208.424,195.755296 208.074399,196.945894 208.074399,196.945894" id="Fill-10" fill="#FFFFFF"></path>
                                        <path d="M184.677381,304.628161 L208.518582,270.560032 L257.760912,300.346536 L258.625972,298.91286 L209.122932,267.76652 L207.170584,268.899448 L183.964628,302.209776 L0.197240327,196.367842 L104.786647,261.199099 L153.259312,290.538253 L232.862234,337.563901 L236.068812,338.930744 C236.068812,338.930744 240.118228,340.757333 241.087898,341.507588 C242.05811,342.257303 244.428355,344.507527 246.691279,345.365038 C248.954204,346.222549 256.712649,352.544197 256.712649,352.544197 C256.712649,352.544197 259.083436,354.365936 263.178381,357.151902 C267.272785,359.937869 282.35877,369.259996 282.35877,369.259996 L275.091935,385.580726 C275.091935,385.580726 274.104921,387.016019 275.16836,387.695667 C276.231799,388.375855 278.813972,389.735152 278.813972,389.735152 C278.813972,389.735152 279.801529,390.037518 278.585783,391.69918 C277.370579,393.360843 272.357455,401.669696 272.357455,401.669696 L271.709201,402.931438 C271.709201,402.931438 271.456079,403.63049 270.547657,402.992881 C269.638693,402.354734 261.82713,398.76731 259.681823,397.022645 C257.537058,395.276902 249.249062,391.593002 248.469098,390.913892 C247.688592,390.235322 230.235615,379.473051 228.967835,378.988511 C230.138594,377.4368 224.328703,376.935013 227.563466,380.489559 C229.056726,382.230451 236.016778,385.076783 237.122495,386.305648 C238.228211,387.534513 252.204144,394.396755 255.931601,397.231229 C259.659601,400.065703 265.360545,402.682431 265.360545,402.682431 C265.360545,402.682431 266.129669,403.501675 265.510684,404.855582 C264.892242,406.210029 247.732496,435.273766 247.732496,435.273766 C247.732496,435.273766 246.694532,436.554372 248.467472,437.777848 C250.240413,439.001323 253.171104,440.656518 253.171104,440.656518 C253.171104,440.656518 254.365169,442.095584 256.137568,440.224259 C257.911051,438.353474 275.972172,410.266361 275.972172,410.266361 C275.972172,410.266361 276.698476,409.234762 277.735357,409.853506 C278.772779,410.472789 316.478799,433.949502 316.478799,433.949502 C316.478799,433.949502 319.689171,435.54541 320.418727,437.141856 C321.148825,438.737764 326.547866,456.876459 326.547866,456.876459 L322.462135,436.706903 C322.462135,436.706903 322.462135,435.690933 319.543368,433.514548 C316.625144,431.337625 278.101219,407.395776 278.101219,407.395776 C278.101219,407.395776 275.64913,406.353935 273.600844,409.9198 C271.552016,413.484587 256.612918,436.31884 256.612918,436.31884 C256.612918,436.31884 255.332671,439.290214 253.454579,438.525946 C251.576487,437.762218 249.612756,436.99795 250.295699,435.555111 C250.979183,434.111734 267.795832,407.287981 267.795832,407.287981 C267.795832,407.287981 268.735149,405.590206 270.186131,406.608871 C271.637113,407.627535 277.267053,406.433165 276.186812,405.627396 C275.106028,404.821627 274.565636,405.090576 276.996586,400.524911 C279.426995,395.959246 281.047628,393.273529 281.047628,393.273529 C281.047628,393.273529 282.061744,391.93633 283.630886,393.106446 C285.199486,394.276563 286.152353,394.722296 286.152353,394.722296 C286.152353,394.722296 287.889521,395.836898 289.290095,393.663208 C290.691212,391.490597 298.288135,379.647679 298.288135,379.647679 C298.288135,379.647679 299.370003,379.45257 300.451871,380.137608 C301.533738,380.821568 302.752195,378.77885 302.552732,378.281914 C302.353269,377.785517 283.498634,367.145594 280.241648,364.746612 C276.985204,362.348169 262.873225,354.312038 259.013515,351.193524 C255.153806,348.07447 249.846366,344.476806 249.846366,344.476806 C249.846366,344.476806 246.387749,341.170189 243.459769,339.331203 C240.530704,337.492217 231.282794,333.50649 224.500523,328.755417 C217.718253,324.003806 188.782625,306.557156 184.677381,304.628161" id="Fill-12" fill="#FFFFFF"></path>
                                        <path d="M206.918925,193.313304 L200.442352,188.743327 C200.177306,188.556842 200.099255,188.201657 200.260776,187.921928 L201.386548,185.974069 C201.488989,185.795668 201.716095,185.732608 201.897129,185.831241 L208.90271,189.661203 C209.153123,189.798103 209.25177,190.105859 209.127106,190.361872 L207.79591,193.089629 C207.636014,193.417327 207.218119,193.524044 206.918925,193.313304 M197.971835,186.987344 L195.780456,184.951632 C195.634111,184.815271 195.749019,184.571654 195.94794,184.597525 L199.258043,185.02116 C199.446123,185.045414 199.550733,185.249147 199.4613,185.414612 L198.670496,186.873081 C198.531197,187.129634 198.186474,187.186226 197.971835,186.987344 M313.346315,261.336376 C311.238407,259.315216 312.457947,257.946218 308.804746,255.768755 C305.151003,253.585902 299.612122,250.104118 299.612122,250.104118 L293.340433,244.606564 C293.340433,244.606564 262.733222,226.637107 255.73035,220.950372 C248.721516,215.269566 233.967788,208.301146 225.491169,203.53606 C217.008047,198.766662 210.368327,194.551332 210.368327,194.551332 L213.024757,187.663759 L205.240837,183.087314 L235.702245,129.346026 L231.903241,126.829009 L200.660786,183.297515 L192.466016,179.80549 L225.810418,123.530476 L223.924195,122.026733 L189.403615,178.511948 C189.403615,178.511948 175.164804,173.030563 155.700398,173.488153 C149.41299,171.811938 128.26345,156.876916 128.26345,156.876916 L127.412482,158.774111 L144.084953,170.017148 C144.084953,170.017148 150.551227,175.158979 159.798053,175.671545 C169.045421,176.183033 182.280957,178.355645 189.988994,182.058409 C193.067114,184.612616 194.867156,188.444735 202.189276,193.171554 C209.511939,197.898372 220.845534,205.632677 232.797029,211.361991 C244.749067,217.091843 280.397044,243.415427 291.920346,248.934001 C303.449609,254.448264 309.21126,258.059402 309.21126,258.059402 C309.21126,258.059402 309.048654,261.416683 310.42538,262.462836 C311.807526,263.513839 328.445308,272.486171 332.499602,275.391251 C333.231327,275.795483 333.963051,273.213788 333.963051,273.213788 C333.963051,273.213788 315.460727,263.351607 313.346315,261.336376" id="Fill-14" fill="#FFFFFF"></path>
                                        <path d="M271.011462,291.855402 L294.750763,305.906504 L318.772456,300.56687 L344.490123,344.968783 C344.490123,344.968783 346.582313,346.046196 348.845779,347.096121 C351.108704,348.146585 364.200606,354.318398 371.292368,360.46973 L373.404612,357.468712 C373.404612,357.468712 366.951889,346.646076 351.108704,343.195552 C348.393194,340.944789 347.336259,343.045717 343.866261,335.693547 C340.396262,328.341376 322.440292,299.233443 322.440292,299.233443 L337.982114,274.176453 L427.295288,327.138382 L428.86714,325.054701 L375.418751,294.246838 L376.946699,291.915228 L419.616519,317.257337 L421.619276,313.959882 L378.960296,289.441868 L397.490263,257.257999 L395.71136,255.292354 L377.133154,288.702932 L342.317715,267.468359 L367.992021,224.344896 L396.06042,239.822128 L396.992149,238.76358 L368.657077,222.8902 L375.441516,212.968732 L371.849563,210.984761 L318.771914,297.496324 L295.226113,302.786911 L271.946985,289.03009 L271.011462,291.855402 Z" id="Fill-16" fill="#FFFFFF"></path>
                                        <path d="M130.483826,145.465017 C130.483826,145.465017 123.570929,141.131112 122.669012,137.843359 C121.767636,134.556145 118.161048,124.244996 115.155017,118.715643 C112.149528,113.186289 112.149528,111.24382 110.496373,108.703087 C108.843218,106.162894 91.8617962,85.0921694 91.8617962,85.0921694 L84.7982184,90.3223916 L85.3993163,91.9662681 L91.2606983,87.6329018 C91.2606983,87.6329018 104.334713,101.679692 108.091981,108.703087 C111.84925,115.727021 118.611465,129.624515 120.114481,138.590918 C121.316677,143.671844 129.28163,147.407486 129.28163,147.407486 L130.483826,145.465017 Z" id="Fill-18" fill="#FFFFFF"></path>
                                        <path d="M211.822995,384.483964 C213.342813,382.260688 216.729883,377.234199 217.567843,375.418928 C217.688171,375.157524 218.004167,375.056197 218.258916,375.192558 L222.73219,377.592079 C223.007535,377.739219 223.03843,378.119197 222.788017,378.306222 C221.324027,379.398187 217.01119,382.513468 212.259861,384.97012 C211.948201,385.130735 211.626242,384.772316 211.822995,384.483964 Z M246.68884,345.362397 C246.68884,345.362397 236.840374,359.440448 234.049524,364.204995 C231.903133,367.861947 227.956158,372.921313 226.236336,375.077217 C225.755024,375.680331 224.90785,375.847953 224.229785,375.47552 L219.919117,373.113189 C219.327775,372.789264 219.082241,372.072426 219.35596,371.459072 C224.658521,359.587588 236.070709,338.932415 236.070709,338.932415 L232.861963,337.563416 C232.861963,337.563416 225.940936,349.098039 220.265466,361.516044 C214.590538,373.92812 208.357332,384.351915 208.357332,384.351915 C208.357332,384.351915 196.238353,403.124446 185.744886,420.135064 C175.250876,437.139215 155.797311,494.755201 155.797311,494.755201 C156.160463,500.203709 163.889638,496.231995 163.889638,496.231995 C174.084996,448.753068 202.24337,405.091708 207.03535,397.680789 C211.826789,390.26987 225.529002,383.920734 228.970816,378.989643 C232.40721,374.057475 249.881868,347.135628 249.881868,347.135628 L246.68884,345.362397 Z" id="Fill-20" fill="#FFFFFF"></path>
                                        <path d="M341.970336,181.556892 C339.835327,183.006737 337.932844,184.763799 336.263429,186.720281 C329.834555,194.255165 322.875586,205.050852 322.658237,205.390407 C322.826805,204.948447 330.387955,185.620771 332.96254,183.373241 C335.721411,180.958629 355.770113,159.528947 361.765373,154.834467 C362.643442,154.144577 363.911222,154.128408 364.741052,154.872195 C365.532398,155.583643 365.624541,156.693933 363.445087,159.599014 C361.35886,162.385519 351.135859,175.320941 341.970336,181.556892 M327.57976,185.162641 C322.333568,199.51557 291.9204,248.934271 291.9204,248.934271 L273.980148,278.03358 C273.980148,278.03358 256.52175,306.023138 252.602419,308.857613 C248.684171,311.692626 234.320696,334.599102 234.320696,334.599102 L237.333773,336.032778 C244.287864,322.575088 256.424187,311.892047 256.424187,311.892047 C253.068554,316.829066 251.859854,330.265736 250.862541,334.83679 C249.870648,339.401377 246.689003,345.362451 246.689003,345.362451 L249.882031,347.135682 C249.882031,347.135682 254.683768,336.949576 254.933638,327.93736 C255.182966,318.925683 258.776545,311.854319 258.776545,311.854319 C258.776545,311.854319 323.108112,215.62017 329.959761,203.574058 C336.810325,191.522557 353.298511,178.899741 360.648274,171.332519 C367.938415,163.824585 383.234704,133.965319 383.47265,133.49641 C370.611106,139.7647 332.832456,170.809713 327.57976,185.162641" id="Fill-22" fill="#FFFFFF"></path>
                                        <path d="M322.658291,205.390569 C322.826859,204.948608 330.388009,185.620932 332.962594,183.373403 C335.721466,180.958791 355.770167,159.529108 361.764885,154.834628 C362.643496,154.144739 363.911276,154.12857 364.741106,154.872357 C365.532452,155.583805 365.624595,156.694095 363.445141,159.599175 C361.358372,162.385681 351.135914,175.321103 341.97039,181.557054 C339.83484,183.006899 337.932899,184.763961 336.263483,186.720443 C329.834609,194.255326 322.875098,205.051014 322.658291,205.390569 L322.652871,205.395958" id="Stroke-24" stroke="#FFFFFF"></path>
                                        <path d="M24.8996536,201.888249 C24.8996536,201.888249 34.4494676,160.553109 72.3663324,166.139055 C110.283197,171.725001 130.505886,206.915817 126.573546,228.700684 C122.641748,250.485012 115.338598,263.052853 115.338598,263.052853 L117.585805,264.449878 C117.585805,264.449878 129.663048,245.457445 129.663048,228.420955 C129.663048,211.384466 125.449943,192.392572 104.666265,177.310409 C83.8820455,162.228785 38.3812657,147.147161 24.8996536,201.888249" id="Fill-26" fill="#FFFFFF"></path>
                                        <path d="M43.8361343,128.354634 C43.8361343,128.354634 64.226849,163.001622 69.5722299,165.757406 L72.3663324,166.139001 C72.3663324,166.139001 54.526354,144.299697 43.8361343,128.354634" id="Fill-28" fill="#FFFFFF"></path>
                                        <path d="M113.225813,266.139298 L105.409372,281.684441 C105.409372,281.684441 103.36217,284.645036 103.548624,292.2322 C103.734536,299.819364 103.36217,334.610259 96.8487406,343.122844 L99.640675,344.418004 C99.640675,344.418004 104.215848,337.540132 105.230506,322.574927 C106.245164,307.609722 105.48417,292.729136 105.48417,292.729136 C105.48417,292.729136 104.469513,285.498774 109.119485,278.857513 C113.769457,272.215174 115.967881,267.84354 115.967881,267.84354 L113.225813,266.139298 Z" id="Fill-30" fill="#FFFFFF"></path>
                                        <path d="M364.994933,312.437006 C364.994933,398.323356 294.977056,467.947725 208.606498,467.947725 C122.234855,467.947725 52.2169782,398.323356 52.2169782,312.437006 C52.2169782,226.550116 122.234855,156.925747 208.606498,156.925747 C294.977056,156.925747 364.994933,226.550116 364.994933,312.437006 Z" id="Stroke-32" stroke="#FFFFFF" stroke-dasharray="2.001,4.002"></path>
                                        <polygon id="Fill-34" fill="#FFFFFF" points="212.153842 187.050889 243.363777 134.076025 244.392527 134.530921 213.024865 187.663705"></polygon>
                                        <path d="M248.887211,132.889577 C248.887211,135.47235 246.781471,137.565732 244.184121,137.565732 C241.587313,137.565732 239.481574,135.47235 239.481574,132.889577 C239.481574,130.306805 241.587313,128.213422 244.184121,128.213422 C246.781471,128.213422 248.887211,130.306805 248.887211,132.889577" id="Fill-36" fill="#FFFFFF"></path>
                                        <path d="M254.906537,132.889577 C254.906537,138.810767 250.079325,143.611425 244.124174,143.611425 C238.169565,143.611425 233.341811,138.810767 233.341811,132.889577 C233.341811,126.967849 238.169565,122.167729 244.124174,122.167729 C250.079325,122.167729 254.906537,126.967849 254.906537,132.889577" id="Fill-38" fill="#FFFFFF"></path>
                                        <path d="M300.451925,380.137446 L359.11832,413.482269 L360.768765,411.204018 L358.557332,409.789745 C358.557332,409.789745 377.300854,379.90407 378.980567,371.220629 C377.13337,366.712095 374.950122,371.38825 374.950122,371.38825 C374.950122,371.38825 371.423211,386.249972 355.637481,407.457596 L299.212872,376.398031 L300.451925,380.137446 Z" id="Fill-40" fill="#FFFFFF"></path>
                                        <path d="M45.7030066,316.19038 C45.7030066,316.19038 61.8947085,323.193294 66.5024029,327.775128 C71.1100974,332.356962 119.862443,358.813673 119.862443,358.813673 L121.200685,356.744005 C121.200685,356.744005 81.6631867,336.34754 68.8802356,327.183333 C56.0978266,318.020203 42.7202819,314.177305 42.7202819,314.177305 L45.7030066,316.19038 Z" id="Fill-42" fill="#FFFFFF"></path>
                                        <path d="M50.9270839,280.912682 C50.9270839,280.912682 87.6677698,293.504237 96.9422387,295.45533 C106.216708,297.406423 116.382796,297.583746 126.906074,302.372008 C137.42881,307.160809 149.734786,310.885132 149.734786,310.885132 L148.308195,312.303717 C148.308195,312.303717 126.192237,304.145777 123.873484,302.904516 C121.555273,301.662715 104.254603,299.712162 91.5914376,295.633192 C78.9288146,291.553683 49.1433029,282.153943 49.1433029,282.153943 L50.9270839,280.912682 Z" id="Fill-44" fill="#FFFFFF"></path>
                                        <path d="M214.300721,469.116872 L115.649121,403.320848 L71.0833217,373.865276 C71.0833217,373.865276 48.9343008,356.351254 28.6525316,357.678212 L28.6525316,361.393373 C28.6525316,361.393373 39.3270328,358.209104 56.9399057,371.211897 L19.1319865,428.681282 L21.201411,430.22437 L60.6516445,372.185827 L146.075839,425.914719 L125.001098,458.716253 L84.6830938,432.064973 L78.9561323,430.470682 L123.397267,460.766518 L101.543646,491.565218 L100.791325,492.672814 L125.001098,462.133361 L148.137676,478.762385 L152.032075,478.989832 L126.375113,460.538531 L147.679128,428.192431 L213.167362,470.830815 L214.300721,469.116872 Z" id="Fill-46" fill="#FFFFFF"></path>
                                        <path d="M169.559905,89.7315123 L38.630052,304.869137 L37.6923609,306.411147 C32.7057959,313.853865 37.1340825,318.338145 37.1340825,318.338145 C37.1340825,318.338145 36.2018116,323.690176 32.738317,320.989906 C29.2748224,312.905268 33.9903784,304.185177 33.9903784,304.185177 L165.857922,87.5055418 L169.559905,89.7315123 Z" id="Fill-48" fill="#FFFFFF"></path>
                                        <path d="M38.630323,304.869245 C38.3972553,305.306354 38.088305,305.817842 37.6926319,306.410716 L38.630323,304.869245 Z" id="Fill-50" fill="#FFFFFF"></path>
                                        <path d="M280.269182,407.934698 C280.269182,410.102459 278.501662,411.860059 276.321666,411.860059 C274.140585,411.860059 272.373607,410.102459 272.373607,407.934698 C272.373607,405.766398 274.140585,404.008797 276.321666,404.008797 C278.501662,404.008797 280.269182,405.766398 280.269182,407.934698 Z" id="Stroke-52" stroke="#FFFFFF"></path>
                                        <path d="M287.671142,407.934698 C287.671142,414.167415 282.589724,419.219775 276.321828,419.219775 C270.053391,419.219775 264.971973,414.167415 264.971973,407.934698 C264.971973,401.70198 270.053391,396.649081 276.321828,396.649081 C282.589724,396.649081 287.671142,401.70198 287.671142,407.934698 Z" id="Stroke-54" stroke="#FFFFFF"></path>
                                        <path d="M381.491574,360.469569 C381.491574,363.270087 379.208594,365.540254 376.392269,365.540254 C373.575944,365.540254 371.292422,363.270087 371.292422,360.469569 C371.292422,357.66905 373.575944,355.398883 376.392269,355.398883 C379.208594,355.398883 381.491574,357.66905 381.491574,360.469569" id="Fill-56" fill="#FFFFFF"></path>
                                        <path d="M387.51464,360.469569 C387.51464,366.578322 382.534579,371.529893 376.39189,371.529893 C370.249201,371.529893 365.26914,366.578322 365.26914,360.469569 C365.26914,354.361355 370.249201,349.409244 376.39189,349.409244 C382.534579,349.409244 387.51464,354.361355 387.51464,360.469569" id="Fill-58" fill="#FFFFFF"></path>
                                        <path d="M329.799811,207.371682 C329.799811,211.048576 326.802452,214.029113 323.104806,214.029113 C319.407159,214.029113 316.4098,211.048576 316.4098,207.371682 C316.4098,203.694789 319.407159,200.713713 323.104806,200.713713 C326.802452,200.713713 329.799811,203.694789 329.799811,207.371682" id="Fill-60" fill="#FFFFFF"></path>
                                        <path d="M97.0933533,391.377519 C97.0933533,391.377519 121.961678,354.813394 131.236689,340.624314 C140.5117,326.435234 162.153392,289.54395 162.153392,289.54395 L165.718786,284.916842 C165.718786,284.916842 170.776898,274.242424 182.506708,275.614656 C194.235976,276.986889 234.116572,303.744887 234.116572,303.744887 C234.116572,303.744887 247.848596,311.651125 254.625446,303.025893 C261.402297,294.400662 318.325562,211.112714 318.325562,211.112714 L323.105077,214.029113 L257.142578,305.183953 C257.142578,305.183953 249.615033,315.415871 237.046721,309.441862 C224.478409,303.467314 197.362877,285.300592 197.362877,285.300592 L188.493838,280.533351 C188.493838,280.533351 175.55045,275.646995 169.678227,284.823599 C163.806005,293.999664 125.330862,356.177542 125.330862,356.177542 L100.243562,393.163147 L97.0933533,391.377519 Z" id="Fill-66" fill="#FFFFFF"></path>
                                        <polygon id="Fill-68" fill="#FFFFFF" points="168.857775 84.3917702 192.542875 43.5983004 194.417173 44.6746353 170.732073 85.4681051"></polygon>
                                        <path d="M278.409194,383.793428 L277.77449,384.920965 C277.77449,384.920965 276.985854,385.914837 277.985335,386.385363 C278.984817,386.855889 285.243498,391.301901 285.243498,391.301901 C285.243498,391.301901 286.242437,392.608918 287.400187,390.673994 C288.557395,388.739071 295.499561,377.75582 295.499561,377.75582 C295.499561,377.75582 295.868133,377.023351 294.658349,376.343703 C293.448565,375.663515 285.822373,371.00838 285.822373,371.00838 C285.822373,371.00838 284.769774,370.590674 284.191441,372.055071 C283.613108,373.519469 278.409194,383.793428 278.409194,383.793428 Z" id="Stroke-70" stroke="#FFFFFF"></path>
                                        <path d="M52.7931975,141.024233 C52.7931975,141.024233 95.7421568,120.929055 82.3212506,87.882825 L83.4009504,87.2753991 C83.4009504,87.2753991 101.088622,116.716958 53.926557,142.84166 C53.1216603,143.175286 52.7931975,141.024233 52.7931975,141.024233" id="Fill-72" fill="#FFFFFF"></path>
                                        <path d="M212.177637,189.237299 C212.177637,189.237299 226.970932,197.544535 238.805894,205.332198 C250.640856,213.120399 337.832571,268.525506 337.832571,268.525506 L336.962632,269.736585 L211.829119,190.621928 C211.829119,190.621928 209.392749,189.583321 212.177637,189.237299" id="Fill-74" fill="#FFFFFF"></path>
                                    </g>
                                </g>
                            </g>
                        </g>
                    </g>
                    <g id="Group-3" transform="translate(239.152291, 268.134810)">
                        <mask id="mask-2" fill="white">
                            <use xlink:href="#path-1"></use>
                        </mask>
                        <g id="Clip-2"></g>
                    </g>
                </g>
                <g id="Group-2" transform="translate(295.802272, 347.000000)" fill="#6EB7EB">
                    <circle id="Oval" cx="3" cy="3" r="3"></circle>
                    <circle id="Oval-Copy-3" cx="13" cy="7" r="3"></circle>
                    <circle id="Oval-Copy-5" cx="22" cy="11" r="3"></circle>
                </g>
                <g id="Rectangle-Copy-8">
                    <use fill="black" fill-opacity="1" filter="url(#filter-5)" xlink:href="#path-4"></use>
                    <use fill="url(#linearGradient-3)" fill-rule="evenodd" xlink:href="#path-4"></use>
                </g>
                <text id="Découvertes" font-family="Avenir-Book, Avenir" font-size="16" font-weight="normal" line-spacing="25.5" fill="#FFFFFF">
                    <tspan x="233.802272" y="319">Découvertes</tspan>
                </text>
                <g id="noun_magnifying_2011176" transform="translate(402.802272, 308.000000)"></g>
                <path d="M422.517911,326.304371 L417.799639,321.586098 C420.390476,318.300158 420.179839,313.49763 417.146663,310.464455 C413.860723,307.178515 408.531603,307.178515 405.266727,310.464455 C401.980787,313.729331 401.980787,319.058452 405.266727,322.344392 C408.299902,325.377567 413.10243,325.588204 416.38837,322.997367 L421.106642,327.71564 C421.485789,328.094787 422.117701,328.094787 422.517911,327.71564 C422.918122,327.336493 422.918122,326.704581 422.517911,326.304371 Z M406.677996,320.933123 C404.171413,318.42654 404.171413,314.361243 406.677996,311.875724 C409.163514,309.369142 413.228812,309.369142 415.735394,311.875724 C418.241977,314.382306 418.241977,318.447604 415.735394,320.933123 C413.228812,323.439705 409.163514,323.439705 406.677996,320.933123 Z" id="Shape" fill="url(#linearGradient-6)" fill-rule="nonzero"></path>
                <g id="Group-8" transform="translate(273.802272, 374.000000)">
                    <g id="Rectangle-Copy-7">
                        <use fill="black" fill-opacity="1" filter="url(#filter-9)" xlink:href="#path-8"></use>
                        <use fill="url(#linearGradient-7)" fill-rule="evenodd" xlink:href="#path-8"></use>
                    </g>
                    <path d="M209.130925,42.6602023 L196.528845,34.2728649 C195.454086,33.5563587 194,34.336086 194,35.6215825 L194,52.3751836 C194,53.6817538 195.454086,54.4404074 196.528845,53.7239012 L209.130925,45.3365638 C210.079242,44.7254261 210.079242,43.2924137 209.130925,42.6602023 Z" id="Path" fill="url(#linearGradient-10)"></path>
                    <text id="Reprendre-la-lecture" font-family="Avenir-Book, Avenir" font-size="16" font-weight="normal" line-spacing="25.5" fill="#FFFFFF">
                        <tspan x="20" y="32">Reprendre la </tspan>
                        <tspan x="20" y="57.5">lecture</tspan>
                    </text>
                </g>
                <g id="Group-6" transform="translate(213.802272, 476.000000)">
                    <g id="Rectangle">
                        <use fill="black" fill-opacity="1" filter="url(#filter-13)" xlink:href="#path-12"></use>
                        <use fill="url(#linearGradient-11)" fill-rule="evenodd" xlink:href="#path-12"></use>
                    </g>
                    <path d="M209.870242,54 L191,54 C191,49.9288274 193.614121,46.3147689 197.485307,45.0362779 C198.120981,44.8291481 198.463816,44.1506193 198.256687,43.514945 C198.170978,43.2506759 197.99956,43.028547 197.771003,42.8785564 C197.22818,42.521436 196.756781,42.0500371 196.392518,41.5000717 C194.928324,39.2716403 195.542572,36.2646865 197.771003,34.8004929 C200.006577,33.3284426 203.006388,33.9434039 204.477724,36.1789777 C205.941918,38.407409 205.327671,41.4072204 203.099239,42.8785564 C202.534989,43.2506759 202.384998,43.9999145 202.749261,44.5577365 C202.899252,44.7855794 203.120666,44.950569 203.384936,45.0362779 C207.256121,46.3147689 209.870242,49.9288274 209.870242,54 Z" id="Path" fill="url(#linearGradient-14)"></path>
                    <text id="Conçu-spécialement-p" font-family="Avenir-Book, Avenir" font-size="16" font-weight="normal" line-spacing="25.5" fill="#FFFFFF">
                        <tspan x="20" y="32">Conçu spécialement</tspan>
                        <tspan x="20" y="57.5">pour vous</tspan>
                    </text>
                </g>
                <g id="Group-5" transform="translate(273.802272, 578.000000)">
                    <g id="Rectangle">
                        <use fill="black" fill-opacity="1" filter="url(#filter-17)" xlink:href="#path-16"></use>
                        <use fill="url(#linearGradient-15)" fill-rule="evenodd" xlink:href="#path-16"></use>
                    </g>
                    <path d="M193.071429,34 C191.392857,34 189.875,34.6785714 188.785714,35.7857143 C187.678571,36.875 187,38.3928571 187,40.0714286 C187,41.75 187.678571,43.2678571 188.785714,44.3571429 L198.428571,54 L208.071429,44.3571429 C209.178571,43.25 209.857143,41.7321429 209.857143,40.0714286 C209.857143,38.3928571 209.178571,36.875 208.071429,35.7857143 C206.964286,34.6785714 205.446429,34 203.785714,34 C202.107143,34 200.589286,34.6785714 199.5,35.7857143 C199.071429,36.2142857 198.714286,36.6964286 198.428571,37.2142857 C198.142857,36.6785714 197.785714,36.1964286 197.357143,35.7857143 C196.267857,34.6785714 194.75,34 193.071429,34 Z" id="Path" fill="url(#linearGradient-18)"></path>
                    <text id="Vos-favoris-du-momen" font-family="Avenir-Book, Avenir" font-size="16" font-weight="normal" line-spacing="25.5" fill="#FFFFFF">
                        <tspan x="20" y="34">Vos favoris du </tspan>
                        <tspan x="20" y="59.5">moment</tspan>
                    </text>
                </g>
            </g>
        </g>
    </g>
</svg>