<?xml version="1.0" encoding="UTF-8"?>
<svg width="525px" height="787px" viewBox="0 0 525 787" version="1.1" xmlns="http://www.w3.org/2000/svg" xmlns:xlink="http://www.w3.org/1999/xlink">
    <!-- Generator: sketchtool 52.2 (67145) - http://www.bohemiancoding.com/sketch -->
    <title>57F71603-0350-4F46-B766-05B0508A738F</title>
    <desc>Created with sketchtool.</desc>
    <defs>
        <polygon id="path-1" points="0 0 152.563339 0 152.563339 15.2982161 0 15.2982161"></polygon>
        <linearGradient x1="50%" y1="0%" x2="50%" y2="100%" id="linearGradient-3">
            <stop stop-color="#AA9DF9" offset="0%"></stop>
            <stop stop-color="#97B5F6" stop-opacity="0.3" offset="100%"></stop>
        </linearGradient>
        <path d="M164.741152,375 L18.6490995,375 C8.34968578,375 0,366.66874 0,356.392055 L0,18.6079454 C0,8.33126003 8.34968578,0 18.6490995,0 L164.741152,0 C175.040566,0 183.390252,8.33126003 183.390252,18.6079454 L183.390252,356.392055 C183.390252,366.66874 175.040566,375 164.741152,375" id="path-4"></path>
        <filter x="-25.1%" y="-11.7%" width="150.2%" height="124.5%" filterUnits="objectBoundingBox" id="filter-5">
            <feOffset dx="0" dy="2" in="SourceAlpha" result="shadowOffsetOuter1"></feOffset>
            <feGaussianBlur stdDeviation="15" in="shadowOffsetOuter1" result="shadowBlurOuter1"></feGaussianBlur>
            <feColorMatrix values="0 0 0 0 0.666666667   0 0 0 0 0.666666667   0 0 0 0 0.823529412  0 0 0 0.3 0" type="matrix" in="shadowBlurOuter1"></feColorMatrix>
        </filter>
        <path d="M18.5403464,361.357914 C8.30099422,361.357914 0,350.959671 0,338.133344 L0,23.2245708 C0,10.398243 8.30099422,0 18.5403464,0 L152.985146,0 C163.224499,0 171.525493,10.398243 171.525493,23.2245708 L171.525493,338.133344 C171.525493,350.959671 163.224499,361.357914 152.985146,361.357914 L18.5403464,361.357914 Z" id="path-6"></path>
        <rect id="path-8" x="0" y="0" width="188.22839" height="392" rx="10"></rect>
        <filter x="-164.7%" y="-66.3%" width="461.3%" height="273.5%" filterUnits="objectBoundingBox" id="filter-9">
            <feOffset dx="30" dy="80" in="SourceAlpha" result="shadowOffsetOuter1"></feOffset>
            <feGaussianBlur stdDeviation="100" in="shadowOffsetOuter1" result="shadowBlurOuter1"></feGaussianBlur>
            <feColorMatrix values="0 0 0 0 0   0 0 0 0 0   0 0 0 0 0  0 0 0 0.18 0" type="matrix" in="shadowBlurOuter1"></feColorMatrix>
        </filter>
        <linearGradient x1="109.687497%" y1="-2.67781224%" x2="29.6877191%" y2="106.328871%" id="linearGradient-10">
            <stop stop-color="#832BFA" offset="0%"></stop>
            <stop stop-color="#64F8E4" offset="100%"></stop>
        </linearGradient>
        <linearGradient x1="118.329561%" y1="140.812177%" x2="20.4559836%" y2="0%" id="linearGradient-11">
            <stop stop-color="#D0D0F6" offset="0%"></stop>
            <stop stop-color="#FFFFFF" offset="100%"></stop>
        </linearGradient>
        <linearGradient x1="-98.2877968%" y1="0%" x2="50%" y2="83.8708997%" id="linearGradient-12">
            <stop stop-color="#B29FF2" offset="0%"></stop>
            <stop stop-color="#7B66E0" offset="100%"></stop>
        </linearGradient>
        <linearGradient x1="50%" y1="0%" x2="50%" y2="100%" id="linearGradient-13">
            <stop stop-color="#B29FF2" offset="0%"></stop>
            <stop stop-color="#7B66E0" offset="100%"></stop>
        </linearGradient>
        <linearGradient x1="0%" y1="-117.236946%" x2="151.777623%" y2="100%" id="linearGradient-14">
            <stop stop-color="#8628EC" offset="0%"></stop>
            <stop stop-color="#64F8C5" offset="100%"></stop>
        </linearGradient>
        <rect id="path-15" x="0" y="0" width="155" height="57" rx="5"></rect>
        <filter x="-81.9%" y="-219.3%" width="263.9%" height="545.6%" filterUnits="objectBoundingBox" id="filter-16">
            <feOffset dx="0" dy="2" in="SourceAlpha" result="shadowOffsetOuter1"></feOffset>
            <feGaussianBlur stdDeviation="42" in="shadowOffsetOuter1" result="shadowBlurOuter1"></feGaussianBlur>
            <feColorMatrix values="0 0 0 0 0.666666667   0 0 0 0 0.666666667   0 0 0 0 0.823529412  0 0 0 0.3 0" type="matrix" in="shadowBlurOuter1"></feColorMatrix>
        </filter>
        <polygon id="path-17" points="2.98563472e-05 0.15396863 21.290258 0.15396863 21.290258 33.0712761 2.98563472e-05 33.0712761"></polygon>
    </defs>
    <g id="Page-2" stroke="none" stroke-width="1" fill="none" fill-rule="evenodd">
        <g id="Assets" transform="translate(-914.000000, -1140.000000)">
            <g id="Group-16" transform="translate(786.000000, 997.000000)">
                <g id="Group-3-Copy-3" opacity="0.6" transform="translate(50.000000, 234.000000)"></g>
                <g id="Group-2" opacity="0.5" transform="translate(406.621940, 434.795230) rotate(168.000000) translate(-406.621940, -434.795230) translate(70.199421, 61.795230)">
                    <g id="Group-3" transform="translate(0.846725, 0.089525)">
                        <g id="Group-8-Copy-2" transform="translate(-0.000000, 0.000000)">
                            <g transform="translate(335.869200, 372.756319) scale(-1, 1) rotate(23.000000) translate(-335.869200, -372.756319) translate(100.147651, 68.847118)" id="Group-77">
                                <g transform="translate(0.000000, -0.000000)">
                                    <polygon id="Fill-2" fill="#FFFFFF" points="419.990021 250.218615 417.765429 253.913029 0.33149424 3.81089866 2.55662701 0.117564377"></polygon>
                                    <polygon id="Fill-3" fill="#FFFFFF" points="171.818258 103.072328 169.878349 101.995198 194.392559 61.1721337 196.332468 62.2487243"></polygon>
                                    <g id="Group-76" transform="translate(41.915126, 109.966344)">
                                        <path d="M272.770906,60.7239366 C268.998461,57.7056715 259.800417,47.3627238 253.085357,45.1690918 C246.363792,42.9754598 223.734543,41.7843231 220.146385,42.792208 C220.146385,42.792208 228.699428,38.4911803 231.463719,38.4911803 C234.22259,38.4911803 248.667368,38.5828062 266.608162,48.9203641 C273.324306,52.5800106 279.394907,57.0642902 279.394907,57.0642902 C279.394907,57.0642902 281.05294,57.9751595 279.670794,59.6244257 C278.294069,61.273692 276.543351,63.7422017 272.770906,60.7239366 Z M264.646599,61.9096836 C264.646599,61.9096836 259.708274,56.39596 243.789207,53.5932853 C227.87556,50.7852208 216.591289,51.0870473 215.079059,46.7806298 C215.079059,46.7806298 225.45274,44.3767972 243.995174,46.7806298 C257.491962,48.8826358 257.393857,50.3863786 261.220504,55.0970281 C265.047151,59.8022878 266.158829,60.2065197 266.158829,60.2065197 L264.646599,61.9096836 Z M222.920974,36.9486312 C222.157271,37.2989656 220.566449,38.0740129 219.404904,38.9471539 C219.191891,39.1072297 218.887819,38.990272 218.839579,38.7294076 C218.611932,37.5026984 218.094305,34.6612174 217.909477,33.2512565 C217.879124,33.015185 218.164225,32.8745123 218.334961,33.0415948 C219.220618,33.9082681 221.157248,35.6906614 222.928563,36.5551788 C223.094962,36.6360252 223.089,36.8715577 222.920974,36.9486312 Z M278.006799,72.0100922 C276.093476,71.007597 275.893471,71.7082657 276.093476,75.1145934 C276.294023,78.5155314 272.971453,80.4181164 272.971453,80.4181164 C270.152959,79.620432 267.735559,77.0171784 267.735559,77.0171784 C270.754599,69.105012 274.884776,67.5042536 277.405701,67.5042536 C279.920123,67.5042536 281.936429,63.197836 283.443239,59.6944926 C284.955469,56.1857594 295.530239,46.1769768 298.549821,40.668643 C301.568319,35.1603091 307.915891,31.0533127 307.915891,31.0533127 C307.915891,31.0533127 307.611819,30.0508175 306.706649,29.5549597 C305.818282,29.0591018 298.083144,37.1167917 297.850618,37.3593309 C298.056043,37.0790634 305.276264,27.1403476 303.785714,26.5474741 C300.663149,25.0491211 301.939601,23.2074404 301.939601,23.2074404 C301.939601,23.2074404 301.337419,23.4629149 300.930906,28.7718277 C300.529813,34.0753506 283.421559,53.7927064 283.421559,53.7927064 C282.494708,52.7902112 281.567857,54.0406353 281.567857,54.0406353 C276.689696,50.3594298 267.074298,44.694793 250.15304,37.7743423 C233.23666,30.8538916 225.735132,35.0848525 225.735132,35.0848525 C217.138185,31.9264537 216.949021,24.7688536 217.322471,17.5250173 C217.697006,10.2811811 215.734901,3.87275751 215.550615,3.22059666 C215.360366,2.56843581 214.244351,1.64139724 214.244351,3.59249004 C216.206456,8.04982082 216.016208,19.567736 215.831922,26.0731753 C215.642758,32.5732248 217.046042,38.5181291 217.420034,40.6578634 C217.794027,42.792208 211.718006,43.9078882 205.647405,43.5359948 C192.287205,43.1641014 181.734115,36.1951429 179.305333,33.0367441 C176.877093,29.8783452 172.113297,4.16919426 171.516535,2.13725508 C170.920316,0.105315893 170.242793,0.277788185 168.963631,0.444870717 C167.689889,0.611953249 167.624847,1.78692074 167.624847,1.78692074 L171.126282,17.0561083 C168.464974,17.0561083 165.90123,14.1779769 165.744586,14.0001149 C167.066568,16.4039474 170.578844,17.9292493 170.578844,17.9292493 C171.126282,18.6945951 173.549103,20.3384716 173.549103,20.3384716 L175.749695,30.8377223 C175.749695,30.8377223 167.495304,29.7436012 163.646435,27.4475639 C159.798108,25.1515265 139.775965,8.19534432 139.775965,8.19534432 C142.746223,15.5200269 156.605622,27.4475639 156.605622,27.4475639 L124.073705,22.6237295 L123.62383,24.2244879 L126.220096,24.8497 L175.614191,35.8825369 L176.687386,36.3298869 C176.687386,36.3298869 180.443571,40.5069502 187.603628,43.0024086 C189.159219,43.5413846 190.671449,43.9725653 192.124057,44.3175099 C192.882882,44.4899822 193.625447,44.6462852 194.351751,44.7810292 C198.612554,45.5787135 202.211011,45.6972882 204.60673,45.9398274 C208.184591,46.2955515 210.330982,48.3382702 214.092044,50.6504768 C217.848229,52.9680732 224.201221,53.0543094 224.201221,53.0543094 C224.201221,53.0543094 242.288359,54.9245558 251.832753,58.1907498 C261.372811,61.4569438 264.862864,66.3562349 264.862864,66.3562349 L267.843963,62.4702185 C270.429931,65.6609559 274.467422,65.9681722 274.467422,65.9681722 C274.467422,65.9681722 272.397456,66.2807782 269.50308,69.5739211 C266.602742,72.8616741 266.098665,75.5296049 265.399462,76.9201627 C264.700259,78.3107206 250.082577,102.532298 248.548667,104.995418 C247.019634,107.458538 248.168712,108.267002 248.168712,108.267002 C248.168712,108.267002 251.827333,109.145532 251.827333,113.67293 C251.827333,118.194938 243.176727,130.877041 243.176727,130.877041 L245.285177,132.639492 C245.285177,132.639492 250.499389,123.487681 253.046873,120.178369 C255.599778,116.869057 254.71141,110.800188 255.047462,110.029453 C266.467238,95.5795088 271.860316,86.848099 271.860316,86.848099 C271.860316,86.848099 278.348271,78.3322796 278.044741,75.7613645 C277.741211,73.1958392 278.538519,74.0905392 278.538519,74.0905392 L376.448097,131.723233 L377.483351,129.664345 C377.483351,129.664345 279.920123,73.0071976 278.006799,72.0100922 Z" id="Fill-4" fill="#FFFFFF"></path>
                                        <path d="M120.60311,192.667503 L135.100464,198.341842 C135.100464,198.341842 138.030613,200.028836 140.498421,205.243428 C142.966228,210.457481 147.438418,215.672073 149.135476,217.971883 C150.831451,220.272772 161.165023,235.7624 161.165023,235.7624 C161.165023,235.7624 163.941238,240.823384 166.100096,242.050093 C168.259495,243.276802 176.98219,250.649993 176.98219,250.649993 L177.513368,246.803861 C177.513368,246.803861 169.493128,242.663448 166.408504,238.982781 C163.32388,235.302115 152.374034,218.892454 152.374034,218.892454 C152.374034,218.892454 150.594047,215.744296 148.612971,213.478441 C146.631354,211.213125 140.390559,200.771006 140.390559,200.771006 C140.390559,200.771006 139.993802,197.913895 135.040842,195.943938 C130.087882,193.973981 119.388448,190.722878 116.515211,187.669041 C113.642516,184.615203 120.60311,192.667503 120.60311,192.667503" id="Fill-6" fill="#FFFFFF"></path>
                                        <path d="M199.476747,189.944705 L195.958509,195.53119 C195.958509,195.53119 181.490966,213.337337 180.423733,224.540491 C179.355958,235.743105 179.000394,259.091541 179.000394,259.091541 C179.000394,259.091541 179.712063,266.99185 172.715154,275.954481 L165.718786,284.916572 C165.718786,284.916572 176.154258,270.058623 176.509821,262.393308 C176.865927,254.727992 177.93316,225.129591 177.93316,225.129591 C177.93316,225.129591 177.93316,220.884617 180.423733,215.931967 C182.913763,210.978779 188.369174,201.309551 191.452172,197.771713 C194.535712,194.233875 198.330379,187.630342 198.330379,187.630342 L199.476747,189.944705 Z" id="Fill-8" fill="#FFFFFF"></path>
                                        <path d="M208.074399,196.945894 C208.074399,196.945894 198.871476,212.107286 200.010798,230.067581 C200.824367,239.45169 204.404395,243.82009 204.404395,245.438096 C204.404395,247.056101 209.611019,263.236697 209.123203,267.76679 L207.170313,268.899178 C207.170313,268.899178 206.682496,262.912773 204.567,254.499359 C202.451504,246.085406 197.407486,232.979668 197.733238,229.096346 C198.058449,225.213025 197.358704,213.877283 206.145357,195.755296 C208.424,195.755296 208.074399,196.945894 208.074399,196.945894" id="Fill-10" fill="#FFFFFF"></path>
                                        <path d="M184.677381,304.628161 L208.518582,270.560032 L257.760912,300.346536 L258.625972,298.91286 L209.122932,267.76652 L207.170584,268.899448 L183.964628,302.209776 L0.197240327,196.367842 L104.786647,261.199099 L153.259312,290.538253 L232.862234,337.563901 L236.068812,338.930744 C236.068812,338.930744 240.118228,340.757333 241.087898,341.507588 C242.05811,342.257303 244.428355,344.507527 246.691279,345.365038 C248.954204,346.222549 256.712649,352.544197 256.712649,352.544197 C256.712649,352.544197 259.083436,354.365936 263.178381,357.151902 C267.272785,359.937869 282.35877,369.259996 282.35877,369.259996 L275.091935,385.580726 C275.091935,385.580726 274.104921,387.016019 275.16836,387.695667 C276.231799,388.375855 278.813972,389.735152 278.813972,389.735152 C278.813972,389.735152 279.801529,390.037518 278.585783,391.69918 C277.370579,393.360843 272.357455,401.669696 272.357455,401.669696 L271.709201,402.931438 C271.709201,402.931438 271.456079,403.63049 270.547657,402.992881 C269.638693,402.354734 261.82713,398.76731 259.681823,397.022645 C257.537058,395.276902 249.249062,391.593002 248.469098,390.913892 C247.688592,390.235322 230.235615,379.473051 228.967835,378.988511 C230.138594,377.4368 224.328703,376.935013 227.563466,380.489559 C229.056726,382.230451 236.016778,385.076783 237.122495,386.305648 C238.228211,387.534513 252.204144,394.396755 255.931601,397.231229 C259.659601,400.065703 265.360545,402.682431 265.360545,402.682431 C265.360545,402.682431 266.129669,403.501675 265.510684,404.855582 C264.892242,406.210029 247.732496,435.273766 247.732496,435.273766 C247.732496,435.273766 246.694532,436.554372 248.467472,437.777848 C250.240413,439.001323 253.171104,440.656518 253.171104,440.656518 C253.171104,440.656518 254.365169,442.095584 256.137568,440.224259 C257.911051,438.353474 275.972172,410.266361 275.972172,410.266361 C275.972172,410.266361 276.698476,409.234762 277.735357,409.853506 C278.772779,410.472789 316.478799,433.949502 316.478799,433.949502 C316.478799,433.949502 319.689171,435.54541 320.418727,437.141856 C321.148825,438.737764 326.547866,456.876459 326.547866,456.876459 L322.462135,436.706903 C322.462135,436.706903 322.462135,435.690933 319.543368,433.514548 C316.625144,431.337625 278.101219,407.395776 278.101219,407.395776 C278.101219,407.395776 275.64913,406.353935 273.600844,409.9198 C271.552016,413.484587 256.612918,436.31884 256.612918,436.31884 C256.612918,436.31884 255.332671,439.290214 253.454579,438.525946 C251.576487,437.762218 249.612756,436.99795 250.295699,435.555111 C250.979183,434.111734 267.795832,407.287981 267.795832,407.287981 C267.795832,407.287981 268.735149,405.590206 270.186131,406.608871 C271.637113,407.627535 277.267053,406.433165 276.186812,405.627396 C275.106028,404.821627 274.565636,405.090576 276.996586,400.524911 C279.426995,395.959246 281.047628,393.273529 281.047628,393.273529 C281.047628,393.273529 282.061744,391.93633 283.630886,393.106446 C285.199486,394.276563 286.152353,394.722296 286.152353,394.722296 C286.152353,394.722296 287.889521,395.836898 289.290095,393.663208 C290.691212,391.490597 298.288135,379.647679 298.288135,379.647679 C298.288135,379.647679 299.370003,379.45257 300.451871,380.137608 C301.533738,380.821568 302.752195,378.77885 302.552732,378.281914 C302.353269,377.785517 283.498634,367.145594 280.241648,364.746612 C276.985204,362.348169 262.873225,354.312038 259.013515,351.193524 C255.153806,348.07447 249.846366,344.476806 249.846366,344.476806 C249.846366,344.476806 246.387749,341.170189 243.459769,339.331203 C240.530704,337.492217 231.282794,333.50649 224.500523,328.755417 C217.718253,324.003806 188.782625,306.557156 184.677381,304.628161" id="Fill-12" fill="#FFFFFF"></path>
                                        <path d="M206.918925,193.313304 L200.442352,188.743327 C200.177306,188.556842 200.099255,188.201657 200.260776,187.921928 L201.386548,185.974069 C201.488989,185.795668 201.716095,185.732608 201.897129,185.831241 L208.90271,189.661203 C209.153123,189.798103 209.25177,190.105859 209.127106,190.361872 L207.79591,193.089629 C207.636014,193.417327 207.218119,193.524044 206.918925,193.313304 M197.971835,186.987344 L195.780456,184.951632 C195.634111,184.815271 195.749019,184.571654 195.94794,184.597525 L199.258043,185.02116 C199.446123,185.045414 199.550733,185.249147 199.4613,185.414612 L198.670496,186.873081 C198.531197,187.129634 198.186474,187.186226 197.971835,186.987344 M313.346315,261.336376 C311.238407,259.315216 312.457947,257.946218 308.804746,255.768755 C305.151003,253.585902 299.612122,250.104118 299.612122,250.104118 L293.340433,244.606564 C293.340433,244.606564 262.733222,226.637107 255.73035,220.950372 C248.721516,215.269566 233.967788,208.301146 225.491169,203.53606 C217.008047,198.766662 210.368327,194.551332 210.368327,194.551332 L213.024757,187.663759 L205.240837,183.087314 L235.702245,129.346026 L231.903241,126.829009 L200.660786,183.297515 L192.466016,179.80549 L225.810418,123.530476 L223.924195,122.026733 L189.403615,178.511948 C189.403615,178.511948 175.164804,173.030563 155.700398,173.488153 C149.41299,171.811938 128.26345,156.876916 128.26345,156.876916 L127.412482,158.774111 L144.084953,170.017148 C144.084953,170.017148 150.551227,175.158979 159.798053,175.671545 C169.045421,176.183033 182.280957,178.355645 189.988994,182.058409 C193.067114,184.612616 194.867156,188.444735 202.189276,193.171554 C209.511939,197.898372 220.845534,205.632677 232.797029,211.361991 C244.749067,217.091843 280.397044,243.415427 291.920346,248.934001 C303.449609,254.448264 309.21126,258.059402 309.21126,258.059402 C309.21126,258.059402 309.048654,261.416683 310.42538,262.462836 C311.807526,263.513839 328.445308,272.486171 332.499602,275.391251 C333.231327,275.795483 333.963051,273.213788 333.963051,273.213788 C333.963051,273.213788 315.460727,263.351607 313.346315,261.336376" id="Fill-14" fill="#FFFFFF"></path>
                                        <path d="M271.011462,291.855402 L294.750763,305.906504 L318.772456,300.56687 L344.490123,344.968783 C344.490123,344.968783 346.582313,346.046196 348.845779,347.096121 C351.108704,348.146585 364.200606,354.318398 371.292368,360.46973 L373.404612,357.468712 C373.404612,357.468712 366.951889,346.646076 351.108704,343.195552 C348.393194,340.944789 347.336259,343.045717 343.866261,335.693547 C340.396262,328.341376 322.440292,299.233443 322.440292,299.233443 L337.982114,274.176453 L427.295288,327.138382 L428.86714,325.054701 L375.418751,294.246838 L376.946699,291.915228 L419.616519,317.257337 L421.619276,313.959882 L378.960296,289.441868 L397.490263,257.257999 L395.71136,255.292354 L377.133154,288.702932 L342.317715,267.468359 L367.992021,224.344896 L396.06042,239.822128 L396.992149,238.76358 L368.657077,222.8902 L375.441516,212.968732 L371.849563,210.984761 L318.771914,297.496324 L295.226113,302.786911 L271.946985,289.03009 L271.011462,291.855402 Z" id="Fill-16" fill="#FFFFFF"></path>
                                        <path d="M130.483826,145.465017 C130.483826,145.465017 123.570929,141.131112 122.669012,137.843359 C121.767636,134.556145 118.161048,124.244996 115.155017,118.715643 C112.149528,113.186289 112.149528,111.24382 110.496373,108.703087 C108.843218,106.162894 91.8617962,85.0921694 91.8617962,85.0921694 L84.7982184,90.3223916 L85.3993163,91.9662681 L91.2606983,87.6329018 C91.2606983,87.6329018 104.334713,101.679692 108.091981,108.703087 C111.84925,115.727021 118.611465,129.624515 120.114481,138.590918 C121.316677,143.671844 129.28163,147.407486 129.28163,147.407486 L130.483826,145.465017 Z" id="Fill-18" fill="#FFFFFF"></path>
                                        <path d="M211.822995,384.483964 C213.342813,382.260688 216.729883,377.234199 217.567843,375.418928 C217.688171,375.157524 218.004167,375.056197 218.258916,375.192558 L222.73219,377.592079 C223.007535,377.739219 223.03843,378.119197 222.788017,378.306222 C221.324027,379.398187 217.01119,382.513468 212.259861,384.97012 C211.948201,385.130735 211.626242,384.772316 211.822995,384.483964 Z M246.68884,345.362397 C246.68884,345.362397 236.840374,359.440448 234.049524,364.204995 C231.903133,367.861947 227.956158,372.921313 226.236336,375.077217 C225.755024,375.680331 224.90785,375.847953 224.229785,375.47552 L219.919117,373.113189 C219.327775,372.789264 219.082241,372.072426 219.35596,371.459072 C224.658521,359.587588 236.070709,338.932415 236.070709,338.932415 L232.861963,337.563416 C232.861963,337.563416 225.940936,349.098039 220.265466,361.516044 C214.590538,373.92812 208.357332,384.351915 208.357332,384.351915 C208.357332,384.351915 196.238353,403.124446 185.744886,420.135064 C175.250876,437.139215 155.797311,494.755201 155.797311,494.755201 C156.160463,500.203709 163.889638,496.231995 163.889638,496.231995 C174.084996,448.753068 202.24337,405.091708 207.03535,397.680789 C211.826789,390.26987 225.529002,383.920734 228.970816,378.989643 C232.40721,374.057475 249.881868,347.135628 249.881868,347.135628 L246.68884,345.362397 Z" id="Fill-20" fill="#FFFFFF"></path>
                                        <path d="M341.970336,181.556892 C339.835327,183.006737 337.932844,184.763799 336.263429,186.720281 C329.834555,194.255165 322.875586,205.050852 322.658237,205.390407 C322.826805,204.948447 330.387955,185.620771 332.96254,183.373241 C335.721411,180.958629 355.770113,159.528947 361.765373,154.834467 C362.643442,154.144577 363.911222,154.128408 364.741052,154.872195 C365.532398,155.583643 365.624541,156.693933 363.445087,159.599014 C361.35886,162.385519 351.135859,175.320941 341.970336,181.556892 M327.57976,185.162641 C322.333568,199.51557 291.9204,248.934271 291.9204,248.934271 L273.980148,278.03358 C273.980148,278.03358 256.52175,306.023138 252.602419,308.857613 C248.684171,311.692626 234.320696,334.599102 234.320696,334.599102 L237.333773,336.032778 C244.287864,322.575088 256.424187,311.892047 256.424187,311.892047 C253.068554,316.829066 251.859854,330.265736 250.862541,334.83679 C249.870648,339.401377 246.689003,345.362451 246.689003,345.362451 L249.882031,347.135682 C249.882031,347.135682 254.683768,336.949576 254.933638,327.93736 C255.182966,318.925683 258.776545,311.854319 258.776545,311.854319 C258.776545,311.854319 323.108112,215.62017 329.959761,203.574058 C336.810325,191.522557 353.298511,178.899741 360.648274,171.332519 C367.938415,163.824585 383.234704,133.965319 383.47265,133.49641 C370.611106,139.7647 332.832456,170.809713 327.57976,185.162641" id="Fill-22" fill="#FFFFFF"></path>
                                        <path d="M322.658291,205.390569 C322.826859,204.948608 330.388009,185.620932 332.962594,183.373403 C335.721466,180.958791 355.770167,159.529108 361.764885,154.834628 C362.643496,154.144739 363.911276,154.12857 364.741106,154.872357 C365.532452,155.583805 365.624595,156.694095 363.445141,159.599175 C361.358372,162.385681 351.135914,175.321103 341.97039,181.557054 C339.83484,183.006899 337.932899,184.763961 336.263483,186.720443 C329.834609,194.255326 322.875098,205.051014 322.658291,205.390569 L322.652871,205.395958" id="Stroke-24" stroke="#FFFFFF"></path>
                                        <path d="M24.8996536,201.888249 C24.8996536,201.888249 34.4494676,160.553109 72.3663324,166.139055 C110.283197,171.725001 130.505886,206.915817 126.573546,228.700684 C122.641748,250.485012 115.338598,263.052853 115.338598,263.052853 L117.585805,264.449878 C117.585805,264.449878 129.663048,245.457445 129.663048,228.420955 C129.663048,211.384466 125.449943,192.392572 104.666265,177.310409 C83.8820455,162.228785 38.3812657,147.147161 24.8996536,201.888249" id="Fill-26" fill="#FFFFFF"></path>
                                        <path d="M43.8361343,128.354634 C43.8361343,128.354634 64.226849,163.001622 69.5722299,165.757406 L72.3663324,166.139001 C72.3663324,166.139001 54.526354,144.299697 43.8361343,128.354634" id="Fill-28" fill="#FFFFFF"></path>
                                        <path d="M113.225813,266.139298 L105.409372,281.684441 C105.409372,281.684441 103.36217,284.645036 103.548624,292.2322 C103.734536,299.819364 103.36217,334.610259 96.8487406,343.122844 L99.640675,344.418004 C99.640675,344.418004 104.215848,337.540132 105.230506,322.574927 C106.245164,307.609722 105.48417,292.729136 105.48417,292.729136 C105.48417,292.729136 104.469513,285.498774 109.119485,278.857513 C113.769457,272.215174 115.967881,267.84354 115.967881,267.84354 L113.225813,266.139298 Z" id="Fill-30" fill="#FFFFFF"></path>
                                        <path d="M364.994933,312.437006 C364.994933,398.323356 294.977056,467.947725 208.606498,467.947725 C122.234855,467.947725 52.2169782,398.323356 52.2169782,312.437006 C52.2169782,226.550116 122.234855,156.925747 208.606498,156.925747 C294.977056,156.925747 364.994933,226.550116 364.994933,312.437006 Z" id="Stroke-32" stroke="#FFFFFF" stroke-dasharray="2.001,4.002"></path>
                                        <polygon id="Fill-34" fill="#FFFFFF" points="212.153842 187.050889 243.363777 134.076025 244.392527 134.530921 213.024865 187.663705"></polygon>
                                        <path d="M248.887211,132.889577 C248.887211,135.47235 246.781471,137.565732 244.184121,137.565732 C241.587313,137.565732 239.481574,135.47235 239.481574,132.889577 C239.481574,130.306805 241.587313,128.213422 244.184121,128.213422 C246.781471,128.213422 248.887211,130.306805 248.887211,132.889577" id="Fill-36" fill="#FFFFFF"></path>
                                        <path d="M254.906537,132.889577 C254.906537,138.810767 250.079325,143.611425 244.124174,143.611425 C238.169565,143.611425 233.341811,138.810767 233.341811,132.889577 C233.341811,126.967849 238.169565,122.167729 244.124174,122.167729 C250.079325,122.167729 254.906537,126.967849 254.906537,132.889577" id="Fill-38" fill="#FFFFFF"></path>
                                        <path d="M300.451925,380.137446 L359.11832,413.482269 L360.768765,411.204018 L358.557332,409.789745 C358.557332,409.789745 377.300854,379.90407 378.980567,371.220629 C377.13337,366.712095 374.950122,371.38825 374.950122,371.38825 C374.950122,371.38825 371.423211,386.249972 355.637481,407.457596 L299.212872,376.398031 L300.451925,380.137446 Z" id="Fill-40" fill="#FFFFFF"></path>
                                        <path d="M45.7030066,316.19038 C45.7030066,316.19038 61.8947085,323.193294 66.5024029,327.775128 C71.1100974,332.356962 119.862443,358.813673 119.862443,358.813673 L121.200685,356.744005 C121.200685,356.744005 81.6631867,336.34754 68.8802356,327.183333 C56.0978266,318.020203 42.7202819,314.177305 42.7202819,314.177305 L45.7030066,316.19038 Z" id="Fill-42" fill="#FFFFFF"></path>
                                        <path d="M50.9270839,280.912682 C50.9270839,280.912682 87.6677698,293.504237 96.9422387,295.45533 C106.216708,297.406423 116.382796,297.583746 126.906074,302.372008 C137.42881,307.160809 149.734786,310.885132 149.734786,310.885132 L148.308195,312.303717 C148.308195,312.303717 126.192237,304.145777 123.873484,302.904516 C121.555273,301.662715 104.254603,299.712162 91.5914376,295.633192 C78.9288146,291.553683 49.1433029,282.153943 49.1433029,282.153943 L50.9270839,280.912682 Z" id="Fill-44" fill="#FFFFFF"></path>
                                        <path d="M214.300721,469.116872 L115.649121,403.320848 L71.0833217,373.865276 C71.0833217,373.865276 48.9343008,356.351254 28.6525316,357.678212 L28.6525316,361.393373 C28.6525316,361.393373 39.3270328,358.209104 56.9399057,371.211897 L19.1319865,428.681282 L21.201411,430.22437 L60.6516445,372.185827 L146.075839,425.914719 L125.001098,458.716253 L84.6830938,432.064973 L78.9561323,430.470682 L123.397267,460.766518 L101.543646,491.565218 L100.791325,492.672814 L125.001098,462.133361 L148.137676,478.762385 L152.032075,478.989832 L126.375113,460.538531 L147.679128,428.192431 L213.167362,470.830815 L214.300721,469.116872 Z" id="Fill-46" fill="#FFFFFF"></path>
                                        <path d="M169.559905,89.7315123 L38.630052,304.869137 L37.6923609,306.411147 C32.7057959,313.853865 37.1340825,318.338145 37.1340825,318.338145 C37.1340825,318.338145 36.2018116,323.690176 32.738317,320.989906 C29.2748224,312.905268 33.9903784,304.185177 33.9903784,304.185177 L165.857922,87.5055418 L169.559905,89.7315123 Z" id="Fill-48" fill="#FFFFFF"></path>
                                        <path d="M38.630323,304.869245 C38.3972553,305.306354 38.088305,305.817842 37.6926319,306.410716 L38.630323,304.869245 Z" id="Fill-50" fill="#FFFFFF"></path>
                                        <path d="M280.269182,407.934698 C280.269182,410.102459 278.501662,411.860059 276.321666,411.860059 C274.140585,411.860059 272.373607,410.102459 272.373607,407.934698 C272.373607,405.766398 274.140585,404.008797 276.321666,404.008797 C278.501662,404.008797 280.269182,405.766398 280.269182,407.934698 Z" id="Stroke-52" stroke="#FFFFFF"></path>
                                        <path d="M287.671142,407.934698 C287.671142,414.167415 282.589724,419.219775 276.321828,419.219775 C270.053391,419.219775 264.971973,414.167415 264.971973,407.934698 C264.971973,401.70198 270.053391,396.649081 276.321828,396.649081 C282.589724,396.649081 287.671142,401.70198 287.671142,407.934698 Z" id="Stroke-54" stroke="#FFFFFF"></path>
                                        <path d="M381.491574,360.469569 C381.491574,363.270087 379.208594,365.540254 376.392269,365.540254 C373.575944,365.540254 371.292422,363.270087 371.292422,360.469569 C371.292422,357.66905 373.575944,355.398883 376.392269,355.398883 C379.208594,355.398883 381.491574,357.66905 381.491574,360.469569" id="Fill-56" fill="#FFFFFF"></path>
                                        <path d="M387.51464,360.469569 C387.51464,366.578322 382.534579,371.529893 376.39189,371.529893 C370.249201,371.529893 365.26914,366.578322 365.26914,360.469569 C365.26914,354.361355 370.249201,349.409244 376.39189,349.409244 C382.534579,349.409244 387.51464,354.361355 387.51464,360.469569" id="Fill-58" fill="#FFFFFF"></path>
                                        <path d="M329.799811,207.371682 C329.799811,211.048576 326.802452,214.029113 323.104806,214.029113 C319.407159,214.029113 316.4098,211.048576 316.4098,207.371682 C316.4098,203.694789 319.407159,200.713713 323.104806,200.713713 C326.802452,200.713713 329.799811,203.694789 329.799811,207.371682" id="Fill-60" fill="#FFFFFF"></path>
                                        <path d="M97.0933533,391.377519 C97.0933533,391.377519 121.961678,354.813394 131.236689,340.624314 C140.5117,326.435234 162.153392,289.54395 162.153392,289.54395 L165.718786,284.916842 C165.718786,284.916842 170.776898,274.242424 182.506708,275.614656 C194.235976,276.986889 234.116572,303.744887 234.116572,303.744887 C234.116572,303.744887 247.848596,311.651125 254.625446,303.025893 C261.402297,294.400662 318.325562,211.112714 318.325562,211.112714 L323.105077,214.029113 L257.142578,305.183953 C257.142578,305.183953 249.615033,315.415871 237.046721,309.441862 C224.478409,303.467314 197.362877,285.300592 197.362877,285.300592 L188.493838,280.533351 C188.493838,280.533351 175.55045,275.646995 169.678227,284.823599 C163.806005,293.999664 125.330862,356.177542 125.330862,356.177542 L100.243562,393.163147 L97.0933533,391.377519 Z" id="Fill-66" fill="#FFFFFF"></path>
                                        <polygon id="Fill-68" fill="#FFFFFF" points="168.857775 84.3917702 192.542875 43.5983004 194.417173 44.6746353 170.732073 85.4681051"></polygon>
                                        <path d="M278.409194,383.793428 L277.77449,384.920965 C277.77449,384.920965 276.985854,385.914837 277.985335,386.385363 C278.984817,386.855889 285.243498,391.301901 285.243498,391.301901 C285.243498,391.301901 286.242437,392.608918 287.400187,390.673994 C288.557395,388.739071 295.499561,377.75582 295.499561,377.75582 C295.499561,377.75582 295.868133,377.023351 294.658349,376.343703 C293.448565,375.663515 285.822373,371.00838 285.822373,371.00838 C285.822373,371.00838 284.769774,370.590674 284.191441,372.055071 C283.613108,373.519469 278.409194,383.793428 278.409194,383.793428 Z" id="Stroke-70" stroke="#FFFFFF"></path>
                                        <path d="M52.7931975,141.024233 C52.7931975,141.024233 95.7421568,120.929055 82.3212506,87.882825 L83.4009504,87.2753991 C83.4009504,87.2753991 101.088622,116.716958 53.926557,142.84166 C53.1216603,143.175286 52.7931975,141.024233 52.7931975,141.024233" id="Fill-72" fill="#FFFFFF"></path>
                                        <path d="M212.177637,189.237299 C212.177637,189.237299 226.970932,197.544535 238.805894,205.332198 C250.640856,213.120399 337.832571,268.525506 337.832571,268.525506 L336.962632,269.736585 L211.829119,190.621928 C211.829119,190.621928 209.392749,189.583321 212.177637,189.237299" id="Fill-74" fill="#FFFFFF"></path>
                                    </g>
                                </g>
                            </g>
                        </g>
                    </g>
                    <g id="Group-3" transform="translate(239.152291, 268.134810)">
                        <mask id="mask-2" fill="white">
                            <use xlink:href="#path-1"></use>
                        </mask>
                        <g id="Clip-2"></g>
                    </g>
                </g>
                <ellipse id="Oval" fill-opacity="0.2" fill="url(#linearGradient-3)" cx="464.550579" cy="504.538803" rx="88.5505787" ry="88.538803"></ellipse>
                <g id="Group-14" transform="translate(243.000000, 475.000000)">
                    <g id="Group-13">
                        <g id="Group-10">
                            <g id="Group-9">
                                <g id="Group-3">
                                    <g id="Group-2">
                                        <g id="Fill-1">
                                            <use fill="black" fill-opacity="1" filter="url(#filter-5)" xlink:href="#path-4"></use>
                                            <use fill="#FFFFFF" fill-rule="evenodd" xlink:href="#path-4"></use>
                                        </g>
                                        <g id="Group-3" transform="translate(5.883307, 5.932945)">
                                            <g id="Group-8-Copy-2">
                                                <mask id="mask-7" fill="white">
                                                    <use xlink:href="#path-6"></use>
                                                </mask>
                                                <use id="Mask" fill="#F2F5FF" xlink:href="#path-6"></use>
                                                <g mask="url(#mask-7)">
                                                    <g transform="translate(99.078886, 145.217696) scale(-1, 1) rotate(23.000000) translate(-99.078886, -145.217696) translate(-116.421114, -128.782304)">
                                                        <g id="iphone-x-light" transform="translate(243.760131, 308.926800) rotate(-23.000000) translate(-243.760131, -308.926800) translate(149.260131, 112.926800)">
                                                            <g id="body">
                                                                <use fill="black" fill-opacity="1" filter="url(#filter-9)" xlink:href="#path-8"></use>
                                                                <use fill="#FFFFFF" fill-rule="evenodd" xlink:href="#path-8"></use>
                                                            </g>
                                                            <path d="M166.607175,6.68358446 C158.722053,6.68358446 145.617204,6.68358446 144.839797,6.68358446 C142.95181,6.68358446 141.730172,8.08343964 141.28594,10.603179 C139.786656,19.5622522 134.900102,20.1781885 133.456347,20.1781885 C132.234709,20.1781885 56.0488872,20.1781885 54.7717196,20.1781885 C53.327965,20.1781885 48.3858818,19.506258 46.9421272,10.603179 C46.553424,8.08343964 45.3317855,6.68358446 43.3882696,6.68358446 C42.5553343,6.68358446 29.5060135,6.68358446 21.620892,6.68358446 C13.7357706,6.68358446 6.68358446,15.0827156 6.68358446,23.0898873 C6.68358446,31.0970589 6.68358446,360.510982 6.68358446,370.029997 C6.68358446,379.940972 16.6788089,385.316416 21.454305,385.316416 C24.0641691,385.316416 164.163898,385.316416 166.773762,385.316416 C171.549258,385.316416 181.544482,379.940972 181.544482,370.029997 C181.544482,360.510982 181.544482,27.6254181 181.544482,23.0898873 C181.600012,15.0827156 174.492296,6.68358446 166.607175,6.68358446 Z" id="mask" fill="#F2F5FF" fill-rule="nonzero"></path>
                                                        </g>
                                                        <g id="Group-77" transform="translate(-0.000000, -0.000000)">
                                                            <polygon id="Fill-3" fill="#FFFFFF" points="130.907055 42.1255974 128.966144 41.0479107 153.493023 0.2037482 155.433935 1.28089521"></polygon>
                                                            <g id="Group-76" transform="translate(0.936788, 49.023176)">
                                                                <path d="M272.911878,60.7553195 C269.137483,57.7354945 259.934685,47.3872014 253.216154,45.1924358 C246.491116,42.9976701 223.850172,41.8059177 220.260159,42.8143236 C220.260159,42.8143236 228.817622,38.511073 231.583343,38.511073 C234.34364,38.511073 248.795883,38.6027463 266.745949,48.9456468 C273.465564,52.6071846 279.539302,57.0937817 279.539302,57.0937817 C279.539302,57.0937817 281.198192,58.0051217 279.815332,59.6552404 C278.437895,61.305359 276.686272,63.7751445 272.911878,60.7553195 Z M264.783372,61.9416793 C264.783372,61.9416793 259.842494,56.4251062 243.9152,53.620983 C227.993329,50.8114672 216.703226,51.1134497 215.190214,46.8048066 C215.190214,46.8048066 225.569257,44.3997317 244.121274,46.8048066 C257.625038,48.907899 257.526882,50.4124189 261.355506,55.1255029 C265.18413,59.8331944 266.296384,60.2376352 266.296384,60.2376352 L264.783372,61.9416793 Z M223.036183,36.9677267 C222.272085,37.3182421 220.68044,38.09369 219.518295,38.9672823 C219.305172,39.1274408 219.000943,39.0104226 218.952678,38.7494235 C218.724913,37.5220803 218.207019,34.6791308 218.022095,33.2684411 C217.991726,33.0322477 218.276975,32.8915023 218.447799,33.0586711 C219.333914,33.9257923 221.271545,35.7091068 223.043775,36.574071 C223.21026,36.6549591 223.204295,36.8906133 223.036183,36.9677267 Z M278.150477,72.0473079 C276.236165,71.0442946 276.036057,71.7453254 276.236165,75.1534136 C276.436815,78.5561092 273.112528,80.4596775 273.112528,80.4596775 C270.292578,79.6615809 267.873929,77.0569818 267.873929,77.0569818 C270.894529,69.1407264 275.02684,67.5391406 277.549068,67.5391406 C280.064789,67.5391406 282.082138,63.2304975 283.589726,59.7253435 C285.102738,56.2147969 295.682973,46.2008416 298.704116,40.689661 C301.724173,35.1784804 308.075026,31.0693614 308.075026,31.0693614 C308.075026,31.0693614 307.770797,30.0663481 306.865159,29.570234 C305.976332,29.0741199 298.237197,37.1359741 298.004551,37.3786386 C298.210082,37.0982263 305.434034,27.1543741 303.942715,26.5611942 C300.818536,25.0620668 302.095648,23.2194343 302.095648,23.2194343 C302.095648,23.2194343 301.493154,23.4750409 301.086431,28.7866973 C300.68513,34.0929612 283.568034,53.8205071 283.568034,53.8205071 C282.640705,52.8174938 281.713375,54.0685642 281.713375,54.0685642 C276.832693,50.3854562 267.212325,44.7178918 250.282322,37.7938646 C233.357199,30.8698373 225.851794,35.1029848 225.851794,35.1029848 C217.250405,31.9429537 217.061143,24.7816544 217.434786,17.5340745 C217.809514,10.2864945 215.846395,3.874759 215.662014,3.2222611 C215.471667,2.56976321 214.355075,1.64224553 214.355075,3.59434668 C216.318194,8.05398107 216.127848,19.5778489 215.943466,26.0866502 C215.754204,32.590059 217.158214,38.5380357 217.5324,40.6788759 C217.906585,42.8143236 211.827424,43.9305803 205.753686,43.5584947 C192.386581,43.1864092 181.828038,36.213849 179.398,33.0538179 C176.968505,29.8937867 172.202247,4.17134895 171.605177,2.13835964 C171.008649,0.105370322 170.330777,0.277931749 169.050953,0.445100632 C167.776553,0.612269514 167.711477,1.78784424 167.711477,1.78784424 L171.214723,17.0649231 C168.552039,17.0649231 165.986969,14.1853043 165.830245,14.0073503 C167.15291,16.4124252 170.667002,17.9385153 170.667002,17.9385153 C171.214723,18.7042567 173.638795,20.3489828 173.638795,20.3489828 L175.840525,30.8536597 C175.840525,30.8536597 167.581868,29.7589731 163.731009,27.4617491 C159.880693,25.1645251 139.848203,8.19957977 139.848203,8.19957977 C142.819996,15.5280479 156.686558,27.4617491 156.686558,27.4617491 L124.137828,22.6354217 L123.687721,24.2370074 L126.285328,24.8625426 L175.704951,35.9010814 L176.778701,36.3486626 C176.778701,36.3486626 180.536826,40.5278847 187.700584,43.0246328 C189.256979,43.5638873 190.769991,43.9952909 192.223349,44.3404137 C192.982567,44.5129751 193.725515,44.6693589 194.452194,44.8041725 C198.715199,45.6022692 202.315516,45.7209051 204.712474,45.9635696 C208.292183,46.3194776 210.439684,48.363252 214.20269,50.6766536 C217.960815,52.9954478 224.317091,53.0817285 224.317091,53.0817285 C224.317091,53.0817285 242.413577,54.9529415 251.962904,58.2208235 C261.507892,61.4887056 264.999749,66.3905286 264.999749,66.3905286 L267.982388,62.5025039 C270.569692,65.6948903 274.60927,66.0022654 274.60927,66.0022654 C274.60927,66.0022654 272.538234,66.315033 269.642363,69.6098777 C266.740526,72.8993299 266.236188,75.5686395 265.536624,76.959916 C264.837059,78.3511925 250.211823,102.585288 248.67712,105.049681 C247.147297,107.514074 248.296969,108.322955 248.296969,108.322955 C248.296969,108.322955 251.957481,109.20194 251.957481,113.731678 C251.957481,118.256023 243.302404,130.94468 243.302404,130.94468 L245.411943,132.708042 C245.411943,132.708042 250.62885,123.551501 253.177651,120.240479 C255.731875,116.929457 254.843049,110.857451 255.179273,110.086318 C266.604951,95.6289054 272.000817,86.8929832 272.000817,86.8929832 C272.000817,86.8929832 278.492125,78.3727627 278.188438,75.8005189 C277.884751,73.2336677 278.682471,74.1288301 278.682471,74.1288301 L376.64265,131.79131 L377.678439,129.731358 C377.678439,129.731358 280.064789,73.0449286 278.150477,72.0473079 Z" id="Fill-4" fill="#FFFFFF"></path>
                                                                <path d="M120.665439,192.767076 L135.170286,198.444347 C135.170286,198.444347 138.101949,200.132214 140.571032,205.349501 C143.040115,210.566248 147.514616,215.783535 149.212552,218.084534 C150.909402,220.386611 161.248315,235.884245 161.248315,235.884245 C161.248315,235.884245 164.025965,240.947845 166.185939,242.175188 C168.346454,243.402531 177.073657,250.779532 177.073657,250.779532 L177.605109,246.931412 C177.605109,246.931412 169.580724,242.788859 166.494506,239.106291 C163.408288,235.423722 152.452782,219.005581 152.452782,219.005581 C152.452782,219.005581 150.671876,215.855795 148.689776,213.58877 C146.707135,211.322283 140.463115,200.874767 140.463115,200.874767 C140.463115,200.874767 140.066153,198.016179 135.110633,196.045204 C130.155113,194.074229 119.45015,190.821446 116.575428,187.76603 C113.701248,184.710615 120.665439,192.767076 120.665439,192.767076" id="Fill-6" fill="#FFFFFF"></path>
                                                                <path d="M199.57984,190.042871 L196.059783,195.632243 C196.059783,195.632243 181.584763,213.447593 180.516978,224.656536 C179.448651,235.86494 179.092903,259.225443 179.092903,259.225443 C179.092903,259.225443 179.804941,267.129835 172.804415,276.097097 L165.804432,285.063821 C165.804432,285.063821 176.245296,270.198193 176.601044,262.528916 C176.957334,254.859639 178.025119,225.245941 178.025119,225.245941 C178.025119,225.245941 178.025119,220.998773 180.516978,216.043564 C183.008295,211.087815 188.466525,201.41359 191.551117,197.873924 C194.63625,194.334258 198.432879,187.727312 198.432879,187.727312 L199.57984,190.042871 Z" id="Fill-8" fill="#FFFFFF"></path>
                                                                <path d="M208.181934,197.047678 C208.181934,197.047678 198.974255,212.216906 200.114166,230.186483 C200.928155,239.575442 204.510034,243.946099 204.510034,245.564941 C204.510034,247.183783 209.719349,263.372741 209.231281,267.905175 L207.277381,269.038149 C207.277381,269.038149 206.789313,263.048649 204.672723,254.630887 C202.556134,246.212586 197.509508,233.100074 197.835429,229.214746 C198.160808,225.329418 197.460701,213.987818 206.251895,195.856465 C208.531716,195.856465 208.181934,197.047678 208.181934,197.047678" id="Fill-10" fill="#FFFFFF"></path>
                                                                <path d="M184.772825,304.785596 L208.626347,270.699861 L257.894126,300.501759 L258.759634,299.067342 L209.23101,267.904905 L207.277652,269.038418 L184.059703,302.365962 L0.197342263,196.469328 L104.840803,261.33409 L153.338518,290.688406 L232.98258,337.738358 L236.190815,339.105907 C236.190815,339.105907 240.242324,340.933441 241.212495,341.684083 C242.183209,342.434186 244.554678,344.685573 246.818773,345.543527 C249.082867,346.401481 256.845321,352.726397 256.845321,352.726397 C256.845321,352.726397 259.217333,354.549077 263.314395,357.336483 C267.410914,360.123889 282.504696,369.450834 282.504696,369.450834 L275.234106,385.779999 C275.234106,385.779999 274.246582,387.216033 275.31057,387.896033 C276.374559,388.576572 278.958067,389.936572 278.958067,389.936572 C278.958067,389.936572 279.946134,390.239094 278.72976,391.901615 C277.513927,393.564137 272.498213,401.877284 272.498213,401.877284 L271.849624,403.139678 C271.849624,403.139678 271.596371,403.839091 270.687479,403.201153 C269.778046,402.562676 261.962446,398.973398 259.81603,397.227832 C257.670157,395.481186 249.377877,391.795382 248.59751,391.115922 C247.816601,390.437 230.354604,379.669167 229.086168,379.184377 C230.257532,377.631864 224.444639,377.129818 227.681074,380.686201 C229.175105,382.427993 236.138755,385.275796 237.245043,386.505296 C238.351331,387.734796 252.334486,394.600584 256.06387,397.436523 C259.793796,400.272462 265.497687,402.890543 265.497687,402.890543 C265.497687,402.890543 266.267208,403.710209 265.647904,405.064817 C265.029141,406.419963 247.860527,435.498721 247.860527,435.498721 C247.860527,435.498721 246.822026,436.779989 248.595883,438.004097 C250.36974,439.228205 253.301946,440.884255 253.301946,440.884255 C253.301946,440.884255 254.496629,442.324064 256.269943,440.451773 C258.044342,438.580021 276.114798,410.478392 276.114798,410.478392 C276.114798,410.478392 276.841478,409.446259 277.878894,410.065323 C278.916852,410.684927 316.642359,434.173772 316.642359,434.173772 C316.642359,434.173772 319.854391,435.770505 320.584324,437.367777 C321.314799,438.964509 326.71663,457.112579 326.71663,457.112579 L322.628787,436.932598 C322.628787,436.932598 322.628787,435.916104 319.708512,433.738594 C316.78878,431.560545 278.244945,407.606323 278.244945,407.606323 C278.244945,407.606323 275.791589,406.563944 273.742244,410.131652 C271.692358,413.698281 256.745539,436.544335 256.745539,436.544335 C256.745539,436.544335 255.464631,439.517245 253.585568,438.752582 C251.706505,437.988459 249.741759,437.223796 250.425055,435.780211 C251.108893,434.336088 267.934232,407.498472 267.934232,407.498472 C267.934232,407.498472 268.874035,405.799821 270.325767,406.819011 C271.777498,407.838202 277.410348,406.643214 276.329548,405.837029 C275.248206,405.030844 274.707535,405.299932 277.139742,400.731907 C279.571406,396.163883 281.192877,393.476778 281.192877,393.476778 C281.192877,393.476778 282.207517,392.138887 283.77747,393.309609 C285.34688,394.48033 286.30024,394.926294 286.30024,394.926294 C286.30024,394.926294 288.038306,396.041472 289.439604,393.866659 C290.841444,391.692924 298.442294,379.843886 298.442294,379.843886 C298.442294,379.843886 299.524721,379.648675 300.607148,380.334068 C301.689575,381.018382 302.908661,378.974607 302.709095,378.477415 C302.509529,377.980761 283.645149,367.335339 280.38648,364.935117 C277.128353,362.535435 263.009081,354.495151 259.147377,351.375025 C255.285672,348.254359 249.97549,344.654836 249.97549,344.654836 C249.97549,344.654836 246.515086,341.34651 243.585592,339.506573 C240.655013,337.666637 231.402323,333.67885 224.616548,328.925322 C217.830772,324.171255 188.88019,306.715588 184.772825,304.785596" id="Fill-12" fill="#FFFFFF"></path>
                                                                <path d="M207.025863,193.413211 L200.545943,188.840872 C200.28076,188.65429 200.202669,188.298922 200.364274,188.019049 L201.490627,186.070183 C201.593121,185.89169 201.820344,185.828597 202.001471,185.927281 L209.010674,189.759223 C209.261216,189.896193 209.359914,190.204108 209.235185,190.460254 L207.903301,193.18942 C207.743323,193.517287 207.325212,193.624059 207.025863,193.413211 M198.074149,187.083981 L195.881638,185.047217 C195.735217,184.910786 195.850185,184.667043 196.049208,184.692927 L199.361022,185.116781 C199.5492,185.141048 199.653863,185.344886 199.564384,185.510437 L198.773171,186.969659 C198.633801,187.226345 198.288899,187.282966 198.074149,187.083981 M313.508256,261.471438 C311.399259,259.449234 312.619429,258.079527 308.964341,255.900939 C305.308709,253.716959 299.766965,250.233375 299.766965,250.233375 L293.492035,244.732979 C293.492035,244.732979 262.869006,226.754236 255.862515,221.064562 C248.850058,215.38082 234.088705,208.408799 225.607706,203.64125 C217.120199,198.869388 210.477048,194.651878 210.477048,194.651878 L213.134851,187.760746 L205.346908,183.181936 L235.824059,129.412874 L232.023092,126.894556 L200.76449,183.392245 L192.565485,179.898416 L225.92712,123.594318 L224.039922,122.089798 L189.501501,178.604205 C189.501501,178.604205 175.255331,173.119987 155.780866,173.577814 C149.490208,171.900733 128.329738,156.957992 128.329738,156.957992 L127.47833,158.856167 L144.159418,170.105015 C144.159418,170.105015 150.629034,175.249503 159.880639,175.762334 C169.132786,176.274086 182.375162,178.447821 190.087183,182.152499 C193.166894,184.708026 194.967866,188.542125 202.29377,193.271387 C209.620217,198.000649 220.959669,205.73895 232.917342,211.471225 C244.875556,217.204039 280.541957,243.541227 292.071214,249.062654 C303.606436,254.579766 309.371064,258.192771 309.371064,258.192771 C309.371064,258.192771 309.208375,261.551787 310.585812,262.59848 C311.968672,263.650026 328.615053,272.626995 332.671442,275.533576 C333.403545,275.938017 334.135647,273.354988 334.135647,273.354988 C334.135647,273.354988 315.623761,263.48771 313.508256,261.471438" id="Fill-14" fill="#FFFFFF"></path>
                                                                <path d="M271.151524,292.006236 L294.903094,306.0646 L318.937202,300.722206 L344.66816,345.147067 C344.66816,345.147067 346.761431,346.225037 349.026067,347.275505 C351.290162,348.326512 364.388829,354.501514 371.484257,360.656026 L373.597592,357.653457 C373.597592,357.653457 367.141534,346.825227 351.290162,343.37292 C348.573248,341.120993 347.515767,343.223007 344.043975,335.867037 C340.572183,328.511067 322.606933,299.388091 322.606933,299.388091 L338.156787,274.318151 L427.516119,327.307451 L429.088783,325.222693 L375.612772,294.398908 L377.14151,292.066094 L419.833383,317.421299 L421.837174,314.12214 L379.156147,289.591455 L397.695691,257.390953 L395.915869,255.424292 L377.328061,288.852137 L342.494629,267.60659 L368.182204,224.46084 L396.265109,239.946072 L397.197319,238.886976 L368.847604,223.005393 L375.635548,213.078797 L372.041739,211.093801 L318.93666,297.650074 L295.37869,302.943395 L272.08753,289.179465 L271.151524,292.006236 Z" id="Fill-16" fill="#FFFFFF"></path>
                                                                <path d="M130.551262,145.540195 C130.551262,145.540195 123.634792,141.20405 122.732409,137.914598 C121.830567,134.625685 118.222116,124.309208 115.214531,118.776996 C112.207488,113.244785 112.207488,111.301312 110.553479,108.759266 C108.89947,106.21776 91.9092715,85.1361461 91.9092715,85.1361461 L84.8420432,90.3690714 L85.4434517,92.0137975 L91.3078629,87.6781916 C91.3078629,87.6781916 104.388634,101.732241 108.147845,108.759266 C111.907055,115.78683 118.672765,129.691507 120.176558,138.662544 C121.379375,143.746096 129.348445,147.483668 129.348445,147.483668 L130.551262,145.540195 Z" id="Fill-18" fill="#FFFFFF"></path>
                                                                <path d="M211.932467,384.68267 C213.453071,382.458245 216.841892,377.429158 217.680284,375.612949 C217.800675,375.351411 218.116834,375.250031 218.371715,375.386462 L222.8473,377.787223 C223.122788,377.934439 223.153699,378.314614 222.903157,378.501735 C221.43841,379.594265 217.123344,382.711155 212.36956,385.169077 C212.057738,385.329775 211.735613,384.971171 211.932467,384.68267 Z M246.816332,345.540885 C246.816332,345.540885 236.962777,359.626211 234.170484,364.393221 C232.022984,368.052062 228.073969,373.114044 226.353257,375.271062 C225.871697,375.874487 225.024085,376.042196 224.34567,375.669571 L220.032773,373.306018 C219.441126,372.981926 219.195465,372.264718 219.469326,371.651046 C224.774628,359.773428 236.192713,339.107579 236.192713,339.107579 L232.982309,337.737873 C232.982309,337.737873 226.057705,349.278457 220.379302,361.70288 C214.701441,374.121371 208.465014,384.550552 208.465014,384.550552 C208.465014,384.550552 196.339771,403.332785 185.840881,420.352195 C175.341448,437.365134 155.877829,495.010897 155.877829,495.010897 C156.241168,500.46222 163.974339,496.488454 163.974339,496.488454 C174.174965,448.984989 202.347891,405.301064 207.142349,397.886315 C211.936263,390.471566 225.645558,384.119149 229.089151,379.18551 C232.527321,374.250792 250.01101,347.315032 250.01101,347.315032 L246.816332,345.540885 Z" id="Fill-20" fill="#FFFFFF"></path>
                                                                <path d="M342.147071,181.650723 C340.010959,183.101318 338.107492,184.859287 336.437214,186.816781 C330.005017,194.355558 323.042452,205.156825 322.824991,205.496555 C322.993646,205.054367 330.558703,185.716702 333.134619,183.468011 C335.894916,181.052151 355.953979,159.611393 361.952338,154.914487 C362.830861,154.224241 364.099296,154.208064 364.929554,154.952235 C365.72131,155.664051 365.8135,156.774915 363.63292,159.681496 C361.545615,162.469442 351.317331,175.411549 342.147071,181.650723 M327.749057,185.258335 C322.500154,199.618682 292.071268,249.062923 292.071268,249.062923 L274.121745,278.177271 C274.121745,278.177271 256.654324,306.181295 252.732967,309.017234 C248.812694,311.853713 234.441796,334.772027 234.441796,334.772027 L237.45643,336.206444 C244.414115,322.741799 256.55671,312.053237 256.55671,312.053237 C253.199343,316.992808 251.990018,330.436421 250.99219,335.009838 C249.999785,339.576784 246.816495,345.540939 246.816495,345.540939 L250.011173,347.315086 C250.011173,347.315086 254.815391,337.123716 255.065391,328.106842 C255.314848,319.090507 258.910284,312.015489 258.910284,312.015489 C258.910284,312.015489 323.275098,215.731605 330.130288,203.679268 C336.984393,191.621538 353.4811,178.992199 360.834662,171.421066 C368.128571,163.909251 383.432764,134.034554 383.670833,133.565403 C370.802642,139.836932 333.004468,170.897989 327.749057,185.258335" id="Fill-22" fill="#FFFFFF"></path>
                                                                <path d="M322.825045,205.496717 C322.9937,205.054528 330.558758,185.716863 333.134673,183.468172 C335.894971,181.052312 355.954033,159.611555 361.95185,154.914649 C362.830915,154.224403 364.09935,154.208225 364.929609,154.952396 C365.721364,155.664212 365.813554,156.775077 363.632974,159.681658 C361.545126,162.469604 351.317385,175.411711 342.147125,181.650885 C340.010471,183.101479 338.107547,184.859449 336.437269,186.816943 C330.005071,194.35572 323.041964,205.156987 322.825045,205.496717 L322.819622,205.50211" id="Stroke-24" stroke="#FFFFFF"></path>
                                                                <path d="M24.912522,201.992588 C24.912522,201.992588 34.4672715,160.636085 72.4037322,166.224918 C110.340193,171.813751 130.573333,207.022753 126.638961,228.818879 C122.705131,250.614466 115.398207,263.188802 115.398207,263.188802 L117.646575,264.586549 C117.646575,264.586549 129.73006,245.5843 129.73006,228.539006 C129.73006,211.493712 125.514777,192.492003 104.720358,177.402045 C83.9253968,162.312627 38.4011017,147.223208 24.912522,201.992588" id="Fill-26" fill="#FFFFFF"></path>
                                                                <path d="M43.8587893,128.420969 C43.8587893,128.420969 64.2600423,163.085864 69.6081857,165.843072 L72.4037322,166.224864 C72.4037322,166.224864 54.5545339,144.374273 43.8587893,128.420969" id="Fill-28" fill="#FFFFFF"></path>
                                                                <path d="M113.284329,266.276842 L105.463849,281.830019 C105.463849,281.830019 103.415589,284.792144 103.60214,292.383229 C103.788148,299.974314 103.415589,334.78319 96.8987932,343.300175 L99.6921705,344.596003 C99.6921705,344.596003 104.269708,337.714577 105.28489,322.741638 C106.300072,307.768698 105.538686,292.880422 105.538686,292.880422 C105.538686,292.880422 104.523504,285.646323 109.175879,279.00163 C113.828254,272.355858 116.027815,267.981965 116.027815,267.981965 L113.284329,266.276842 Z" id="Fill-30" fill="#FFFFFF"></path>
                                                                <path d="M365.183567,312.598477 C365.183567,398.529214 295.129504,468.189566 208.714308,468.189566 C122.298028,468.189566 52.2439646,398.529214 52.2439646,312.598477 C52.2439646,226.6672 122.298028,157.006848 208.714308,157.006848 C295.129504,157.006848 365.183567,226.6672 365.183567,312.598477 Z" id="Stroke-32" stroke="#FFFFFF" stroke-dasharray="2.001,4.002"></path>
                                                                <polygon id="Fill-34" fill="#FFFFFF" points="212.263486 187.147559 243.489551 134.145317 244.518832 134.600448 213.134959 187.760692"></polygon>
                                                                <path d="M249.015839,132.958256 C249.015839,135.542364 246.909011,137.636828 244.310319,137.636828 C241.712169,137.636828 239.605341,135.542364 239.605341,132.958256 C239.605341,130.374149 241.712169,128.279685 244.310319,128.279685 C246.909011,128.279685 249.015839,130.374149 249.015839,132.958256" id="Fill-36" fill="#FFFFFF"></path>
                                                                <path d="M255.038276,132.958256 C255.038276,138.882506 250.208569,143.685645 244.250341,143.685645 C238.292654,143.685645 233.462405,138.882506 233.462405,132.958256 C233.462405,127.033467 238.292654,122.230867 244.250341,122.230867 C250.208569,122.230867 255.038276,127.033467 255.038276,132.958256" id="Fill-38" fill="#FFFFFF"></path>
                                                                <path d="M300.607202,380.333906 L359.303917,413.695962 L360.955215,411.416533 L358.742639,410.001529 C358.742639,410.001529 377.495848,380.100409 379.176429,371.41248 C377.328278,366.901617 375.143901,371.580188 375.143901,371.580188 C375.143901,371.580188 371.615168,386.449591 355.821279,407.668175 L299.367509,376.592559 L300.607202,380.333906 Z" id="Fill-40" fill="#FFFFFF"></path>
                                                                <path d="M45.7266265,316.353791 C45.7266265,316.353791 61.9266964,323.360324 66.5367722,327.944526 C71.146848,332.528729 119.924389,358.999112 119.924389,358.999112 L121.263323,356.928375 C121.263323,356.928375 81.7053912,336.521369 68.9158338,327.352425 C56.1268187,318.18456 42.7423603,314.339676 42.7423603,314.339676 L45.7266265,316.353791 Z" id="Fill-42" fill="#FFFFFF"></path>
                                                                <path d="M50.9534037,281.057861 C50.9534037,281.057861 87.7130776,293.655924 96.9923396,295.608025 C106.271602,297.560126 116.442944,297.737541 126.971661,302.528277 C137.499835,307.319553 149.812171,311.045802 149.812171,311.045802 L148.384842,312.465119 C148.384842,312.465119 126.257454,304.302964 123.937503,303.061061 C121.618094,301.818618 104.308483,299.867057 91.6387732,295.785979 C78.969606,291.704362 49.1687008,282.299764 49.1687008,282.299764 L50.9534037,281.057861 Z" id="Fill-44" fill="#FFFFFF"></path>
                                                                <path d="M214.411474,469.359317 L115.708889,403.52929 L71.1200585,374.058494 C71.1200585,374.058494 48.9595906,356.53542 28.6673396,357.863065 L28.6673396,361.580146 C28.6673396,361.580146 39.3473575,358.394231 56.969333,371.403744 L19.1418742,428.90283 L21.2123682,430.446715 L60.6829901,372.378177 L146.151333,426.134837 L125.0657,458.953324 L84.7268591,432.288269 L78.9969378,430.693155 L123.46104,461.004648 L101.596125,491.819265 L100.843415,492.927433 L125.0657,462.372197 L148.214235,479.009815 L152.110647,479.23738 L126.440426,460.776543 L147.755451,428.413726 L213.277529,471.074146 L214.411474,469.359317 Z" id="Fill-46" fill="#FFFFFF"></path>
                                                                <path d="M169.647535,89.7778867 L38.6500165,305.026697 L37.7118408,306.569504 C32.7226987,314.016069 37.1532738,318.502666 37.1532738,318.502666 C37.1532738,318.502666 36.2205212,323.857463 32.7552366,321.155798 C29.289952,313.066981 34.0079451,304.342383 34.0079451,304.342383 L165.94364,87.5507658 L169.647535,89.7778867 Z" id="Fill-48" fill="#FFFFFF"></path>
                                                                <path d="M38.6502876,305.026805 C38.4170995,305.46414 38.1079896,305.975893 37.712112,306.569073 L38.6502876,305.026805 Z" id="Fill-50" fill="#FFFFFF"></path>
                                                                <path d="M280.414029,408.145523 C280.414029,410.314405 278.645595,412.072914 276.464472,412.072914 C274.282265,412.072914 272.514373,410.314405 272.514373,408.145523 C272.514373,405.976103 274.282265,404.217594 276.464472,404.217594 C278.645595,404.217594 280.414029,405.976103 280.414029,408.145523 Z" id="Stroke-52" stroke="#FFFFFF"></path>
                                                                <path d="M287.819814,408.145523 C287.819814,414.381462 282.73577,419.436433 276.464635,419.436433 C270.192958,419.436433 265.108913,414.381462 265.108913,408.145523 C265.108913,401.909585 270.192958,396.854074 276.464635,396.854074 C282.73577,396.854074 287.819814,401.909585 287.819814,408.145523 Z" id="Stroke-54" stroke="#FFFFFF"></path>
                                                                <path d="M381.688734,360.655864 C381.688734,363.45783 379.404574,365.72917 376.586793,365.72917 C373.769013,365.72917 371.484311,363.45783 371.484311,360.655864 C371.484311,357.853898 373.769013,355.582558 376.586793,355.582558 C379.404574,355.582558 381.688734,357.853898 381.688734,360.655864" id="Fill-56" fill="#FFFFFF"></path>
                                                                <path d="M387.714912,360.655864 C387.714912,366.767774 382.732278,371.721905 376.586414,371.721905 C370.44055,371.721905 365.457915,366.767774 365.457915,360.655864 C365.457915,354.544493 370.44055,349.589823 376.586414,349.589823 C382.732278,349.589823 387.714912,354.544493 387.714912,360.655864" id="Fill-58" fill="#FFFFFF"></path>
                                                                <path d="M329.970256,207.478855 C329.970256,211.157649 326.971348,214.139726 323.27179,214.139726 C319.572233,214.139726 316.573325,211.157649 316.573325,207.478855 C316.573325,203.800061 319.572233,200.817444 323.27179,200.817444 C326.971348,200.817444 329.970256,203.800061 329.970256,207.478855" id="Fill-60" fill="#FFFFFF"></path>
                                                                <path d="M97.1435323,391.579788 C97.1435323,391.579788 122.02471,354.996766 131.304514,340.800353 C140.584318,326.60394 162.237195,289.69359 162.237195,289.69359 L165.804432,285.06409 C165.804432,285.06409 170.865157,274.384156 182.60103,275.757097 C194.33636,277.130039 234.237566,303.901866 234.237566,303.901866 C234.237566,303.901866 247.976687,311.81219 254.75704,303.182501 C261.537393,294.552812 318.490077,211.22182 318.490077,211.22182 L323.272061,214.139726 L257.275472,305.341676 C257.275472,305.341676 249.744037,315.578882 237.169229,309.601786 C224.594422,303.62415 197.464877,285.448039 197.464877,285.448039 L188.591254,280.678334 C188.591254,280.678334 175.641176,275.789453 169.765919,284.970799 C163.890662,294.151606 125.395634,356.361619 125.395634,356.361619 L100.295369,393.366338 L97.1435323,391.579788 Z" id="Fill-66" fill="#FFFFFF"></path>
                                                                <polygon id="Fill-68" fill="#FFFFFF" points="168.945043 84.4353849 192.642383 43.6208326 194.51765 44.6977237 170.820309 85.5122761"></polygon>
                                                                <path d="M278.553079,383.991777 L277.918048,385.119897 C277.918048,385.119897 277.129004,386.114283 278.129002,386.585052 C279.128999,387.055821 285.390915,391.504131 285.390915,391.504131 C285.390915,391.504131 286.39037,392.811823 287.548719,390.875899 C288.706525,388.939976 295.652279,377.951048 295.652279,377.951048 C295.652279,377.951048 296.021042,377.218202 294.810632,376.538202 C293.600223,375.857663 285.970089,371.200122 285.970089,371.200122 C285.970089,371.200122 284.916947,370.7822 284.338315,372.247354 C283.759683,373.712508 278.553079,383.991777 278.553079,383.991777 Z" id="Stroke-70" stroke="#FFFFFF"></path>
                                                                <path d="M52.8204817,141.097116 C52.8204817,141.097116 95.7916375,120.991553 82.3637953,87.9282439 L83.444053,87.3205041 C83.444053,87.3205041 101.140866,116.777279 53.9544269,142.915482 C53.1491143,143.24928 52.8204817,141.097116 52.8204817,141.097116" id="Fill-72" fill="#FFFFFF"></path>
                                                                <path d="M212.287293,189.335099 C212.287293,189.335099 227.088234,197.646628 238.929312,205.438316 C250.77039,213.230543 338.007167,268.664284 338.007167,268.664284 L337.136779,269.875988 L211.938595,190.720444 C211.938595,190.720444 209.500966,189.6813 212.287293,189.335099" id="Fill-74" fill="#FFFFFF"></path>
                                                                <g id="Group-7" opacity="0.6" transform="translate(110.769577, 184.337349)">
                                                                    <g id="Group-8" transform="translate(0.791786, 0.584550)"></g>
                                                                </g>
                                                            </g>
                                                        </g>
                                                    </g>
                                                </g>
                                            </g>
                                        </g>
                                        <path d="M69.3228396,245.886076 L79.768747,231.64557 L38.9347455,204.543043 L74.0709793,154.459015 L94.0131661,129.244519 L105.408701,112.025316 C125.034345,123.375463 136.113338,132.383885 138.645679,139.050584 C141.17802,145.717283 144.343447,152.313499 148.141959,158.839232 C153.206641,152.60857 156.372067,145.512661 157.638238,137.551504" id="Path-7" stroke="url(#linearGradient-10)" stroke-width="2" stroke-linecap="round" stroke-linejoin="round"></path>
                                        <ellipse id="Oval" stroke="#738FEF" stroke-width="2" fill="#FFFFFF" cx="73.1213514" cy="154.746835" rx="4.7481397" ry="4.74683544"></ellipse>
                                        <ellipse id="Oval" fill="#65EBE5" cx="68.3732117" cy="245.886076" rx="4.7481397" ry="4.74683544"></ellipse>
                                    </g>
                                </g>
                                <polygon id="Path-6" fill-opacity="0.4" fill="#D3DAF0" points="37.0843373 193.606698 49.7349398 176.240964 39.7951807 169.012048 26.2409639 187.822406 36.1807229 195.216867"></polygon>
                                <polygon id="Path-6-Copy-2" fill-opacity="0.4" fill="#D3DAF0" points="86.746988 230.618746 99.3975904 213.253012 89.4578313 206.024096 75.9036145 224.834454 85.8433735 232.228916"></polygon>
                                <polygon id="Path-6-Copy" fill-opacity="0.4" fill="#D3DAF0" points="76.0426321 222.001753 99.3975904 189.665559 81.047266 176.204819 56.0240964 211.231003 74.3744208 225"></polygon>
                            </g>
                            <g id="Group-11" transform="translate(232.000000, 8.000000)"></g>
                        </g>
                        <path d="M184,78.2409082 C195.333333,66.7469694 203.333333,55.3333333 208,44 C212.666667,32.6666667 217,23.3333333 221,16" id="Path-9" stroke="#7B63F4" stroke-width="2" stroke-linecap="round" stroke-linejoin="round"></path>
                        <g id="Group-12" transform="translate(207.000000, 3.000000)" fill="url(#linearGradient-11)">
                            <circle id="Oval" cx="3.61445783" cy="3.61445783" r="3.61445783"></circle>
                        </g>
                    </g>
                    <polygon id="Path-6-Copy-3" fill-opacity="0.4" fill="#D3DAF0" points="135.384615 77.033742 151 55.8275862 138.730769 47 122 69.9702579 134.269231 79"></polygon>
                    <polygon id="Path-6-Copy-4" fill-opacity="0.4" fill="#D3DAF0" points="121 62.2180787 135 43 124 35 109 55.8167962 120 64"></polygon>
                </g>
                <g id="Group-6" transform="translate(443.000000, 616.000000)">
                    <ellipse id="Oval-Copy" fill-opacity="0.2" fill="#3B3D6C" cx="25.1869476" cy="308.51956" rx="25.1869476" ry="2.8453174"></ellipse>
                    <ellipse id="Oval-Copy-2" fill-opacity="0.2" fill="#3B3D6C" cx="184.496357" cy="310.898348" rx="25.1869476" ry="2.8453174"></ellipse>
                    <g id="Group-53" transform="translate(17.025433, 0.000000)">
                        <path d="M97.1253627,20.9656289 C97.1253627,20.9656289 99.3622639,31.3567506 111.104627,37.3728605 C122.847537,43.3884349 104.39447,48.3106579 104.39447,48.3106579 L83.1455515,40.6539855 L80.3496987,13.3089565 L97.1253627,20.9656289 Z" id="Fill-3" fill="#5E5553"></path>
                        <path d="M143.105671,62.5839268 C143.105671,62.5839268 149.129319,91.5159752 146.333466,95.8909871 C143.537066,100.265999 135.149508,101.359886 135.149508,101.359886 L122.847646,61.9831725 L137.94536,53.7798244 L143.105671,62.5839268 Z" id="Fill-23" fill="url(#linearGradient-12)"></path>
                        <path d="M81.4640434,59.2317499 C81.4640434,59.2317499 73.0808648,61.9833331 72.5213658,65.8116693 C71.9624142,69.6400055 69.725513,74.5622285 73.6398164,75.1089042 C77.5535723,75.6555799 83.7047768,76.2027911 83.7047768,76.2027911 L81.4640434,59.2317499 Z" id="Stroke-5" stroke="#BECBEB"></path>
                        <path d="M119.492404,40.6542533 C119.492404,40.6542533 140.182371,43.3887026 141.300822,48.3109256 C142.419272,53.2331487 148.010978,63.623735 145.214578,63.0770593 C142.419272,62.5298482 127.879962,61.4364968 127.879962,61.4364968 L119.492404,40.6542533 Z" id="Fill-1" fill="url(#linearGradient-13)"></path>
                        <path d="M73.6398164,75.1087971 L80.3499725,98.0788143 L83.7047768,76.202684 C83.7047768,76.202684 73.6398164,66.905449 73.6398164,75.1087971 Z" id="Stroke-7" stroke="#BECBEB"></path>
                        <path d="M30.3032227,278.829558 L36.4538798,262.422327 L49.874192,269.532323 C49.874192,269.532323 37.0133788,287.580117 37.0133788,291.407918 C37.0133788,295.23679 34.7764776,300.705153 33.098528,302.346251 L31.4211258,303.986814 L1.7846486,282.110683 L5.69895195,277.735671 C5.69895195,277.735671 8.49480471,276.095109 10.7317059,277.188996 C12.9686071,278.282883 17.441862,283.20457 28.6258205,281.564008 C29.1847721,280.470121 30.3032227,278.829558 30.3032227,278.829558" id="Fill-9" fill="#7B66E0"></path>
                        <polygon id="Stroke-11" fill="#292C54" points="2.06439811 281.837667 0.38699595 284.024905 30.0234732 304.807148 31.7008753 303.713262"></polygon>
                        <path d="M36.733684,262.149096 L33.3783322,261.055209 L80.908924,134.721185 L127.880017,135.815072 C127.880017,135.815072 135.149672,148.940108 134.031769,168.081789 C132.913318,187.22347 134.590173,211.287374 134.590173,211.287374 C134.590173,211.287374 158.635492,239.179614 161.430797,256.133521 L161.990296,262.149096 L148.569984,270.352444 C148.569984,270.352444 121.169861,232.616293 117.255557,224.959621 C113.341801,217.302948 98.8030386,179.567333 98.8030386,179.567333 L73.0808648,217.302948 C73.0808648,217.302948 64.6927591,248.476849 54.6277986,265.976897 C51.8313984,271.446331 49.5944972,269.258557 49.5944972,269.258557 L36.733684,262.149096 Z" id="Fill-13" fill="#FFFFFF"></path>
                        <path d="M80.909143,134.721078 C80.909143,134.721078 98.2683941,151.498829 133.15606,151.789033 L136.83879,148.866647 C136.83879,148.866647 124.247324,132.268266 125.342234,117.27618 C126.437144,102.284094 80.909143,134.721078 80.909143,134.721078" id="Fill-15" fill="url(#linearGradient-13)"></path>
                        <path d="M77.553846,133.627191 C77.553846,133.627191 78.1127976,62.5299017 82.5865999,55.9671162 C87.0598549,49.404866 115.578429,32.9976344 119.492185,35.1854081 C123.407036,37.3726463 125.084438,45.0293187 125.643389,47.7637681 C126.202341,50.4982174 129.597657,130.619672 129.597657,130.619672 C129.597657,130.619672 98.2438133,142.924426 77.553846,133.627191" id="Fill-17" fill="#3B3D6C"></path>
                        <path d="M87.0519715,51.1155701 C87.0519715,51.1155701 79.7905282,46.6698812 83.1453325,43.3887562 C86.5006843,40.1070957 106.6317,26.4348488 108.309102,27.5287357 C109.986504,28.6226225 111.210066,37.0792298 111.210066,37.0792298 L87.0519715,51.1155701 Z" id="Fill-19" fill="#3B3D6C"></path>
                        <path d="M142.419218,309.182375 L142.419218,311.370148 L157.516932,311.370148 C157.516932,311.370148 177.087901,290.041229 176.529497,288.400666 C175.969998,286.759569 175.411047,285.665682 175.411047,285.665682 L142.419218,309.182375 Z" id="Stroke-25" fill="#292C54"></path>
                        <path d="M148.570039,270.352605 L156.957597,284.024851 C156.957597,284.024851 153.043294,298.791521 151.365344,299.884872 C149.68849,300.978759 142.419382,300.432083 142.419382,304.80763 L142.419382,309.182642 L155.280195,309.182642 C155.280195,309.182642 175.970162,286.759836 175.410663,285.665949 C174.851712,284.572063 164.227252,273.634265 162.549303,267.618155 L160.871901,261.602045 C160.871901,261.602045 149.12899,259.414272 148.570039,270.352605" id="Fill-21" fill="#7B66E0"></path>
                        <path d="M93.7700657,98.0787608 C93.7700657,98.0787608 79.2313029,100.265999 74.1985489,98.6254365 C71.6824457,97.8051552 66.5100907,99.2406474 61.8266131,99.1726476 C57.1436829,99.1041124 52.9501775,97.5320851 52.3906784,98.0787608 C51.2722278,99.1726476 50.7132763,103.54766 52.9501775,103.54766 C55.1865312,103.54766 61.3377357,105.188757 65.2520391,109.016558 C69.1663425,112.84543 98.8028197,110.110445 98.8028197,110.110445 L93.7700657,98.0787608 Z" id="Fill-27" fill="#5E5553"></path>
                        <path d="M52.3906784,98.0787608 C52.3906784,98.0787608 47.358472,96.4381982 47.9174235,94.7976357 C48.4763751,93.1565377 49.0353267,92.0626509 49.0353267,92.0626509 L63.8434373,98.9327742 C63.8434373,98.9327742 59.1008346,101.359886 52.3906784,98.0787608" id="Fill-29" fill="#3B3D6C"></path>
                        <path d="M106.071216,77.8167962 C106.071216,77.8167962 87.5672362,65.0082006 88.7114171,50.096965 C88.737695,49.9513276 97.9228952,44.3796259 97.9228952,44.3796259 L106.071216,77.8167962 Z" id="Fill-31" fill="url(#linearGradient-13)"></path>
                        <path d="M88.7376402,74.015178 C88.7376402,75.2231118 87.736345,76.2024163 86.500739,76.2024163 C85.2651331,76.2024163 84.2638379,75.2231118 84.2638379,74.015178 C84.2638379,72.8067088 85.2651331,71.8274044 86.500739,71.8274044 C87.736345,71.8274044 88.7376402,72.8067088 88.7376402,74.015178" id="Fill-33" fill="#292C54"></path>
                        <path d="M87.0599643,92.6096479 C87.0599643,93.8175816 86.0586691,94.7974215 84.8230632,94.7974215 C83.5880046,94.7974215 82.5867094,93.8175816 82.5867094,92.6096479 C82.5867094,91.4017141 83.5880046,90.4224096 84.8230632,90.4224096 C86.0586691,90.4224096 87.0599643,91.4017141 87.0599643,92.6096479" id="Fill-35" fill="#292C54"></path>
                        <path d="M85.9415137,115.579397 C85.9415137,116.787867 84.9402185,117.767171 83.7046126,117.767171 C82.469554,117.767171 81.4682588,116.787867 81.4682588,115.579397 C81.4682588,114.371464 82.469554,113.392159 83.7046126,113.392159 C84.9402185,113.392159 85.9415137,114.371464 85.9415137,115.579397" id="Fill-37" fill="#292C54"></path>
                        <path d="M96.8751211,20.7101744 C96.8751211,20.7101744 93.6051723,25.5884921 93.0281547,23.102483 C91.8872584,17.5120413 84.3849349,13.6424768 82.9834501,19.7972635 C81.5819652,25.9525856 87.2711177,26.0730577 90.3762826,28.6126099 C93.4819949,31.1521622 87.6291533,38.44956 87.4786032,45.2500772 C87.3280531,52.0495235 83.4805392,54.4423675 77.7924816,54.3213599 C76.041173,54.2844152 74.380742,53.3152839 72.8577221,51.8669413 C71.0303173,50.1337491 69.4082081,47.7119918 68.0680382,45.4139192 C68.0680382,45.4074941 68.0620162,45.4074941 68.0620162,45.4074941 C67.4954003,44.4367565 66.9851722,43.4858299 66.5242151,42.6103992 L66.5242151,42.603974 C66.3599786,42.2977071 66.202859,41.9914402 66.0572359,41.703378 C65.3296682,40.2967991 65.9263942,39.0412119 65.4933573,38.5994808 C62.6925774,35.7381341 63.1568193,29.8912207 62.5661153,28.0236351 C60.7781272,23.7000247 60.9023995,17.474561 60.9023995,17.474561 C61.2576978,15.9973052 61.6732162,14.6517655 62.1429326,13.4374065 C69.8012808,-6.58720124 90.8388821,7.73666588 90.7874213,10.0673998 C90.7321283,12.5400231 96.8751211,20.7101744 96.8751211,20.7101744" id="Fill-39" fill="#5E5553"></path>
                        <path d="M93.0281547,23.102483 C91.8872584,17.5120413 84.3849349,13.6424768 82.9834501,19.7972635 C81.5819652,25.9525856 87.2711177,26.0730577 90.3762826,28.6126099 C93.4819949,31.1521622 87.6291533,38.44956 87.4786032,45.2500772 C87.3280531,52.0495235 83.4805392,54.4423675 77.7924816,54.3213599 C76.041173,54.2844152 74.380742,53.3152839 72.8577221,51.8669413 C72.9506499,51.8274044 73.0142592,52.0945492 72.9506499,52 C72.9041271,51.9308483 72.7001396,51.2056317 71.9281944,50.6015028 C70.1007895,49.1713649 69.1634957,47.0512692 68.0680382,45.4139192 C67.425326,44.4474651 66.9090759,43.5029637 66.5242151,42.6103992 L65.9625262,42 C65.0844084,39.95947 65.4440863,38.8270393 65.9625262,37.9848053 C67.0842615,36.1466685 72.4870951,36.8919893 73.7374823,37.5371844 C74.988417,38.1818441 77.4612713,40.708546 80.1262823,34.5799955 C84.1380327,24.7698171 79.7682468,22.2034933 76.6493956,20.2818291 C73.5299969,18.360165 74.8214433,17.1506249 74.2438782,14.6646158 C71.4797779,11.2726564 63.7009896,13.0374391 62.1429326,13.4374065 C69.8012808,-6.58720124 90.8388821,7.73666588 90.7874213,10.0673998 C90.7321283,12.5400231 96.8751211,20.7101744 96.8751211,20.7101744 C96.8751211,20.7101744 93.6051723,25.5884921 93.0281547,23.102483 Z" id="Fill-41" fill="url(#linearGradient-14)"></path>
                        <path d="M97.1253627,22.0595157 C97.1253627,26.8923216 93.1196344,30.8100749 88.1783054,30.8100749 C83.2369765,30.8100749 79.2312481,26.8923216 79.2312481,22.0595157 C79.2312481,17.2267097 83.2369765,13.3089565 88.1783054,13.3089565 C93.1196344,13.3089565 97.1253627,17.2267097 97.1253627,22.0595157" id="Fill-43" fill="#BECBEB"></path>
                        <path d="M92.0923898,21.5125723 C92.0923898,23.9289752 90.0897994,25.8875842 87.6191349,25.8875842 C85.1484704,25.8875842 83.1453325,23.9289752 83.1453325,21.5125723 C83.1453325,19.0961693 85.1484704,17.1375604 87.6191349,17.1375604 C90.0897994,17.1375604 92.0923898,19.0961693 92.0923898,21.5125723" id="Fill-45" fill="#ABBAD8"></path>
                        <path d="M89.1573192,21.7149119 L89.0998365,21.7716676 C88.350918,22.5036027 87.1383052,22.5036027 86.3893867,21.7716676 L67.4578448,3.25590624 C66.7100213,2.52397119 66.7100213,1.33745468 67.4578448,0.605519637 L67.5164225,0.548763884 C68.2647935,-0.182635731 69.4779538,-0.182635731 70.2263249,0.548763884 L89.1573192,19.0645253 C89.9056903,19.7964603 89.9056903,20.9829768 89.1573192,21.7149119" id="Fill-47" fill="#BECBEB"></path>
                        <path d="M98.7907209,179.653912 C98.7907209,179.653912 87.8416206,159.842942 87.8416206,155.024057 L78.5989376,208.908291 L98.7907209,179.653912 Z" id="Fill-49" fill="#DDE0FF"></path>
                        <path d="M113.900753,88.2344753 C113.900753,88.2344753 95.4476869,64.7177825 95.4476869,51.5922113 C95.4476869,38.4666402 113.341801,40.6544139 114.459705,40.6544139 C115.578155,40.6544139 122.288311,46.6699883 124.525212,52.6860982 C126.761566,58.7016726 138.504476,91.5161358 135.149125,101.360046 C131.794868,111.204493 119.492459,111.204493 111.663852,112.298379 C103.835245,113.392266 92.0923351,113.392266 92.0923351,113.392266 C92.0923351,113.392266 88.1785792,101.360046 88.7375307,97.5317103 C89.2970298,93.7033741 96.0066384,101.360046 113.900753,88.2344753" id="Fill-51" fill="#292C54"></path>
                    </g>
                </g>
                <g id="noun_Location_2545201" transform="translate(472.000000, 595.000000)"></g>
                <path d="" id="Path-3" stroke="#979797"></path>
                <g id="Group-15" transform="translate(301.000000, 777.000000)">
                    <g id="Group-20">
                        <g id="Rectangle">
                            <use fill="black" fill-opacity="1" filter="url(#filter-16)" xlink:href="#path-15"></use>
                            <use fill="#FFFFFF" fill-rule="evenodd" xlink:href="#path-15"></use>
                        </g>
                        <g id="Group-19" transform="translate(6.000000, 5.000000)">
                            <circle id="Oval" fill="#F2F5FF" cx="22" cy="22" r="22"></circle>
                            <circle id="Oval-Copy-8" fill="#F2F5FF" cx="71" cy="22" r="22"></circle>
                            <g id="Group-17" transform="translate(12.000000, 7.000000)">
                                <g id="Group-6">
                                    <path d="M10.2145472,22.6215329 C6.25145397,22.6215329 3.03870429,19.4087832 3.03870429,15.4456899 L3.03870429,9.67381626 C3.03870429,5.710723 6.25145397,2.49797332 10.2145472,2.49797332 C14.1776405,2.49797332 17.3903902,5.710723 17.3903902,9.67381626 L17.3903902,15.4456899 C17.3903902,19.4087832 14.1776405,22.6215329 10.2145472,22.6215329" id="Fill-1" fill="#BC925B"></path>
                                    <g id="Group-5" transform="translate(0.000000, 0.002028)">
                                        <mask id="mask-18" fill="white">
                                            <use xlink:href="#path-17"></use>
                                        </mask>
                                        <g id="Clip-4"></g>
                                        <path d="M9.18656093,2.61690512 C9.18656093,2.61690512 7.56263647,12.0117995 16.1424487,12.0117995 C17.7024145,12.0117995 17.2635961,13.3862854 17.2635961,13.3862854 C17.2635961,13.3862854 14.2704897,18.5636561 15.6744589,22.7755639 C17.0784282,26.9874717 17.7024145,32.4473522 17.7024145,32.4473522 C17.7024145,32.4473522 21.290336,26.0514922 21.290336,17.3156834 C21.290336,8.57987461 20.0423633,6.23986342e-05 9.4345955,0.156058984 C-1.17317232,0.31205557 -1.48516549,17.6276766 1.94675939,25.5835024 C4.13071159,31.0433829 2.25875256,33.0713385 2.25875256,33.0713385 C2.25875256,33.0713385 6.00267061,29.0154273 4.28670817,18.2516629 C2.57074573,7.48789851 5.50660147,3.20579223 9.18656093,2.61690512" id="Fill-3" fill="url(#linearGradient-14)" mask="url(#mask-18)"></path>
                                    </g>
                                </g>
                                <g id="Group-8" transform="translate(51.181818, 1.772727)">
                                    <g id="Group-18">
                                        <path d="M17.0177502,8.32288125 L17.0177502,14.8749646 C17.0177502,19.3746521 13.40331,23.0207979 8.94275019,23.0207979 C4.48219041,23.0207979 0.867750189,19.3746521 0.867750189,14.8749646 L0.867750189,8.32288125 C0.867750189,3.82319375 4.48219041,0.177047917 8.94275019,0.177047917 C11.1721524,0.177047917 13.1909024,1.08902708 14.6531795,2.56236042 C16.1137013,4.03746458 17.0177502,6.07392292 17.0177502,8.32288125" id="Fill-1" fill="#5E5553"></path>
                                        <path d="M3.87811373,23.0575762 C7.9510304,26.9534095 14.2149621,23.6390381 15.4545455,21.6911215 C16.6941288,19.7432048 17.7727273,13.9090909 17.04727,11.6794427 C16.9822804,11.6874115 14.8572804,18.0624115 12.7322804,17.3540781 C10.6072804,16.6457448 9.19061373,15.7603281 7.06561373,15.9374115 C4.94061373,16.1144948 4.58644706,18.4165781 3.87811373,17.5311615 C3.1697804,16.6457448 0.811030398,11.9916406 0.811030398,11.9916406 C0.811030398,11.9916406 -0.194802936,19.1617429 3.87811373,23.0575762 Z" id="Fill-6" fill="url(#linearGradient-14)"></path>
                                        <path d="M17.2414773,8.31725 L17.2414773,11.4055833 L16.9333523,12.1670417 C14.1442898,11.9439167 14.2310606,5.12975 13.6998106,3.71308333 C13.1685606,2.29641667 3.96022727,1.58808333 3.96022727,5.12975 C3.96022727,10.2651667 1.35178977,11.5685 1.35178977,11.5685 L0.949810606,11.1665208 L0.949810606,8.31725 C0.949810606,3.8175625 4.59595644,0.171416667 9.09564394,0.171416667 C11.3446023,0.171416667 13.3810606,1.08339583 14.8561648,2.55672917 C16.3294981,4.03183333 17.2414773,6.06829167 17.2414773,8.31725" id="Fill-3" fill="url(#linearGradient-14)"></path>
                                    </g>
                                </g>
                            </g>
                        </g>
                        <circle id="Oval-Copy-9" fill="#F2F5FF" cx="126" cy="27" r="22"></circle>
                        <text id="+" font-family="Avenir-Book, Avenir" font-size="20" font-weight="normal" fill="#B7C3EA">
                            <tspan x="119.34" y="34">+</tspan>
                        </text>
                    </g>
                </g>
                <path d="M400,616.260527 L409,572.260527 C409.666667,570.938726 410.666667,569.608276 412,568.269176 C413.333333,566.930077 416,564.173685 420,560" id="Path-5" stroke="#7C59F5" stroke-width="2" stroke-linecap="round" stroke-linejoin="round"></path>
                <rect id="Rectangle-Copy-5" fill-opacity="0.3" fill="#D3DAF0" transform="translate(524.548033, 410.629739) rotate(-66.000000) translate(-524.548033, -410.629739) " x="487.048033" y="385.129739" width="75" height="51"></rect>
                <polygon id="Path-6-Copy-7" fill-opacity="0.3" fill="#D3DAF0" transform="translate(279.031220, 446.103112) rotate(-11.000000) translate(-279.031220, -446.103112) " points="278.127606 457.595352 290.778208 440.229618 280.838449 433.000703 267.284232 451.811061 277.223991 459.205522"></polygon>
                <polygon id="Path-6-Copy-8" fill-opacity="0.3" fill="#D3DAF0" transform="translate(266.031220, 440.103112) rotate(-11.000000) translate(-266.031220, -440.103112) " points="265.127606 451.595352 277.778208 434.229618 267.838449 427.000703 254.284232 445.811061 264.223991 453.205522"></polygon>
                <circle id="Oval" fill="#8462F7" cx="471.9375" cy="494.9375" r="1"></circle>
                <path d="M473.795881,500.090226 C473.639631,499.590226 473.139631,499.277726 472.608381,499.433976 C470.889631,499.902726 466.202131,501.183976 464.858381,501.308976 L462.577131,501.496476 C461.327131,501.590226 459.920881,500.496476 459.577131,500.121476 C459.358381,499.808976 458.420881,497.902726 457.608381,496.183976 L459.170881,494.933976 C459.577131,495.277726 460.139631,495.496476 460.733381,495.496476 C460.733381,495.496476 460.733381,495.496476 460.733381,495.496476 C461.452131,495.496476 462.202131,495.215226 462.827131,494.715226 C463.452131,494.215226 463.889631,493.558976 464.045881,492.840226 C464.202131,492.090226 464.077131,491.371476 463.639631,490.840226 C462.764631,489.746476 460.983381,489.715226 459.670881,490.777726 C459.045881,491.277726 458.608381,491.933976 458.452131,492.652726 C458.327131,493.246476 458.389631,493.840226 458.639631,494.308976 L457.139631,495.496476 C456.764631,495.215226 456.233381,495.215226 455.858381,495.590226 C455.577131,495.871476 455.545881,496.277726 455.702131,496.621476 L455.139631,497.058976 C454.983381,497.183976 454.952131,497.433976 455.077131,497.621476 C455.170881,497.715226 455.264631,497.777726 455.389631,497.777726 C455.483381,497.777726 455.577131,497.746476 455.639631,497.683976 L456.045881,497.371476 C456.858381,499.090226 457.764631,500.933976 458.108381,501.308976 C458.545881,501.808976 459.952131,502.996476 461.639631,503.308976 C461.858381,504.277726 462.389631,506.777726 462.358381,508.683976 C462.077131,509.871476 461.639631,511.371476 461.389631,511.840226 C460.889631,512.090226 459.170881,512.621476 457.733381,512.996476 C457.170881,513.152726 456.764631,513.683976 456.858381,514.246476 C456.952131,514.902726 457.608381,515.308976 458.233381,515.152726 C460.795881,514.465226 462.358381,513.902726 462.827131,513.527726 C463.014631,513.371476 463.545881,512.933976 464.264631,510.058976 C464.514631,511.308976 464.827131,512.933976 464.827131,513.496476 C464.795881,514.027726 463.827131,516.277726 462.952131,518.027726 C462.702131,518.527726 462.795881,519.121476 463.233381,519.465226 C463.452131,519.621476 463.670881,519.683976 463.920881,519.683976 C464.327131,519.683976 464.702131,519.465226 464.920881,519.090226 C465.733381,517.465226 467.108381,514.590226 467.077131,513.433976 C467.045881,512.527726 466.577131,510.246476 466.389631,509.246476 C466.389631,509.246476 466.389631,509.246476 466.389631,509.246476 C466.889631,506.121476 466.420881,503.902726 466.139631,503.027726 C468.514631,502.558976 472.514631,501.433976 473.045881,501.277726 C473.670881,501.121476 473.952131,500.590226 473.795881,500.090226 Z M459.264631,492.808976 C459.389631,492.277726 459.733381,491.746476 460.202131,491.371476 C460.733381,490.996476 461.295881,490.777726 461.827131,490.777726 C462.327131,490.777726 462.795881,490.965226 463.077131,491.340226 C463.358381,491.683976 463.452131,492.152726 463.327131,492.683976 C463.202131,493.215226 462.858381,493.746476 462.389631,494.121476 C461.889631,494.496476 461.327131,494.715226 460.764631,494.715226 C460.233381,494.715226 459.795881,494.527726 459.514631,494.183976 C459.233381,493.840226 459.170881,493.340226 459.264631,492.808976 Z" id="Shape" fill="#8462F7" fill-rule="nonzero"></path>
                <circle id="Oval" fill="#8462F7" transform="translate(463.419254, 498.419254) rotate(-4.492356) translate(-463.419254, -498.419254) " cx="463.419254" cy="498.419254" r="2.24993727"></circle>
            </g>
        </g>
    </g>
</svg>